{"glyphs":{"0":{"ha":749,"x_min":58,"x_max":692,"o":"m 692 490 q 670 274 692 368 q 606 115 648 180 q 504 17 564 50 q 366 -17 443 -17 q 235 15 292 -17 q 138 109 178 47 q 79 261 99 171 q 58 467 58 351 q 80 692 58 594 q 142 856 101 789 q 245 955 184 922 q 386 989 307 989 q 692 490 692 989 m 578 479 q 380 895 578 895 q 172 472 172 895 q 376 78 172 78 q 578 479 578 78 z "},"1":{"ha":749,"x_min":155,"x_max":491,"o":"m 491 0 l 380 0 l 380 840 q 342 811 367 827 q 287 778 317 794 q 221 747 256 762 q 155 725 187 733 l 155 838 q 232 865 191 848 q 313 904 273 882 q 388 948 353 925 q 449 994 423 972 l 491 994 l 491 0 z "},"2":{"ha":749,"x_min":74,"x_max":674,"o":"m 524 718 q 510 795 524 762 q 472 851 496 829 q 415 884 448 873 q 345 895 382 895 q 281 886 312 895 q 220 861 250 877 q 163 824 191 846 q 112 776 136 802 l 112 895 q 217 965 159 941 q 358 989 275 989 q 469 971 418 989 q 557 921 519 954 q 615 839 594 888 q 637 727 637 790 q 624 623 637 669 q 584 534 610 576 q 516 455 557 493 q 420 378 475 417 q 308 294 352 329 q 237 230 263 260 q 200 169 211 199 q 190 100 190 139 l 674 100 l 674 0 l 74 0 l 74 48 q 87 158 74 111 q 132 248 101 205 q 214 334 163 291 q 338 430 264 376 q 426 503 391 468 q 484 572 462 537 q 514 642 505 606 q 524 718 524 677 z "},"3":{"ha":749,"x_min":83,"x_max":646,"o":"m 646 275 q 622 156 646 210 q 552 63 597 102 q 444 4 507 25 q 304 -17 380 -17 q 83 36 165 -17 l 83 155 q 309 78 182 78 q 400 91 359 78 q 471 128 441 104 q 516 187 500 153 q 532 265 532 222 q 261 456 532 456 l 180 456 l 180 550 l 257 550 q 497 729 497 550 q 314 895 497 895 q 121 825 211 895 l 121 933 q 342 989 214 989 q 452 972 403 989 q 537 924 502 955 q 592 851 572 894 q 611 757 611 808 q 417 510 611 565 l 417 507 q 509 483 467 502 q 581 435 551 465 q 629 365 612 405 q 646 275 646 324 z "},"4":{"ha":749,"x_min":9,"x_max":701,"o":"m 576 972 l 576 330 l 701 330 l 701 229 l 576 229 l 576 0 l 467 0 l 467 229 l 9 229 l 9 325 q 138 478 73 397 q 263 644 203 560 q 373 812 322 728 q 458 972 423 896 l 576 972 m 135 330 l 467 330 l 467 806 q 370 648 416 718 q 284 521 325 578 q 205 418 243 464 q 135 330 168 372 z "},"5":{"ha":749,"x_min":111,"x_max":657,"o":"m 657 297 q 633 168 657 226 q 563 69 608 111 q 454 5 518 28 q 313 -17 391 -17 q 111 24 177 -17 l 111 142 q 314 78 210 78 q 409 94 367 78 q 481 137 452 109 q 527 204 511 165 q 543 290 543 243 q 479 439 543 385 q 294 493 416 493 q 253 492 275 493 q 210 491 231 492 q 167 488 188 490 q 130 485 146 487 l 163 972 l 612 972 l 612 872 l 259 872 l 239 587 q 286 589 261 588 q 329 590 310 590 q 467 570 406 590 q 571 512 528 549 q 635 419 613 474 q 657 297 657 365 z "},"6":{"ha":749,"x_min":75,"x_max":693,"o":"m 693 309 q 670 178 693 237 q 606 75 647 118 q 509 7 566 31 q 387 -17 453 -17 q 256 14 314 -17 q 158 101 198 44 q 96 241 117 159 q 75 428 75 324 q 103 658 75 555 q 183 835 132 762 q 309 949 235 909 q 472 989 382 989 q 633 961 572 989 l 633 856 q 475 895 558 895 q 357 865 410 895 q 268 783 305 836 q 211 654 231 730 q 191 487 191 579 l 193 487 q 415 608 260 608 q 530 587 479 608 q 617 525 581 565 q 673 431 654 486 q 693 309 693 376 m 579 294 q 566 386 579 345 q 529 455 553 427 q 470 499 505 484 q 390 514 435 514 q 313 498 349 514 q 252 456 278 483 q 212 394 227 429 q 197 318 197 358 q 212 224 197 268 q 252 148 226 180 q 313 97 277 115 q 392 78 349 78 q 469 94 434 78 q 528 138 503 110 q 566 207 552 167 q 579 294 579 246 z "},"7":{"ha":749,"x_min":66,"x_max":685,"o":"m 685 908 q 631 812 663 869 q 564 682 600 754 q 492 528 529 610 q 424 357 456 445 q 368 178 392 269 q 333 0 344 87 l 214 0 q 251 177 226 87 q 309 355 277 268 q 377 523 341 442 q 447 671 413 604 q 509 791 481 739 q 554 872 537 843 l 66 872 l 66 972 l 685 972 l 685 908 z "},"8":{"ha":749,"x_min":61,"x_max":692,"o":"m 61 271 q 73 349 61 310 q 108 422 85 388 q 164 484 131 456 q 241 528 198 511 q 140 618 178 563 q 103 741 103 673 q 124 840 103 794 q 181 918 144 885 q 268 970 218 951 q 376 989 318 989 q 486 970 435 989 q 572 918 536 951 q 629 839 609 884 q 650 741 650 793 q 612 618 650 673 q 513 528 575 563 q 589 484 555 511 q 645 422 622 456 q 680 349 667 388 q 692 271 692 310 q 669 155 692 208 q 604 64 646 102 q 504 5 562 26 q 376 -16 446 -16 q 250 5 307 -16 q 150 64 192 26 q 84 155 108 102 q 61 271 61 208 m 182 281 q 196 199 182 235 q 235 136 210 162 q 297 97 260 111 q 377 83 333 83 q 456 97 420 83 q 518 137 492 111 q 558 199 544 163 q 573 281 573 236 q 559 357 573 321 q 519 420 545 393 q 458 463 494 447 q 377 478 422 478 q 299 464 335 478 q 238 423 264 449 q 197 360 212 397 q 182 281 182 324 m 216 732 q 229 668 216 697 q 263 616 241 638 q 315 582 286 594 q 377 569 344 569 q 440 582 410 569 q 491 617 469 595 q 526 668 513 639 q 538 732 538 698 q 526 797 538 767 q 492 848 513 827 q 440 883 470 870 q 377 895 411 895 q 312 882 341 895 q 261 847 282 869 q 228 795 239 825 q 216 732 216 766 z "},"9":{"ha":749,"x_min":64,"x_max":681,"o":"m 681 545 q 654 307 681 411 q 577 131 628 203 q 453 21 526 58 q 286 -17 380 -17 q 117 17 190 -17 l 117 123 q 289 78 197 78 q 407 105 355 78 q 494 184 458 132 q 549 312 530 236 q 568 486 568 388 l 566 486 q 349 361 503 361 q 234 383 286 361 q 144 445 182 405 q 85 541 106 486 q 64 664 64 597 q 87 795 64 736 q 152 898 111 855 q 251 965 194 941 q 376 989 309 989 q 506 959 450 989 q 602 873 563 930 q 661 734 640 817 q 681 545 681 651 m 561 644 q 546 747 561 701 q 506 826 532 793 q 445 877 480 859 q 367 895 409 895 q 292 879 327 895 q 232 834 258 863 q 192 765 207 805 q 178 679 178 726 q 192 587 178 627 q 231 518 205 546 q 293 475 257 490 q 374 460 330 460 q 447 474 412 460 q 506 514 481 489 q 546 572 532 538 q 561 644 561 606 z "},"\r":{"ha":0,"x_min":0,"x_max":0,"o":""}," ":{"ha":380,"x_min":0,"x_max":0,"o":""},"!":{"ha":395,"x_min":122,"x_max":273,"o":"m 254 972 l 241 274 l 150 274 l 138 972 l 254 972 m 197 -12 q 144 9 166 -12 q 122 62 122 31 q 144 116 122 94 q 197 138 166 138 q 250 116 228 138 q 273 62 273 94 q 250 9 273 31 q 197 -12 228 -12 z "},"\"":{"ha":545,"x_min":100,"x_max":444,"o":"m 219 972 l 199 669 l 121 669 l 100 972 l 219 972 m 444 972 l 424 669 l 346 669 l 326 972 l 444 972 z "},"#":{"ha":821,"x_min":22,"x_max":791,"o":"m 791 700 l 775 628 l 598 628 l 555 425 l 746 425 l 728 353 l 541 353 l 481 83 l 396 83 l 454 353 l 285 353 l 228 83 l 143 83 l 200 353 l 22 353 l 36 425 l 216 425 l 257 628 l 69 628 l 83 700 l 271 700 l 328 972 l 414 972 l 357 700 l 528 700 l 586 972 l 669 972 l 612 700 l 791 700 m 514 628 l 343 628 l 298 425 l 471 425 l 514 628 z "},"$":{"ha":749,"x_min":110,"x_max":663,"o":"m 418 5 l 418 -142 l 347 -142 l 347 0 q 113 58 203 0 l 113 176 q 220 118 152 142 q 347 95 288 95 l 347 442 q 154 575 198 514 q 110 718 110 635 q 177 888 110 817 q 347 974 244 960 l 347 1096 l 418 1096 l 418 977 q 602 939 551 972 l 602 823 q 418 882 532 878 l 418 524 q 611 394 559 456 q 663 251 663 331 q 598 89 663 155 q 418 5 533 24 m 347 562 l 347 878 q 257 827 290 866 q 224 732 224 788 q 251 637 224 674 q 347 562 278 600 m 418 407 l 418 100 q 549 241 549 129 q 418 407 549 335 z "},"%":{"ha":1137,"x_min":54,"x_max":1085,"o":"m 274 485 q 114 551 174 485 q 54 728 54 617 q 117 918 54 848 q 288 987 180 987 q 449 923 391 987 q 506 742 506 859 q 442 555 506 625 q 274 485 378 485 m 283 913 q 182 865 219 913 q 144 734 144 817 q 181 606 144 652 q 281 560 218 560 q 380 608 345 560 q 416 739 416 655 q 381 867 416 821 q 283 913 345 913 m 925 972 l 301 -7 l 204 -7 l 827 972 l 925 972 m 853 -15 q 693 52 753 -15 q 633 228 633 118 q 697 419 633 349 q 867 489 761 489 q 1027 424 970 489 q 1085 241 1085 359 q 1021 55 1085 125 q 853 -15 957 -15 m 863 412 q 761 365 798 412 q 724 233 724 317 q 760 107 724 153 q 860 61 797 61 q 960 109 924 61 q 996 240 996 157 q 960 368 996 323 q 863 412 924 412 z "},"&":{"ha":1112,"x_min":81,"x_max":1084,"o":"m 980 -16 q 912 -5 941 -16 q 857 25 882 5 q 809 72 832 44 q 760 135 785 100 q 697 79 732 106 q 618 31 661 52 q 523 -3 574 9 q 411 -16 471 -16 q 277 3 338 -16 q 172 57 216 21 q 105 144 129 92 q 81 264 81 197 q 140 442 81 368 q 307 562 199 515 q 266 597 286 577 q 230 643 245 617 q 204 699 214 668 q 194 766 194 730 q 213 861 194 820 q 267 931 233 903 q 347 974 300 960 q 446 989 393 989 q 543 974 499 989 q 618 932 587 960 q 667 867 650 905 q 685 783 685 829 q 638 647 685 701 q 499 555 592 593 q 584 511 546 537 q 654 452 622 484 q 714 382 686 419 q 769 304 742 345 q 852 473 824 381 q 880 667 880 566 q 877 715 880 692 q 868 760 873 738 l 976 760 q 982 718 981 738 q 985 670 983 698 q 972 546 985 608 q 937 425 959 484 q 887 313 916 366 q 826 216 858 260 q 869 160 850 184 q 909 119 889 136 q 950 95 929 103 q 999 87 972 87 q 1040 93 1019 87 q 1084 106 1061 98 l 1084 3 q 1033 -11 1059 -6 q 980 -16 1006 -16 m 411 81 q 506 92 463 81 q 586 122 549 103 q 652 165 623 140 q 707 217 682 190 q 630 327 665 281 q 560 406 595 373 q 484 463 524 439 q 391 507 444 487 q 312 470 348 490 q 250 421 276 449 q 209 355 224 393 q 194 268 194 318 q 211 186 194 222 q 257 128 228 151 q 326 93 287 104 q 411 81 366 81 m 581 773 q 568 831 581 807 q 536 870 555 854 q 493 893 517 886 q 446 900 469 900 q 340 864 380 900 q 300 766 300 828 q 308 714 300 739 q 332 669 317 690 q 368 631 347 648 q 411 604 388 615 q 538 673 496 633 q 581 773 581 713 z "},"'":{"ha":319,"x_min":100,"x_max":219,"o":"m 219 972 l 199 669 l 121 669 l 100 972 l 219 972 z "},"(":{"ha":419,"x_min":95,"x_max":406,"o":"m 404 -221 l 305 -221 q 95 371 95 19 q 305 972 95 724 l 406 972 q 193 372 193 715 q 404 -221 193 33 z "},")":{"ha":419,"x_min":15,"x_max":327,"o":"m 115 -221 l 16 -221 q 228 372 228 33 q 15 972 228 715 l 115 972 q 327 371 327 724 q 115 -221 327 19 z "},"*":{"ha":579,"x_min":52,"x_max":529,"o":"m 529 749 l 343 711 l 472 546 l 397 494 l 292 674 l 184 494 l 110 546 l 239 711 l 52 749 l 82 833 l 260 766 l 244 972 l 338 972 l 322 766 l 500 833 l 529 749 z "},"+":{"ha":950,"x_min":157,"x_max":795,"o":"m 795 359 l 521 359 l 521 86 l 431 86 l 431 359 l 157 359 l 157 450 l 431 450 l 431 724 l 521 724 l 521 450 l 795 450 l 795 359 z "},",":{"ha":301,"x_min":26,"x_max":214,"o":"m 214 155 l 106 -179 l 26 -179 l 106 155 l 214 155 z "},"-":{"ha":555,"x_min":98,"x_max":468,"o":"m 468 343 l 98 343 l 98 431 l 468 431 l 468 343 z "},".":{"ha":301,"x_min":76,"x_max":228,"o":"m 151 -15 q 98 7 120 -15 q 76 61 76 30 q 98 115 76 92 q 151 138 120 138 q 205 115 183 138 q 228 61 228 92 q 205 7 228 30 q 151 -15 183 -15 z "},"/":{"ha":541,"x_min":-19,"x_max":551,"o":"m 551 972 l 85 -161 l -19 -161 l 446 972 l 551 972 z "},":":{"ha":301,"x_min":76,"x_max":228,"o":"m 151 559 q 98 581 120 559 q 76 635 76 604 q 98 688 76 666 q 151 709 120 709 q 205 688 183 709 q 228 635 228 666 q 205 581 228 604 q 151 559 183 559 m 151 -15 q 98 7 120 -15 q 76 61 76 30 q 98 115 76 92 q 151 138 120 138 q 205 115 183 138 q 228 61 228 92 q 205 7 228 30 q 151 -15 183 -15 z "},";":{"ha":301,"x_min":26,"x_max":229,"o":"m 153 559 q 99 581 121 559 q 77 635 77 604 q 99 688 77 666 q 153 709 121 709 q 207 688 184 709 q 229 635 229 666 q 207 581 229 604 q 153 559 184 559 m 214 155 l 106 -179 l 26 -179 l 106 155 l 214 155 z "},"<":{"ha":950,"x_min":184,"x_max":768,"o":"m 768 86 l 184 379 l 184 419 l 768 746 l 768 644 l 332 403 l 332 400 l 768 187 l 768 86 z "},"=":{"ha":950,"x_min":157,"x_max":795,"o":"m 795 505 l 157 505 l 157 594 l 795 594 l 795 505 m 795 216 l 157 216 l 157 305 l 795 305 l 795 216 z "},">":{"ha":950,"x_min":184,"x_max":768,"o":"m 768 379 l 184 86 l 184 187 l 621 399 l 621 403 l 184 644 l 184 746 l 768 419 l 768 379 z "},"?":{"ha":623,"x_min":89,"x_max":554,"o":"m 227 270 q 216 316 221 288 q 212 372 212 344 q 229 450 212 415 q 272 515 246 485 q 328 574 298 546 q 385 631 359 602 q 428 691 410 660 q 445 761 445 723 q 432 819 445 793 q 398 861 420 844 q 348 886 376 878 q 288 895 319 895 q 89 804 173 895 l 89 924 q 304 989 193 989 q 401 975 355 989 q 480 935 446 962 q 534 868 515 908 q 554 775 554 828 q 536 686 554 725 q 492 613 519 646 q 434 552 465 581 q 376 495 403 524 q 332 437 349 467 q 314 370 314 406 q 321 313 314 338 q 336 270 329 288 l 227 270 m 288 -12 q 235 9 258 -12 q 213 62 213 31 q 235 115 213 94 q 288 138 258 138 q 341 115 319 138 q 363 62 363 94 q 341 9 363 31 q 288 -12 318 -12 z "},"@":{"ha":1326,"x_min":117,"x_max":1213,"o":"m 789 285 l 786 285 q 591 123 736 123 q 442 192 498 123 q 385 376 385 260 q 464 631 385 530 q 669 732 542 732 q 756 707 718 732 q 806 644 795 682 l 808 644 q 815 722 810 663 l 900 722 q 868 342 868 349 q 949 201 868 201 q 1070 281 1022 201 q 1119 486 1119 360 q 1001 791 1119 673 q 674 909 883 909 q 341 768 473 909 q 210 415 210 627 q 335 79 210 207 q 672 -49 460 -49 q 958 7 840 -49 l 958 -77 q 665 -127 841 -127 q 268 21 418 -127 q 117 411 117 170 q 275 823 117 659 q 680 986 433 986 q 1061 849 910 986 q 1213 492 1213 712 q 1133 227 1213 330 q 939 123 1053 123 q 789 285 790 123 m 668 654 q 532 574 584 654 q 480 375 480 494 q 515 249 480 295 q 608 203 550 203 q 742 287 692 203 q 791 509 791 370 q 668 654 791 654 z "},"A":{"ha":896,"x_min":15,"x_max":880,"o":"m 880 0 l 754 0 l 651 273 l 239 273 l 142 0 l 15 0 l 388 972 l 506 972 l 880 0 m 614 375 l 461 789 q 446 854 454 810 l 444 854 q 428 789 437 813 l 277 375 l 614 375 z "},"B":{"ha":796,"x_min":127,"x_max":726,"o":"m 127 0 l 127 972 l 404 972 q 604 911 530 972 q 678 750 678 849 q 633 606 678 667 q 510 519 589 545 l 510 517 q 667 443 608 505 q 726 279 726 380 q 637 77 726 155 q 411 0 547 0 l 127 0 m 241 869 l 241 555 l 358 555 q 505 601 452 555 q 559 728 559 646 q 372 869 559 869 l 241 869 m 241 453 l 241 103 l 396 103 q 552 151 496 103 q 607 281 607 198 q 372 453 607 453 l 241 453 z "},"C":{"ha":860,"x_min":64,"x_max":789,"o":"m 789 41 q 521 -16 682 -16 q 189 117 313 -16 q 64 468 64 251 q 204 845 64 701 q 560 989 345 989 q 789 949 699 989 l 789 827 q 559 886 685 886 q 287 774 391 886 q 183 475 183 662 q 280 192 183 297 q 536 86 378 86 q 789 151 682 86 l 789 41 z "},"D":{"ha":974,"x_min":127,"x_max":910,"o":"m 127 0 l 127 972 l 396 972 q 910 498 910 972 q 767 137 910 273 q 385 0 625 0 l 127 0 m 241 869 l 241 103 l 387 103 q 684 205 578 103 q 791 496 791 308 q 393 869 791 869 l 241 869 z "},"E":{"ha":703,"x_min":127,"x_max":643,"o":"m 643 0 l 127 0 l 127 972 l 621 972 l 621 869 l 241 869 l 241 546 l 593 546 l 593 444 l 241 444 l 241 103 l 643 103 l 643 0 z "},"F":{"ha":678,"x_min":127,"x_max":621,"o":"m 621 869 l 241 869 l 241 533 l 593 533 l 593 431 l 241 431 l 241 0 l 127 0 l 127 972 l 621 972 l 621 869 z "},"G":{"ha":953,"x_min":64,"x_max":854,"o":"m 854 66 q 529 -16 708 -16 q 192 118 321 -16 q 64 473 64 252 q 207 844 64 699 q 568 989 349 989 q 835 937 727 989 l 835 811 q 555 886 717 886 q 288 773 392 886 q 183 481 183 661 q 280 192 183 297 q 543 86 377 86 q 741 132 657 86 l 741 404 l 528 404 l 528 507 l 854 507 l 854 66 z "},"H":{"ha":986,"x_min":127,"x_max":859,"o":"m 859 0 l 745 0 l 745 444 l 241 444 l 241 0 l 127 0 l 127 972 l 241 972 l 241 546 l 745 546 l 745 972 l 859 972 l 859 0 z "},"I":{"ha":370,"x_min":127,"x_max":241,"o":"m 241 0 l 127 0 l 127 972 l 241 972 l 241 0 z "},"J":{"ha":496,"x_min":14,"x_max":376,"o":"m 376 349 q 303 80 376 176 q 107 -16 230 -16 q 14 0 50 -16 l 14 113 q 109 86 50 86 q 262 347 262 86 l 262 972 l 376 972 l 376 349 z "},"K":{"ha":806,"x_min":127,"x_max":804,"o":"m 804 0 l 646 0 l 270 445 q 244 479 249 470 l 241 479 l 241 0 l 127 0 l 127 972 l 241 972 l 241 515 l 244 515 q 270 549 254 530 l 633 972 l 775 972 l 358 506 l 804 0 z "},"L":{"ha":654,"x_min":127,"x_max":632,"o":"m 632 0 l 127 0 l 127 972 l 241 972 l 241 103 l 632 103 l 632 0 z "},"M":{"ha":1247,"x_min":127,"x_max":1119,"o":"m 1119 0 l 1006 0 l 1006 652 q 1015 842 1006 730 l 1013 842 q 983 747 996 776 l 651 0 l 595 0 l 264 742 q 235 842 250 774 l 232 842 q 237 651 237 783 l 237 0 l 127 0 l 127 972 l 278 972 l 576 294 q 621 178 611 216 l 625 178 q 672 297 654 258 l 977 972 l 1119 972 l 1119 0 z "},"N":{"ha":1039,"x_min":127,"x_max":911,"o":"m 911 0 l 772 0 l 271 775 q 240 836 252 804 l 236 836 q 241 703 241 805 l 241 0 l 127 0 l 127 972 l 275 972 l 762 210 q 802 144 793 162 l 804 144 q 798 288 798 186 l 798 972 l 911 972 l 911 0 z "},"O":{"ha":1047,"x_min":64,"x_max":983,"o":"m 519 -16 q 188 120 313 -16 q 64 475 64 256 q 191 849 64 709 q 536 989 317 989 q 860 853 737 989 q 983 498 983 718 q 857 122 983 260 q 519 -16 731 -16 m 528 886 q 279 775 374 886 q 183 485 183 665 q 276 196 183 305 q 519 86 370 86 q 772 191 680 86 q 864 483 864 295 q 774 781 864 675 q 528 886 685 886 z "},"P":{"ha":778,"x_min":127,"x_max":722,"o":"m 241 368 l 241 0 l 127 0 l 127 972 l 395 972 q 636 897 551 972 q 722 682 722 821 q 627 456 722 544 q 370 368 532 368 l 241 368 m 241 869 l 241 471 l 361 471 q 541 525 479 471 q 603 677 603 578 q 375 869 603 869 l 241 869 z "},"Q":{"ha":1047,"x_min":64,"x_max":1067,"o":"m 519 -16 q 188 120 313 -16 q 64 475 64 256 q 191 849 64 710 q 536 989 318 989 q 860 853 736 989 q 983 498 983 718 q 857 122 983 260 q 793 65 827 89 l 1067 -131 l 860 -131 l 677 6 q 519 -16 605 -16 m 528 886 q 279 775 374 886 q 183 485 183 665 q 276 195 183 306 q 519 86 370 86 q 772 191 680 86 q 864 483 864 295 q 774 781 864 676 q 528 886 685 886 z "},"R":{"ha":831,"x_min":127,"x_max":825,"o":"m 825 0 l 689 0 l 526 273 q 483 337 504 311 q 440 381 462 364 q 392 406 418 398 q 335 414 367 414 l 241 414 l 241 0 l 127 0 l 127 972 l 418 972 q 535 957 481 972 q 629 908 589 941 q 691 827 669 876 q 713 713 713 779 q 698 620 713 663 q 655 545 683 578 q 587 488 627 511 q 498 452 547 465 l 498 449 q 540 424 522 438 q 574 391 558 410 q 607 348 591 372 q 642 292 623 324 l 825 0 m 241 869 l 241 517 l 396 517 q 475 530 439 517 q 538 567 511 543 q 579 626 564 591 q 594 704 594 661 q 544 826 594 782 q 397 869 493 869 l 241 869 z "},"S":{"ha":738,"x_min":82,"x_max":671,"o":"m 82 39 l 82 174 q 137 137 105 153 q 205 110 170 121 q 277 92 241 98 q 343 86 313 86 q 500 125 448 86 q 552 237 552 164 q 535 306 552 277 q 487 359 517 335 q 415 405 456 383 q 325 452 373 427 q 230 504 274 477 q 153 562 186 530 q 102 634 121 594 q 83 729 83 675 q 113 845 83 795 q 189 926 142 894 q 297 973 237 958 q 421 989 358 989 q 631 954 565 989 l 631 826 q 410 886 545 886 q 335 878 372 886 q 269 852 298 870 q 221 807 239 835 q 203 739 203 779 q 217 675 203 702 q 258 625 231 648 q 324 582 285 603 q 414 536 363 561 q 513 481 466 510 q 595 418 559 453 q 651 342 630 384 q 671 245 671 300 q 643 124 671 174 q 567 43 615 74 q 457 -2 519 12 q 326 -16 395 -16 q 269 -13 302 -16 q 199 -2 235 -9 q 133 16 164 5 q 82 39 101 26 z "},"T":{"ha":728,"x_min":28,"x_max":703,"o":"m 703 869 l 422 869 l 422 0 l 308 0 l 308 869 l 28 869 l 28 972 l 703 972 l 703 869 z "},"U":{"ha":954,"x_min":115,"x_max":839,"o":"m 839 393 q 469 -16 839 -16 q 115 378 115 -16 l 115 972 l 229 972 l 229 385 q 481 86 229 86 q 725 375 725 86 l 725 972 l 839 972 l 839 393 z "},"V":{"ha":863,"x_min":12,"x_max":850,"o":"m 850 972 l 490 0 l 365 0 l 12 972 l 139 972 l 408 201 q 428 115 421 164 l 431 115 q 453 203 436 156 l 728 972 l 850 972 z "},"W":{"ha":1297,"x_min":18,"x_max":1280,"o":"m 1280 972 l 1006 0 l 872 0 l 672 711 q 656 810 659 756 l 654 810 q 636 712 650 760 l 435 0 l 302 0 l 18 972 l 143 972 l 350 227 q 366 129 363 180 l 370 129 q 391 227 373 165 l 606 972 l 715 972 l 921 221 q 937 130 932 182 l 940 130 q 958 224 943 165 l 1157 972 l 1280 972 z "},"X":{"ha":819,"x_min":18,"x_max":799,"o":"m 799 0 l 660 0 l 436 372 q 414 420 426 389 l 411 420 q 388 372 404 405 l 157 0 l 18 0 l 343 489 l 43 972 l 183 972 l 382 631 q 416 563 401 597 l 419 563 q 457 633 441 608 l 664 972 l 795 972 l 489 490 l 799 0 z "},"Y":{"ha":768,"x_min":12,"x_max":760,"o":"m 760 972 l 439 359 l 439 0 l 325 0 l 325 357 l 12 972 l 142 972 l 359 533 q 383 473 363 525 l 385 473 q 411 533 392 496 l 639 972 l 760 972 z "},"Z":{"ha":792,"x_min":22,"x_max":762,"o":"m 762 945 l 193 103 l 749 103 l 749 0 l 22 0 l 22 32 l 587 869 l 68 869 l 68 972 l 762 972 l 762 945 z "},"[":{"ha":419,"x_min":136,"x_max":385,"o":"m 385 -221 l 136 -221 l 136 972 l 385 972 l 385 892 l 235 892 l 235 -140 l 385 -140 l 385 -221 z "},"\\":{"ha":526,"x_min":-18,"x_max":541,"o":"m 541 -163 l 439 -163 l -18 972 l 87 972 l 541 -163 z "},"]":{"ha":419,"x_min":36,"x_max":285,"o":"m 285 -221 l 36 -221 l 36 -140 l 186 -140 l 186 892 l 36 892 l 36 972 l 285 972 l 285 -221 z "},"^":{"ha":950,"x_min":156,"x_max":796,"o":"m 796 423 l 694 423 l 469 843 l 465 843 l 256 423 l 156 423 l 442 989 l 486 989 l 796 423 z "},"_":{"ha":576,"x_min":0,"x_max":576,"o":"m 576 -201 l 0 -201 l 0 -121 l 576 -121 l 576 -201 z "},"`":{"ha":372,"x_min":56,"x_max":319,"o":"m 319 826 l 233 826 l 56 1048 l 170 1048 l 319 826 z "},"a":{"ha":707,"x_min":61,"x_max":610,"o":"m 610 0 l 498 0 l 498 109 l 496 109 q 282 -16 423 -16 q 120 39 178 -16 q 61 184 61 94 q 290 411 61 379 l 498 440 q 355 617 498 617 q 129 532 230 617 l 129 646 q 365 711 231 711 q 610 452 610 711 l 610 0 m 498 351 l 331 328 q 214 290 254 317 q 175 193 175 262 q 211 110 175 142 q 308 77 248 77 q 445 135 391 77 q 498 282 498 193 l 498 351 z "},"b":{"ha":817,"x_min":113,"x_max":751,"o":"m 227 100 l 224 100 l 224 0 l 113 0 l 113 1028 l 224 1028 l 224 572 l 227 572 q 467 711 309 711 q 676 617 600 711 q 751 368 751 524 q 667 89 751 193 q 435 -16 582 -16 q 227 100 297 -16 m 224 380 l 224 283 q 280 137 224 197 q 422 77 336 77 q 580 155 523 77 q 637 370 637 232 q 584 551 637 486 q 439 617 530 617 q 283 550 342 617 q 224 380 224 482 z "},"c":{"ha":642,"x_min":65,"x_max":587,"o":"m 586 32 q 396 -16 506 -16 q 156 80 248 -16 q 65 331 65 177 q 163 607 65 503 q 426 711 262 711 q 587 677 517 711 l 587 563 q 422 617 510 617 q 247 541 315 617 q 179 340 179 465 q 243 148 179 218 q 415 77 307 77 q 586 138 506 77 l 586 32 z "},"d":{"ha":818,"x_min":65,"x_max":705,"o":"m 705 0 l 594 0 l 594 118 l 591 118 q 353 -16 514 -16 q 143 77 222 -16 q 65 331 65 170 q 152 607 65 503 q 383 711 239 711 q 591 598 526 711 l 594 598 l 594 1028 l 705 1028 l 705 0 m 594 314 l 594 416 q 538 559 594 500 q 397 617 483 617 q 237 543 296 617 q 179 336 179 468 q 235 147 179 216 q 385 77 291 77 q 536 144 478 77 q 594 314 594 212 z "},"e":{"ha":726,"x_min":65,"x_max":671,"o":"m 671 319 l 180 319 q 243 140 183 203 q 407 77 302 77 q 623 155 524 77 l 623 50 q 380 -16 531 -16 q 149 78 233 -16 q 65 345 65 173 q 157 609 65 507 q 385 711 249 711 q 596 623 522 711 q 671 378 671 534 l 671 319 m 557 414 q 510 564 556 510 q 383 617 465 617 q 250 561 304 617 q 182 414 195 505 l 557 414 z "},"f":{"ha":435,"x_min":36,"x_max":456,"o":"m 456 930 q 382 949 423 949 q 265 802 265 949 l 265 694 l 428 694 l 428 600 l 265 600 l 265 0 l 155 0 l 155 600 l 36 600 l 36 694 l 155 694 l 155 807 q 218 980 155 916 q 375 1043 281 1043 q 456 1031 426 1043 l 456 930 z "},"g":{"ha":818,"x_min":65,"x_max":705,"o":"m 705 56 q 339 -327 705 -327 q 114 -278 210 -327 l 114 -167 q 338 -232 231 -232 q 594 41 594 -232 l 594 117 l 591 117 q 353 -16 512 -16 q 144 76 223 -16 q 65 325 65 169 q 150 606 65 502 q 383 711 235 711 q 591 598 524 711 l 594 598 l 594 694 l 705 694 l 705 56 m 594 314 l 594 416 q 538 558 594 499 q 399 617 482 617 q 237 542 296 617 q 179 332 179 467 q 235 147 179 216 q 383 77 291 77 q 535 144 477 77 q 594 314 594 210 z "},"h":{"ha":786,"x_min":113,"x_max":689,"o":"m 689 0 l 578 0 l 578 400 q 416 617 578 617 q 279 554 335 617 q 224 393 224 492 l 224 0 l 113 0 l 113 1028 l 224 1028 l 224 579 l 227 579 q 454 711 307 711 q 689 428 689 711 l 689 0 z "},"i":{"ha":336,"x_min":98,"x_max":243,"o":"m 170 871 q 119 891 140 871 q 98 943 98 911 q 119 995 98 974 q 170 1015 140 1015 q 221 995 200 1015 q 243 943 243 974 q 221 892 243 913 q 170 871 200 871 m 224 0 l 113 0 l 113 694 l 224 694 l 224 0 z "},"j":{"ha":336,"x_min":-134,"x_max":243,"o":"m 224 29 q 155 -234 224 -142 q -42 -327 86 -327 q -134 -305 -90 -327 l -134 -201 q -39 -232 -84 -232 q 113 11 113 -232 l 113 694 l 224 694 l 224 29 m 170 871 q 119 891 140 871 q 98 943 98 911 q 119 995 98 974 q 170 1015 140 1015 q 221 995 200 1015 q 243 943 243 974 q 221 892 243 913 q 170 871 200 871 z "},"k":{"ha":690,"x_min":113,"x_max":689,"o":"m 689 0 l 533 0 l 227 334 l 224 334 l 224 0 l 113 0 l 113 1028 l 224 1028 l 224 376 l 227 376 l 518 694 l 664 694 l 342 359 l 689 0 z "},"l":{"ha":336,"x_min":113,"x_max":224,"o":"m 224 0 l 113 0 l 113 1028 l 224 1028 l 224 0 z "},"m":{"ha":1196,"x_min":113,"x_max":1099,"o":"m 1099 0 l 987 0 l 987 399 q 952 566 987 514 q 832 617 916 617 q 711 552 761 617 q 661 396 661 487 l 661 0 l 550 0 l 550 412 q 392 617 550 617 q 271 556 319 617 q 224 396 224 494 l 224 0 l 113 0 l 113 694 l 224 694 l 224 585 l 227 585 q 442 711 300 711 q 566 671 513 711 q 639 567 619 631 q 869 711 716 711 q 1099 428 1099 711 l 1099 0 z "},"n":{"ha":786,"x_min":113,"x_max":689,"o":"m 689 0 l 578 0 l 578 396 q 416 617 578 617 q 278 554 333 617 q 224 396 224 492 l 224 0 l 113 0 l 113 694 l 224 694 l 224 579 l 227 579 q 454 711 305 711 q 629 637 568 711 q 689 425 689 564 l 689 0 z "},"o":{"ha":814,"x_min":65,"x_max":749,"o":"m 403 -16 q 157 81 249 -16 q 65 339 65 178 q 161 612 65 514 q 419 711 256 711 q 662 615 574 711 q 749 350 749 519 q 655 84 749 184 q 403 -16 561 -16 m 411 617 q 241 544 304 617 q 179 343 179 471 q 242 149 179 220 q 411 77 305 77 q 577 147 519 77 q 635 346 635 217 q 577 547 635 476 q 411 617 519 617 z "},"p":{"ha":817,"x_min":113,"x_max":751,"o":"m 227 100 l 224 100 l 224 -319 l 113 -319 l 113 694 l 224 694 l 224 572 l 227 572 q 467 711 309 711 q 676 617 601 711 q 751 368 751 524 q 667 89 751 193 q 435 -16 582 -16 q 227 100 300 -16 m 224 380 l 224 283 q 280 137 224 197 q 422 77 336 77 q 580 155 523 77 q 637 370 637 232 q 584 551 637 486 q 439 617 530 617 q 283 550 342 617 q 224 380 224 482 z "},"q":{"ha":818,"x_min":65,"x_max":705,"o":"m 705 -319 l 594 -319 l 594 119 l 591 119 q 354 -16 519 -16 q 144 77 223 -16 q 65 331 65 170 q 152 607 65 504 q 385 711 239 711 q 591 598 528 711 l 594 598 l 594 694 l 705 694 l 705 -319 m 594 313 l 594 414 q 538 558 594 499 q 396 617 482 617 q 237 543 296 617 q 179 334 179 469 q 235 145 179 214 q 380 77 292 77 q 536 144 478 77 q 594 313 594 211 z "},"r":{"ha":483,"x_min":113,"x_max":475,"o":"m 475 582 q 391 604 446 604 q 272 537 319 604 q 224 354 224 470 l 224 0 l 113 0 l 113 694 l 224 694 l 224 551 l 227 551 q 299 666 250 625 q 408 707 348 707 q 475 697 452 707 l 475 582 z "},"s":{"ha":589,"x_min":71,"x_max":531,"o":"m 71 25 l 71 144 q 271 77 161 77 q 417 175 417 77 q 405 222 417 203 q 371 256 392 241 q 320 283 349 271 q 258 308 292 295 q 177 345 212 326 q 119 387 142 363 q 84 440 96 410 q 72 510 72 470 q 94 596 72 559 q 154 660 117 634 q 239 698 191 685 q 338 711 287 711 q 499 680 428 711 l 499 567 q 323 617 422 617 q 267 610 292 617 q 223 590 241 603 q 196 559 205 577 q 186 519 186 541 q 196 474 186 492 q 224 441 205 456 q 271 416 243 427 q 332 391 298 404 q 415 354 378 373 q 477 312 452 336 q 517 258 503 289 q 531 186 531 228 q 508 96 531 134 q 448 33 486 58 q 360 -4 410 8 q 256 -16 311 -16 q 71 25 149 -16 z "},"t":{"ha":471,"x_min":29,"x_max":435,"o":"m 435 7 q 331 -15 395 -15 q 149 189 149 -15 l 149 600 l 29 600 l 29 694 l 149 694 l 149 864 l 260 900 l 260 694 l 435 694 l 435 600 l 260 600 l 260 208 q 283 109 260 138 q 362 79 307 79 q 435 102 404 79 l 435 7 z "},"u":{"ha":786,"x_min":98,"x_max":674,"o":"m 674 0 l 563 0 l 563 110 l 560 110 q 346 -16 491 -16 q 98 279 98 -16 l 98 694 l 208 694 l 208 297 q 376 77 208 77 q 510 137 458 77 q 563 294 563 197 l 563 694 l 674 694 l 674 0 z "},"v":{"ha":665,"x_min":9,"x_max":659,"o":"m 659 694 l 382 0 l 273 0 l 9 694 l 132 694 l 308 190 q 332 93 328 134 l 335 93 q 357 187 342 145 l 541 694 l 659 694 z "},"w":{"ha":1004,"x_min":16,"x_max":987,"o":"m 987 694 l 779 0 l 664 0 l 521 497 q 510 562 513 526 l 507 562 q 493 498 505 537 l 338 0 l 227 0 l 16 694 l 133 694 l 277 172 q 286 110 283 149 l 292 110 q 304 174 294 140 l 464 694 l 566 694 l 709 171 q 720 109 716 146 l 725 109 q 736 171 726 135 l 878 694 l 987 694 z "},"x":{"ha":637,"x_min":18,"x_max":620,"o":"m 620 694 l 387 343 l 616 0 l 486 0 l 350 225 q 319 278 337 246 l 317 278 q 285 225 313 272 l 146 0 l 18 0 l 254 340 l 28 694 l 157 694 l 292 457 q 321 403 307 431 l 323 403 l 497 694 l 620 694 z "},"y":{"ha":672,"x_min":9,"x_max":665,"o":"m 665 694 l 346 -111 q 106 -327 260 -327 q 33 -318 62 -327 l 33 -218 q 99 -231 69 -231 q 225 -130 183 -231 l 281 1 l 9 694 l 133 694 l 321 160 q 335 107 324 150 l 339 107 q 353 159 342 123 l 550 694 l 665 694 z "},"z":{"ha":628,"x_min":22,"x_max":597,"o":"m 597 663 l 186 95 l 593 95 l 593 0 l 22 0 l 22 35 l 433 600 l 61 600 l 61 694 l 597 694 l 597 663 z "},"{":{"ha":419,"x_min":62,"x_max":376,"o":"m 376 -221 q 168 -11 168 -218 l 168 193 q 62 336 168 330 l 62 415 q 168 562 168 422 l 168 760 q 376 972 168 970 l 376 886 q 269 751 269 883 l 269 553 q 167 378 269 410 l 167 375 q 269 201 269 345 l 269 5 q 293 -102 269 -70 q 376 -136 317 -134 l 376 -221 z "},"|":{"ha":332,"x_min":117,"x_max":217,"o":"m 217 -327 l 117 -327 l 117 1062 l 217 1062 l 217 -327 z "},"}":{"ha":419,"x_min":45,"x_max":358,"o":"m 358 336 q 252 193 252 330 l 252 -11 q 45 -221 252 -218 l 45 -136 q 129 -102 104 -134 q 153 5 153 -69 l 153 201 q 254 375 153 345 l 254 378 q 153 553 153 410 l 153 751 q 45 886 153 883 l 45 972 q 252 760 252 970 l 252 562 q 358 415 252 422 l 358 336 z "},"~":{"ha":950,"x_min":142,"x_max":810,"o":"m 810 509 q 755 353 805 408 q 620 298 705 298 q 440 372 546 298 q 332 418 374 418 q 233 298 237 418 l 142 298 q 196 452 145 395 q 332 509 246 509 q 492 449 404 509 q 625 388 581 388 q 692 421 667 388 q 718 509 717 454 l 810 509 z "},"Ä":{"ha":896,"x_min":15,"x_max":880,"o":"m 880 0 l 754 0 l 651 273 l 239 273 l 142 0 l 15 0 l 388 972 l 506 972 l 880 0 m 614 375 l 461 789 q 446 854 454 810 l 444 854 q 428 789 437 813 l 277 375 l 614 375 m 570 1061 q 523 1080 543 1061 q 503 1128 503 1099 q 522 1176 503 1157 q 568 1195 541 1195 q 616 1176 597 1195 q 636 1128 636 1156 q 617 1081 636 1101 q 570 1061 598 1061 m 309 1061 q 261 1081 281 1061 q 241 1128 241 1101 q 260 1176 241 1157 q 307 1195 279 1195 q 355 1176 335 1195 q 376 1128 376 1156 q 356 1081 376 1101 q 309 1061 336 1061 z "},"Å":{"ha":896,"x_min":15,"x_max":880,"o":"m 880 0 l 754 0 l 651 273 l 239 273 l 142 0 l 15 0 l 374 935 q 305 1046 305 970 q 346 1143 305 1106 q 449 1181 387 1181 q 547 1144 509 1181 q 585 1050 585 1107 q 519 937 585 974 l 880 0 m 445 1125 q 389 1104 411 1125 q 368 1050 368 1082 q 445 972 368 972 q 500 995 477 972 q 522 1050 522 1017 q 500 1104 522 1083 q 445 1125 477 1125 m 614 375 l 461 789 q 446 854 454 810 l 444 854 q 428 789 437 813 l 277 375 l 614 375 z "},"Ç":{"ha":860,"x_min":64,"x_max":789,"o":"m 789 41 q 521 -16 682 -16 q 189 117 313 -16 q 64 468 64 251 q 204 845 64 701 q 560 989 345 989 q 789 949 699 989 l 789 827 q 559 886 685 886 q 287 774 391 886 q 183 475 183 662 q 280 192 183 297 q 536 86 378 86 q 789 151 682 86 l 789 41 m 651 -174 q 465 -293 651 -293 q 420 -292 439 -293 l 420 -231 q 468 -235 450 -235 q 564 -174 564 -235 q 476 -121 564 -121 q 448 -123 469 -121 l 448 0 l 522 0 l 522 -71 q 616 -98 581 -71 q 651 -174 651 -125 z "},"É":{"ha":703,"x_min":127,"x_max":643,"o":"m 643 0 l 127 0 l 127 972 l 621 972 l 621 869 l 241 869 l 241 546 l 593 546 l 593 444 l 241 444 l 241 103 l 643 103 l 643 0 m 545 1284 l 367 1061 l 281 1061 l 432 1284 l 545 1284 z "},"Ñ":{"ha":1039,"x_min":127,"x_max":911,"o":"m 911 0 l 772 0 l 271 775 q 240 836 252 804 l 236 836 q 241 703 241 805 l 241 0 l 127 0 l 127 972 l 275 972 l 762 210 q 802 144 793 162 l 804 144 q 798 288 798 186 l 798 972 l 911 972 l 911 0 m 755 1223 q 722 1106 755 1152 q 634 1061 690 1061 q 524 1097 586 1061 q 444 1126 472 1126 q 384 1049 384 1126 l 320 1049 q 353 1165 320 1122 q 444 1209 385 1209 q 545 1174 488 1209 q 631 1144 595 1144 q 688 1223 688 1144 l 755 1223 z "},"Ö":{"ha":1047,"x_min":64,"x_max":983,"o":"m 519 -16 q 188 120 313 -16 q 64 475 64 256 q 191 849 64 709 q 536 989 317 989 q 860 853 737 989 q 983 498 983 718 q 857 122 983 260 q 519 -16 731 -16 m 528 886 q 279 775 374 886 q 183 485 183 665 q 276 196 183 305 q 519 86 370 86 q 772 191 680 86 q 864 483 864 295 q 774 781 864 675 q 528 886 685 886 m 656 1060 q 610 1079 629 1060 q 590 1127 590 1098 q 609 1175 590 1156 q 655 1194 628 1194 q 703 1174 684 1194 q 723 1127 723 1155 q 704 1080 723 1099 q 656 1060 685 1060 m 396 1060 q 348 1080 368 1060 q 328 1127 328 1100 q 347 1175 328 1156 q 394 1194 366 1194 q 442 1174 422 1194 q 463 1127 463 1155 q 443 1080 463 1099 q 396 1060 423 1060 z "},"Ü":{"ha":954,"x_min":115,"x_max":839,"o":"m 839 393 q 469 -16 839 -16 q 115 378 115 -16 l 115 972 l 229 972 l 229 385 q 481 86 229 86 q 725 375 725 86 l 725 972 l 839 972 l 839 393 m 607 1063 q 560 1082 580 1063 q 541 1130 541 1101 q 559 1177 541 1158 q 606 1196 578 1196 q 654 1177 634 1196 q 673 1130 673 1158 q 654 1082 673 1102 q 607 1063 635 1063 m 347 1063 q 298 1083 318 1063 q 278 1130 278 1103 q 297 1177 278 1158 q 345 1196 317 1196 q 393 1177 372 1196 q 413 1130 413 1158 q 393 1082 413 1102 q 347 1063 374 1063 z "},"á":{"ha":707,"x_min":61,"x_max":610,"o":"m 610 0 l 498 0 l 498 109 l 496 109 q 282 -16 423 -16 q 120 39 178 -16 q 61 184 61 94 q 290 411 61 379 l 498 440 q 355 617 498 617 q 129 532 230 617 l 129 646 q 365 711 231 711 q 610 452 610 711 l 610 0 m 498 351 l 331 328 q 214 290 254 317 q 175 193 175 262 q 211 110 175 142 q 308 77 248 77 q 445 135 391 77 q 498 282 498 193 l 498 351 m 513 1048 l 336 826 l 250 826 l 401 1048 l 513 1048 z "},"à":{"ha":707,"x_min":61,"x_max":610,"o":"m 610 0 l 498 0 l 498 109 l 496 109 q 282 -16 423 -16 q 120 39 178 -16 q 61 184 61 94 q 290 411 61 379 l 498 440 q 355 617 498 617 q 129 532 230 617 l 129 646 q 365 711 231 711 q 610 452 610 711 l 610 0 m 498 351 l 331 328 q 214 290 254 317 q 175 193 175 262 q 211 110 175 142 q 308 77 248 77 q 445 135 391 77 q 498 282 498 193 l 498 351 m 457 826 l 371 826 l 193 1048 l 307 1048 l 457 826 z "},"â":{"ha":707,"x_min":61,"x_max":610,"o":"m 610 0 l 498 0 l 498 109 l 496 109 q 282 -16 423 -16 q 120 39 178 -16 q 61 184 61 94 q 290 411 61 379 l 498 440 q 355 617 498 617 q 129 532 230 617 l 129 646 q 365 711 231 711 q 610 452 610 711 l 610 0 m 498 351 l 331 328 q 214 290 254 317 q 175 193 175 262 q 211 110 175 142 q 308 77 248 77 q 445 135 391 77 q 498 282 498 193 l 498 351 m 547 826 l 464 826 l 353 982 l 241 826 l 164 826 l 310 1051 l 400 1051 l 547 826 z "},"ä":{"ha":707,"x_min":61,"x_max":610,"o":"m 610 0 l 498 0 l 498 109 l 496 109 q 282 -16 423 -16 q 120 39 178 -16 q 61 184 61 94 q 290 411 61 379 l 498 440 q 355 617 498 617 q 129 532 230 617 l 129 646 q 365 711 231 711 q 610 452 610 711 l 610 0 m 498 351 l 331 328 q 214 290 254 317 q 175 193 175 262 q 211 110 175 142 q 308 77 248 77 q 445 135 391 77 q 498 282 498 193 l 498 351 m 480 826 q 433 845 453 826 q 414 893 414 864 q 433 941 414 922 q 479 960 452 960 q 527 940 507 960 q 547 893 547 921 q 528 846 547 865 q 480 826 509 826 m 220 826 q 171 846 191 826 q 151 893 151 866 q 171 941 151 922 q 218 960 190 960 q 266 940 245 960 q 286 893 286 921 q 267 846 286 865 q 220 826 247 826 z "},"ã":{"ha":707,"x_min":61,"x_max":610,"o":"m 610 0 l 498 0 l 498 109 l 496 109 q 282 -16 423 -16 q 120 39 178 -16 q 61 184 61 94 q 290 411 61 379 l 498 440 q 355 617 498 617 q 129 532 230 617 l 129 646 q 365 711 231 711 q 610 452 610 711 l 610 0 m 498 351 l 331 328 q 214 290 254 317 q 175 193 175 262 q 211 110 175 142 q 308 77 248 77 q 445 135 391 77 q 498 282 498 193 l 498 351 m 572 989 q 540 872 572 918 q 452 827 507 827 q 342 863 404 827 q 261 892 290 892 q 201 815 201 892 l 138 815 q 170 931 138 888 q 261 975 203 975 q 362 940 305 975 q 449 910 412 910 q 506 989 506 910 l 572 989 z "},"å":{"ha":707,"x_min":61,"x_max":610,"o":"m 610 0 l 498 0 l 498 109 l 496 109 q 282 -16 423 -16 q 120 39 178 -16 q 61 184 61 94 q 290 411 61 379 l 498 440 q 355 617 498 617 q 129 532 230 617 l 129 646 q 365 711 231 711 q 610 452 610 711 l 610 0 m 498 351 l 331 328 q 214 290 254 317 q 175 193 175 262 q 211 110 175 142 q 308 77 248 77 q 445 135 391 77 q 498 282 498 193 l 498 351 m 351 798 q 253 833 292 798 q 214 926 214 869 q 254 1024 214 987 q 355 1061 294 1061 q 454 1024 416 1061 q 493 930 493 987 q 452 836 493 873 q 351 798 410 798 m 351 1006 q 296 984 318 1006 q 275 929 275 962 q 351 853 275 853 q 407 875 385 853 q 429 929 429 897 q 407 984 429 962 q 351 1006 385 1006 z "},"ç":{"ha":642,"x_min":65,"x_max":587,"o":"m 586 32 q 396 -16 506 -16 q 156 80 248 -16 q 65 331 65 177 q 163 607 65 503 q 426 711 262 711 q 587 677 517 711 l 587 563 q 422 617 510 617 q 247 541 315 617 q 179 340 179 465 q 243 148 179 218 q 415 77 307 77 q 586 138 506 77 l 586 32 m 528 -174 q 341 -293 528 -293 q 297 -292 315 -293 l 297 -231 q 345 -235 326 -235 q 440 -174 440 -235 q 353 -121 440 -121 q 325 -123 346 -121 l 325 0 l 398 0 l 398 -71 q 493 -98 458 -71 q 528 -174 528 -125 z "},"é":{"ha":726,"x_min":65,"x_max":671,"o":"m 671 319 l 180 319 q 243 140 183 203 q 407 77 302 77 q 623 155 524 77 l 623 50 q 380 -16 531 -16 q 149 78 233 -16 q 65 345 65 173 q 157 609 65 507 q 385 711 249 711 q 596 623 522 711 q 671 378 671 534 l 671 319 m 557 414 q 510 564 556 510 q 383 617 465 617 q 250 561 304 617 q 182 414 195 505 l 557 414 m 539 1048 l 361 826 l 275 826 l 427 1048 l 539 1048 z "},"è":{"ha":726,"x_min":65,"x_max":671,"o":"m 671 319 l 180 319 q 243 140 183 203 q 407 77 302 77 q 623 155 524 77 l 623 50 q 380 -16 531 -16 q 149 78 233 -16 q 65 345 65 173 q 157 609 65 507 q 385 711 249 711 q 596 623 522 711 q 671 378 671 534 l 671 319 m 557 414 q 510 564 556 510 q 383 617 465 617 q 250 561 304 617 q 182 414 195 505 l 557 414 m 492 826 l 406 826 l 228 1048 l 342 1048 l 492 826 z "},"ê":{"ha":726,"x_min":65,"x_max":671,"o":"m 671 319 l 180 319 q 243 140 183 203 q 407 77 302 77 q 623 155 524 77 l 623 50 q 380 -16 531 -16 q 149 78 233 -16 q 65 345 65 173 q 157 609 65 507 q 385 711 249 711 q 596 623 522 711 q 671 378 671 534 l 671 319 m 557 414 q 510 564 556 510 q 383 617 465 617 q 250 561 304 617 q 182 414 195 505 l 557 414 m 570 826 l 487 826 l 376 982 l 264 826 l 187 826 l 333 1051 l 423 1051 l 570 826 z "},"ë":{"ha":726,"x_min":65,"x_max":671,"o":"m 671 319 l 180 319 q 243 140 183 203 q 407 77 302 77 q 623 155 524 77 l 623 50 q 380 -16 531 -16 q 149 78 233 -16 q 65 345 65 173 q 157 609 65 507 q 385 711 249 711 q 596 623 522 711 q 671 378 671 534 l 671 319 m 557 414 q 510 564 556 510 q 383 617 465 617 q 250 561 304 617 q 182 414 195 505 l 557 414 m 506 826 q 459 845 479 826 q 439 893 439 864 q 458 941 439 922 q 505 960 477 960 q 553 940 533 960 q 572 893 572 921 q 553 846 572 865 q 506 826 534 826 m 245 826 q 197 846 217 826 q 177 893 177 866 q 196 941 177 922 q 243 960 216 960 q 292 940 271 960 q 312 893 312 921 q 292 846 312 865 q 245 826 273 826 z "},"í":{"ha":336,"x_min":60,"x_max":323,"o":"m 224 0 l 113 0 l 113 694 l 224 694 l 224 0 m 323 1048 l 146 826 l 60 826 l 211 1048 l 323 1048 z "},"ì":{"ha":336,"x_min":-14,"x_max":250,"o":"m 224 0 l 113 0 l 113 694 l 224 694 l 224 0 m 250 826 l 164 826 l -14 1048 l 100 1048 l 250 826 z "},"î":{"ha":336,"x_min":-31,"x_max":352,"o":"m 224 0 l 113 0 l 113 694 l 224 694 l 224 0 m 352 826 l 269 826 l 158 982 l 46 826 l -31 826 l 115 1051 l 205 1051 l 352 826 z "},"ï":{"ha":336,"x_min":-37,"x_max":358,"o":"m 224 0 l 113 0 l 113 694 l 224 694 l 224 0 m 292 826 q 245 845 264 826 q 225 893 225 864 q 244 941 225 922 q 290 960 263 960 q 338 940 319 960 q 358 893 358 921 q 339 846 358 865 q 292 826 320 826 m 31 826 q -17 846 3 826 q -37 893 -37 866 q -18 941 -37 922 q 29 960 1 960 q 77 940 57 960 q 98 893 98 921 q 78 846 98 865 q 31 826 58 826 z "},"ñ":{"ha":786,"x_min":113,"x_max":689,"o":"m 689 0 l 578 0 l 578 396 q 416 617 578 617 q 278 554 333 617 q 224 396 224 492 l 224 0 l 113 0 l 113 694 l 224 694 l 224 579 l 227 579 q 454 711 305 711 q 629 637 568 711 q 689 425 689 564 l 689 0 m 616 989 q 583 872 616 918 q 495 827 551 827 q 385 863 447 827 q 304 892 333 892 q 245 815 245 892 l 181 815 q 214 931 181 888 q 304 975 246 975 q 406 940 349 975 q 492 910 456 910 q 549 989 549 910 l 616 989 z "},"ó":{"ha":814,"x_min":65,"x_max":749,"o":"m 403 -16 q 157 81 249 -16 q 65 339 65 178 q 161 612 65 514 q 419 711 256 711 q 662 615 574 711 q 749 350 749 519 q 655 84 749 184 q 403 -16 561 -16 m 411 617 q 241 544 304 617 q 179 343 179 471 q 242 149 179 220 q 411 77 305 77 q 577 147 519 77 q 635 346 635 217 q 577 547 635 476 q 411 617 519 617 m 574 1048 l 396 826 l 310 826 l 461 1048 l 574 1048 z "},"ò":{"ha":814,"x_min":65,"x_max":749,"o":"m 403 -16 q 157 81 249 -16 q 65 339 65 178 q 161 612 65 514 q 419 711 256 711 q 662 615 574 711 q 749 350 749 519 q 655 84 749 184 q 403 -16 561 -16 m 411 617 q 241 544 304 617 q 179 343 179 471 q 242 149 179 220 q 411 77 305 77 q 577 147 519 77 q 635 346 635 217 q 577 547 635 476 q 411 617 519 617 m 507 826 l 420 826 l 243 1048 l 357 1048 l 507 826 z "},"ô":{"ha":814,"x_min":65,"x_max":749,"o":"m 403 -16 q 157 81 249 -16 q 65 339 65 178 q 161 612 65 514 q 419 711 256 711 q 662 615 574 711 q 749 350 749 519 q 655 84 749 184 q 403 -16 561 -16 m 411 617 q 241 544 304 617 q 179 343 179 471 q 242 149 179 220 q 411 77 305 77 q 577 147 519 77 q 635 346 635 217 q 577 547 635 476 q 411 617 519 617 m 600 826 l 517 826 l 406 982 l 294 826 l 218 826 l 363 1051 l 454 1051 l 600 826 z "},"ö":{"ha":814,"x_min":65,"x_max":749,"o":"m 403 -16 q 157 81 249 -16 q 65 339 65 178 q 161 612 65 514 q 419 711 256 711 q 662 615 574 711 q 749 350 749 519 q 655 84 749 184 q 403 -16 561 -16 m 411 617 q 241 544 304 617 q 179 343 179 471 q 242 149 179 220 q 411 77 305 77 q 577 147 519 77 q 635 346 635 217 q 577 547 635 476 q 411 617 519 617 m 538 826 q 491 845 511 826 q 471 893 471 864 q 490 941 471 922 q 536 960 509 960 q 585 940 565 960 q 604 893 604 921 q 585 846 604 865 q 538 826 566 826 m 277 826 q 229 846 249 826 q 209 893 209 866 q 228 941 209 922 q 275 960 248 960 q 323 940 303 960 q 344 893 344 921 q 324 846 344 865 q 277 826 304 826 z "},"õ":{"ha":814,"x_min":65,"x_max":749,"o":"m 403 -16 q 157 81 249 -16 q 65 339 65 178 q 161 612 65 514 q 419 711 256 711 q 662 615 574 711 q 749 350 749 519 q 655 84 749 184 q 403 -16 561 -16 m 411 617 q 241 544 304 617 q 179 343 179 471 q 242 149 179 220 q 411 77 305 77 q 577 147 519 77 q 635 346 635 217 q 577 547 635 476 q 411 617 519 617 m 631 989 q 599 872 631 918 q 511 827 566 827 q 401 863 463 827 q 320 892 349 892 q 260 815 260 892 l 197 815 q 229 931 197 888 q 320 975 262 975 q 421 940 364 975 q 508 910 471 910 q 565 989 565 910 l 631 989 z "},"ú":{"ha":786,"x_min":98,"x_max":674,"o":"m 674 0 l 563 0 l 563 110 l 560 110 q 346 -16 491 -16 q 98 279 98 -16 l 98 694 l 208 694 l 208 297 q 376 77 208 77 q 510 137 458 77 q 563 294 563 197 l 563 694 l 674 694 l 674 0 m 570 1048 l 392 826 l 306 826 l 457 1048 l 570 1048 z "},"ù":{"ha":786,"x_min":98,"x_max":674,"o":"m 674 0 l 563 0 l 563 110 l 560 110 q 346 -16 491 -16 q 98 279 98 -16 l 98 694 l 208 694 l 208 297 q 376 77 208 77 q 510 137 458 77 q 563 294 563 197 l 563 694 l 674 694 l 674 0 m 478 826 l 392 826 l 214 1048 l 328 1048 l 478 826 z "},"û":{"ha":786,"x_min":98,"x_max":674,"o":"m 674 0 l 563 0 l 563 110 l 560 110 q 346 -16 491 -16 q 98 279 98 -16 l 98 694 l 208 694 l 208 297 q 376 77 208 77 q 510 137 458 77 q 563 294 563 197 l 563 694 l 674 694 l 674 0 m 579 826 l 496 826 l 385 982 l 273 826 l 197 826 l 342 1051 l 433 1051 l 579 826 z "},"ü":{"ha":786,"x_min":98,"x_max":674,"o":"m 674 0 l 563 0 l 563 110 l 560 110 q 346 -16 491 -16 q 98 279 98 -16 l 98 694 l 208 694 l 208 297 q 376 77 208 77 q 510 137 458 77 q 563 294 563 197 l 563 694 l 674 694 l 674 0 m 522 826 q 475 845 495 826 q 456 893 456 864 q 475 941 456 922 q 521 960 494 960 q 569 940 549 960 q 589 893 589 921 q 570 846 589 865 q 522 826 551 826 m 262 826 q 213 846 233 826 q 193 893 193 866 q 213 941 193 922 q 260 960 232 960 q 308 940 288 960 q 328 893 328 921 q 309 846 328 865 q 262 826 289 826 z "},"†":{"ha":521,"x_min":33,"x_max":494,"o":"m 494 606 l 316 626 l 289 155 l 237 155 l 210 626 l 33 606 l 33 707 l 237 694 l 210 972 l 316 972 l 289 694 l 494 707 l 494 606 z "},"°":{"ha":524,"x_min":73,"x_max":449,"o":"m 261 608 q 128 664 183 608 q 73 798 73 719 q 127 929 73 876 q 260 983 182 983 q 394 929 338 983 q 449 798 449 875 q 394 664 449 719 q 261 608 339 608 m 261 904 q 186 873 217 904 q 155 798 155 842 q 185 720 155 752 q 260 688 216 688 q 336 720 304 688 q 368 798 368 753 q 336 873 368 842 q 261 904 305 904 z "},"¢":{"ha":749,"x_min":125,"x_max":646,"o":"m 646 142 q 496 95 581 102 l 496 -33 l 411 -33 l 411 96 q 202 205 280 111 q 125 440 125 300 q 202 689 125 589 q 411 814 280 789 l 411 958 l 496 958 l 496 821 q 646 786 579 819 l 646 669 q 496 722 577 718 l 496 190 q 646 248 578 198 l 646 142 m 411 197 l 411 713 q 284 623 330 692 q 239 452 239 553 q 285 283 239 350 q 411 197 331 216 z "},"£":{"ha":749,"x_min":72,"x_max":682,"o":"m 682 0 l 72 0 l 72 92 q 220 304 220 138 l 220 431 l 86 431 l 86 526 l 220 526 l 220 699 q 294 907 220 826 q 485 989 368 989 q 629 961 564 989 l 629 856 q 486 895 562 895 q 331 686 331 895 l 331 526 l 532 526 l 532 431 l 331 431 l 331 325 q 200 95 331 161 l 682 95 l 682 0 z "},"§":{"ha":623,"x_min":89,"x_max":547,"o":"m 446 282 q 507 156 507 232 q 439 11 507 66 q 267 -45 372 -45 q 104 -7 178 -45 l 104 100 q 274 50 193 50 q 362 77 331 50 q 393 144 393 104 q 369 205 393 180 q 247 282 345 230 q 89 497 89 365 q 189 663 89 608 q 117 814 117 719 q 180 956 117 900 q 347 1011 243 1011 q 496 982 435 1011 l 496 875 q 345 917 427 917 q 231 819 231 917 q 258 751 231 782 q 396 668 286 721 q 547 469 547 595 q 446 282 547 354 m 270 614 q 201 506 201 579 q 240 420 201 457 q 374 340 278 383 q 433 457 433 387 q 398 540 433 506 q 270 614 362 574 z "},"•":{"ha":564,"x_min":111,"x_max":453,"o":"m 283 277 q 162 326 213 277 q 111 446 111 376 q 162 567 111 516 q 283 618 213 618 q 404 568 354 618 q 453 446 453 517 q 404 326 453 376 q 283 277 354 277 z "},"¶":{"ha":636,"x_min":57,"x_max":566,"o":"m 566 903 l 479 903 l 479 0 l 407 0 l 407 903 l 300 903 l 300 0 l 227 0 l 227 612 q 105 664 153 612 q 57 793 57 715 q 107 923 57 873 q 231 972 158 972 l 566 972 l 566 903 z "},"ß":{"ha":755,"x_min":113,"x_max":708,"o":"m 313 1 l 313 110 q 428 77 363 77 q 548 127 502 77 q 594 261 594 177 q 526 426 594 363 q 338 503 458 490 l 338 591 q 469 661 418 605 q 521 795 521 718 q 484 908 521 868 q 380 949 446 949 q 224 739 224 949 l 224 0 l 113 0 l 113 755 q 187 964 113 886 q 388 1043 262 1043 q 568 979 500 1043 q 635 808 635 914 q 584 654 635 722 q 452 559 533 585 l 452 555 q 708 267 708 505 q 633 65 708 146 q 433 -16 557 -16 q 313 1 365 -16 z "},"­":{"ha":555,"x_min":98,"x_max":468,"o":"m 468 343 l 98 343 l 98 431 l 468 431 l 468 343 z "},"®":{"ha":1236,"x_min":110,"x_max":1126,"o":"m 618 -22 q 259 126 408 -22 q 110 486 110 275 q 259 846 110 697 q 618 995 408 995 q 978 846 829 995 q 1126 486 1126 697 q 978 126 1126 275 q 618 -22 829 -22 m 618 935 q 301 804 433 935 q 170 486 170 672 q 301 169 170 300 q 618 38 433 38 q 936 169 804 38 q 1067 486 1067 300 q 936 804 1067 672 q 618 935 804 935 m 865 168 l 755 168 l 685 323 q 570 440 631 440 l 510 440 l 510 168 l 420 168 l 420 815 l 602 815 q 776 768 715 815 q 838 639 838 720 q 794 526 838 572 q 674 463 751 479 l 674 460 q 781 340 728 448 l 865 168 m 510 738 l 510 517 l 607 517 q 741 628 741 517 q 705 713 741 688 q 591 738 669 738 l 510 738 z "},"©":{"ha":1236,"x_min":110,"x_max":1126,"o":"m 618 -22 q 259 126 408 -22 q 110 486 110 275 q 259 846 110 697 q 618 995 408 995 q 978 846 829 995 q 1126 486 1126 697 q 978 126 1126 275 q 618 -22 829 -22 m 618 935 q 301 804 433 935 q 170 486 170 672 q 301 169 170 300 q 618 38 433 38 q 936 169 804 38 q 1067 486 1067 300 q 936 804 1067 672 q 618 935 804 935 m 823 180 q 640 134 745 134 q 403 230 498 134 q 307 469 307 326 q 405 736 307 637 q 660 836 503 836 q 820 800 749 836 l 820 699 q 648 747 755 747 q 473 675 542 747 q 404 481 404 603 q 474 291 404 363 q 653 220 545 220 q 823 273 752 220 l 823 180 z "},"™":{"ha":1074,"x_min":52,"x_max":947,"o":"m 947 524 l 873 524 l 873 848 l 871 848 l 722 524 l 682 524 l 537 848 l 534 848 l 534 524 l 465 524 l 465 972 l 551 972 l 704 636 l 707 636 l 861 972 l 947 972 l 947 524 m 408 906 l 267 906 l 267 524 l 191 524 l 191 906 l 52 906 l 52 972 l 408 972 l 408 906 z "},"´":{"ha":392,"x_min":92,"x_max":355,"o":"m 355 1048 l 178 826 l 92 826 l 243 1048 l 355 1048 z "},"¨":{"ha":575,"x_min":85,"x_max":480,"o":"m 414 826 q 367 845 387 826 q 347 893 347 864 q 366 941 347 922 q 412 960 385 960 q 460 940 441 960 q 480 893 480 921 q 461 846 480 865 q 414 826 442 826 m 153 826 q 105 846 125 826 q 85 893 85 866 q 104 941 85 922 q 151 960 123 960 q 199 940 179 960 q 220 893 220 921 q 200 846 220 865 q 153 826 180 826 z "},"Æ":{"ha":1195,"x_min":7,"x_max":1131,"o":"m 1131 0 l 616 0 l 616 273 l 270 273 l 139 0 l 7 0 l 481 972 l 1108 972 l 1108 869 l 729 869 l 729 546 l 1081 546 l 1081 444 l 729 444 l 729 103 l 1131 103 l 1131 0 m 616 375 l 616 869 l 551 869 l 317 375 l 616 375 z "},"Ø":{"ha":1047,"x_min":64,"x_max":983,"o":"m 220 89 l 117 -35 l 64 9 l 171 139 q 64 475 64 271 q 190 848 64 707 q 536 989 317 989 q 808 901 694 989 l 900 1011 l 953 968 l 859 856 q 983 498 983 720 q 857 122 983 260 q 519 -16 731 -16 q 220 89 339 -16 m 739 817 q 528 886 654 886 q 278 774 374 886 q 183 485 183 663 q 250 232 183 334 l 739 817 m 785 766 l 293 179 q 519 86 382 86 q 772 191 680 86 q 864 483 864 296 q 785 766 864 659 z "},"±":{"ha":950,"x_min":157,"x_max":795,"o":"m 795 442 l 521 442 l 521 168 l 432 168 l 432 442 l 157 442 l 157 532 l 432 532 l 432 806 l 521 806 l 521 532 l 795 532 l 795 442 m 795 0 l 157 0 l 157 90 l 795 90 l 795 0 z "},"¥":{"ha":749,"x_min":46,"x_max":707,"o":"m 707 972 l 465 528 l 659 528 l 659 433 l 432 433 l 432 293 l 659 293 l 659 199 l 432 199 l 432 0 l 321 0 l 321 199 l 87 199 l 87 293 l 321 293 l 321 433 l 87 433 l 87 528 l 285 528 l 46 972 l 176 972 l 346 624 q 378 549 365 585 l 380 549 q 414 628 389 577 l 585 972 l 707 972 z "},"µ":{"ha":802,"x_min":113,"x_max":711,"o":"m 711 0 l 595 0 q 580 114 580 49 l 576 114 q 387 -16 519 -16 q 226 68 274 -16 l 223 68 l 223 -269 l 113 -269 l 113 694 l 223 694 l 223 270 q 270 133 223 184 q 392 82 317 82 q 525 140 474 82 q 576 297 576 199 l 576 694 l 689 694 l 689 180 q 711 0 689 52 z "},"ª":{"ha":545,"x_min":56,"x_max":467,"o":"m 467 486 l 379 486 l 379 554 l 376 554 q 220 473 323 473 q 101 514 146 473 q 56 617 56 554 q 224 777 56 754 l 379 798 q 277 911 379 911 q 104 853 184 911 l 104 940 q 285 987 180 987 q 418 939 370 987 q 467 802 467 890 l 467 486 m 379 729 l 257 712 q 143 621 143 696 q 169 565 143 587 q 239 543 195 543 q 337 585 294 543 q 379 684 379 626 l 379 729 z "},"º":{"ha":598,"x_min":53,"x_max":545,"o":"m 296 472 q 118 540 182 472 q 53 725 53 608 q 122 917 53 848 q 307 986 192 986 q 481 919 417 986 q 545 735 545 851 q 477 543 545 614 q 296 472 410 472 m 301 911 q 187 863 229 911 q 144 728 144 814 q 185 596 144 644 q 300 549 225 549 q 413 597 371 549 q 454 729 454 646 q 413 863 454 814 q 301 911 372 911 z "},"æ":{"ha":1156,"x_min":61,"x_max":1100,"o":"m 1100 319 l 608 319 q 670 140 610 203 q 833 77 730 77 q 1051 155 954 77 l 1051 50 q 808 -16 962 -16 q 549 139 625 -16 l 546 139 q 283 -16 448 -16 q 120 38 180 -16 q 61 184 61 93 q 321 404 61 388 l 498 415 q 353 617 498 617 q 129 534 234 617 l 129 646 q 365 711 229 711 q 568 575 522 711 l 571 575 q 812 711 650 711 q 1025 622 949 711 q 1100 376 1100 534 l 1100 319 m 986 414 q 940 564 985 511 q 814 617 895 617 q 679 562 735 617 q 610 414 623 506 l 986 414 m 498 278 l 498 321 l 361 313 q 220 279 267 307 q 174 187 174 252 q 210 107 174 138 q 307 77 245 77 q 443 135 387 77 q 498 278 498 192 z "},"ø":{"ha":814,"x_min":33,"x_max":796,"o":"m 796 711 l 682 589 q 749 354 749 495 q 654 83 749 183 q 403 -16 560 -16 q 187 53 273 -16 l 89 -56 l 33 -3 l 134 109 q 65 339 65 201 q 161 612 65 514 q 420 711 258 711 q 629 644 545 711 l 739 764 l 796 711 m 557 567 q 411 617 503 617 q 241 544 303 617 q 179 343 179 471 q 213 191 179 254 l 557 567 m 604 503 l 260 129 q 410 77 319 77 q 578 148 520 77 q 636 347 636 218 q 604 503 636 438 z "},"¿":{"ha":623,"x_min":97,"x_max":562,"o":"m 424 427 q 435 381 430 410 q 439 326 439 353 q 422 247 439 282 q 379 182 405 212 q 323 123 353 151 q 267 66 292 95 q 223 6 241 37 q 206 -64 206 -26 q 219 -121 206 -96 q 253 -163 231 -146 q 303 -189 275 -180 q 363 -197 332 -197 q 562 -107 478 -197 l 562 -227 q 347 -292 458 -292 q 250 -278 296 -292 q 171 -238 205 -264 q 117 -171 137 -211 q 97 -78 97 -131 q 115 12 97 -28 q 159 84 132 51 q 217 145 186 117 q 275 202 248 174 q 319 260 302 230 q 337 328 337 291 q 330 384 337 359 q 315 427 322 410 l 424 427 m 363 709 q 416 688 393 709 q 438 635 438 667 q 416 582 438 604 q 363 559 393 559 q 310 582 332 559 q 288 635 288 604 q 310 688 288 667 q 363 709 333 709 z "}," ":{"ha":380,"x_min":0,"x_max":0,"o":""},"¡":{"ha":395,"x_min":122,"x_max":273,"o":"m 197 560 q 144 582 166 560 q 122 635 122 604 q 144 688 122 666 q 197 709 166 709 q 250 688 228 709 q 273 635 273 666 q 250 582 273 604 q 197 560 228 560 m 257 -275 l 140 -275 l 153 423 l 244 423 l 257 -275 z "},"¬":{"ha":950,"x_min":157,"x_max":795,"o":"m 795 172 l 705 172 l 705 464 l 157 464 l 157 554 l 795 554 l 795 172 z "},"ƒ":{"ha":749,"x_min":64,"x_max":646,"o":"m 646 859 q 572 878 613 878 q 457 769 473 878 l 436 628 l 549 628 l 549 534 l 422 534 l 361 95 q 125 -189 321 -189 q 64 -178 104 -189 l 64 -81 q 122 -95 88 -95 q 251 103 224 -95 l 313 534 l 243 534 l 243 628 l 327 628 l 346 777 q 417 919 357 865 q 567 972 476 972 q 646 960 610 972 l 646 859 z "},"«":{"ha":703,"x_min":62,"x_max":643,"o":"m 642 136 l 528 136 l 325 363 l 528 597 l 643 597 l 435 363 l 642 136 m 378 136 l 265 136 l 62 363 l 265 597 l 378 597 l 172 363 l 378 136 z "},"»":{"ha":703,"x_min":61,"x_max":643,"o":"m 643 365 l 439 136 l 327 136 l 532 365 l 327 597 l 439 597 l 643 365 m 379 365 l 176 136 l 61 136 l 270 365 l 61 597 l 176 597 l 379 365 z "},"…":{"ha":1018,"x_min":95,"x_max":924,"o":"m 849 -12 q 797 9 818 -12 q 775 62 775 31 q 797 116 775 94 q 849 139 818 139 q 902 116 880 139 q 924 62 924 94 q 902 9 924 31 q 849 -12 880 -12 m 509 -12 q 455 9 477 -12 q 433 62 433 31 q 455 116 433 94 q 509 139 477 139 q 561 116 539 139 q 583 62 583 94 q 561 9 583 31 q 509 -12 539 -12 m 168 -12 q 116 9 137 -12 q 95 62 95 31 q 116 116 95 94 q 168 139 137 139 q 221 116 199 139 q 243 62 243 94 q 221 9 243 31 q 168 -12 199 -12 z "},"À":{"ha":896,"x_min":15,"x_max":880,"o":"m 880 0 l 754 0 l 651 273 l 239 273 l 142 0 l 15 0 l 388 972 l 506 972 l 880 0 m 614 375 l 461 789 q 446 854 454 810 l 444 854 q 428 789 437 813 l 277 375 l 614 375 m 514 1062 l 428 1062 l 250 1284 l 364 1284 l 514 1062 z "},"Ã":{"ha":896,"x_min":15,"x_max":880,"o":"m 880 0 l 754 0 l 651 273 l 239 273 l 142 0 l 15 0 l 388 972 l 506 972 l 880 0 m 614 375 l 461 789 q 446 854 454 810 l 444 854 q 428 789 437 813 l 277 375 l 614 375 m 663 1223 q 630 1106 663 1152 q 542 1061 597 1061 q 432 1097 494 1061 q 351 1126 380 1126 q 292 1049 292 1126 l 228 1049 q 260 1165 228 1122 q 351 1209 293 1209 q 452 1174 395 1209 q 539 1144 503 1144 q 596 1223 596 1144 l 663 1223 z "},"Õ":{"ha":1047,"x_min":64,"x_max":983,"o":"m 519 -16 q 188 120 313 -16 q 64 475 64 256 q 191 849 64 709 q 536 989 317 989 q 860 853 737 989 q 983 498 983 718 q 857 122 983 260 q 519 -16 731 -16 m 528 886 q 279 775 374 886 q 183 485 183 665 q 276 196 183 305 q 519 86 370 86 q 772 191 680 86 q 864 483 864 295 q 774 781 864 675 q 528 886 685 886 m 748 1222 q 715 1106 748 1151 q 627 1061 683 1061 q 517 1096 579 1061 q 437 1125 465 1125 q 377 1048 377 1125 l 313 1048 q 346 1165 313 1121 q 437 1208 378 1208 q 538 1173 481 1208 q 625 1143 588 1143 q 682 1222 682 1143 l 748 1222 z "},"Œ":{"ha":1293,"x_min":64,"x_max":1227,"o":"m 1227 0 l 739 0 q 646 -9 728 0 q 522 -16 579 -16 q 187 120 311 -16 q 64 475 64 256 q 192 849 64 709 q 541 989 321 989 q 662 982 602 989 q 739 972 738 972 l 1206 972 l 1206 869 l 826 869 l 826 546 l 1177 546 l 1177 444 l 826 444 l 826 103 l 1227 103 l 1227 0 m 712 109 l 712 867 q 530 886 604 886 q 279 773 375 886 q 183 485 183 661 q 278 198 183 310 q 526 86 372 86 q 712 109 605 86 z "},"œ":{"ha":1289,"x_min":65,"x_max":1238,"o":"m 1238 319 l 746 319 q 808 140 748 203 q 972 77 868 77 q 1189 155 1091 77 l 1189 50 q 947 -16 1097 -16 q 688 144 764 -16 l 685 144 q 403 -16 596 -16 q 156 81 248 -16 q 65 338 65 178 q 161 612 65 513 q 420 711 258 711 q 693 551 620 711 l 696 551 q 957 711 777 711 q 1164 622 1090 711 q 1238 379 1238 532 l 1238 319 m 1124 414 q 1077 564 1122 510 q 953 617 1031 617 q 815 559 871 617 q 747 414 758 501 l 1124 414 m 411 617 q 241 544 304 617 q 179 340 179 470 q 241 148 179 218 q 410 77 304 77 q 576 147 517 77 q 635 345 635 216 q 576 547 635 476 q 411 617 517 617 z "},"–":{"ha":694,"x_min":0,"x_max":694,"o":"m 694 343 l 0 343 l 0 431 l 694 431 l 694 343 z "},"—":{"ha":1389,"x_min":0,"x_max":1389,"o":"m 1389 343 l 0 343 l 0 431 l 1389 431 l 1389 343 z "},"“":{"ha":524,"x_min":72,"x_max":453,"o":"m 453 989 l 378 686 l 278 686 l 374 989 l 453 989 m 247 989 l 174 686 l 72 686 l 167 989 l 247 989 z "},"”":{"ha":524,"x_min":75,"x_max":456,"o":"m 456 989 l 361 686 l 281 686 l 354 989 l 456 989 m 250 989 l 155 686 l 75 686 l 150 989 l 250 989 z "},"‘":{"ha":318,"x_min":72,"x_max":247,"o":"m 247 989 l 174 686 l 72 686 l 167 989 l 247 989 z "},"’":{"ha":318,"x_min":75,"x_max":250,"o":"m 250 989 l 155 686 l 75 686 l 150 989 l 250 989 z "},"÷":{"ha":950,"x_min":157,"x_max":795,"o":"m 480 589 q 430 609 450 589 q 410 660 410 630 q 429 712 410 690 q 480 734 449 734 q 550 661 550 734 q 529 609 550 629 q 480 589 509 589 m 795 359 l 157 359 l 157 450 l 795 450 l 795 359 m 477 76 q 427 96 448 76 q 406 146 406 117 q 426 199 406 176 q 477 221 446 221 q 546 147 546 221 q 526 96 546 117 q 477 76 507 76 z "},"ÿ":{"ha":672,"x_min":9,"x_max":665,"o":"m 665 694 l 346 -111 q 106 -327 260 -327 q 33 -318 62 -327 l 33 -218 q 99 -231 69 -231 q 225 -130 183 -231 l 281 1 l 9 694 l 133 694 l 321 160 q 335 107 324 150 l 339 107 q 353 159 342 123 l 550 694 l 665 694 m 467 826 q 420 845 440 826 q 401 893 401 864 q 420 941 401 922 q 466 960 439 960 q 514 940 494 960 q 534 893 534 921 q 515 846 534 865 q 467 826 496 826 m 207 826 q 158 846 178 826 q 138 893 138 866 q 158 941 138 922 q 205 960 177 960 q 253 940 233 960 q 273 893 273 921 q 254 846 273 865 q 207 826 234 826 z "},"Ÿ":{"ha":768,"x_min":12,"x_max":760,"o":"m 760 972 l 439 359 l 439 0 l 325 0 l 325 357 l 12 972 l 142 972 l 359 533 q 383 473 363 525 l 385 473 q 411 533 392 496 l 639 972 l 760 972 m 515 1061 q 468 1080 488 1061 q 448 1128 448 1099 q 467 1176 448 1157 q 513 1195 486 1195 q 562 1176 542 1195 q 581 1128 581 1156 q 562 1081 581 1101 q 515 1061 543 1061 m 254 1061 q 206 1081 226 1061 q 186 1128 186 1101 q 205 1176 186 1157 q 252 1195 224 1195 q 300 1176 280 1195 q 321 1128 321 1156 q 301 1081 321 1101 q 254 1061 281 1061 z "},"€":{"ha":749,"x_min":69,"x_max":688,"o":"m 688 34 q 496 -16 597 -16 q 151 327 207 -16 l 69 327 l 69 422 l 142 422 q 140 474 140 443 q 144 547 140 507 l 69 547 l 69 642 l 158 642 q 289 897 193 805 q 522 989 385 989 q 688 951 614 989 l 688 841 q 514 894 610 894 q 363 826 429 894 q 271 642 297 758 l 608 642 l 608 547 l 256 547 q 255 422 250 480 l 608 422 l 608 327 l 266 327 q 503 79 315 79 q 688 138 592 79 l 688 34 z "},"‹":{"ha":439,"x_min":62,"x_max":379,"o":"m 378 136 l 265 136 l 62 363 l 265 597 l 379 597 l 172 363 l 378 136 z "},"›":{"ha":439,"x_min":62,"x_max":379,"o":"m 379 365 l 175 136 l 62 136 l 269 365 l 62 597 l 175 597 l 379 365 z "},"‡":{"ha":521,"x_min":33,"x_max":494,"o":"m 494 352 l 289 366 l 316 155 l 210 155 l 237 366 l 33 352 l 33 454 l 210 433 l 250 564 l 210 694 l 33 673 l 33 775 l 237 762 l 210 972 l 316 972 l 289 762 l 494 775 l 494 673 l 316 694 l 277 564 l 316 433 l 494 454 l 494 352 z "},"·":{"ha":301,"x_min":76,"x_max":228,"o":"m 151 346 q 98 368 120 346 q 76 422 76 391 q 98 476 76 454 q 151 498 120 498 q 205 476 183 498 q 228 422 228 454 q 205 368 228 391 q 151 346 183 346 z "},"‚":{"ha":318,"x_min":60,"x_max":235,"o":"m 235 147 l 139 -155 l 60 -155 l 134 147 l 235 147 z "},"„":{"ha":524,"x_min":60,"x_max":440,"o":"m 440 147 l 346 -155 l 265 -155 l 339 147 l 440 147 m 235 147 l 139 -155 l 60 -155 l 134 147 l 235 147 z "},"‰":{"ha":1681,"x_min":54,"x_max":1626,"o":"m 274 485 q 114 551 174 485 q 54 728 54 617 q 117 918 54 848 q 288 987 180 987 q 449 923 391 987 q 506 742 506 859 q 442 555 506 625 q 274 485 378 485 m 283 913 q 182 865 219 913 q 144 734 144 817 q 181 606 144 652 q 281 560 218 560 q 380 608 345 560 q 416 739 416 655 q 381 867 416 821 q 283 913 345 913 m 926 972 l 301 -7 l 204 -7 l 829 972 l 926 972 m 1394 -15 q 1234 52 1294 -15 q 1175 228 1175 118 q 1239 418 1175 348 q 1408 489 1303 489 q 1569 424 1512 489 q 1626 241 1626 359 q 1563 55 1626 125 q 1394 -15 1499 -15 m 1404 412 q 1302 365 1339 412 q 1265 233 1265 317 q 1302 106 1265 152 q 1401 61 1338 61 q 1501 109 1466 61 q 1537 240 1537 157 q 1501 367 1537 322 q 1404 412 1466 412 m 853 -15 q 693 52 753 -15 q 633 228 633 118 q 697 419 633 349 q 867 489 761 489 q 1027 424 970 489 q 1085 241 1085 359 q 1021 55 1085 125 q 853 -15 957 -15 m 863 412 q 761 365 798 412 q 724 233 724 317 q 760 107 724 153 q 860 61 797 61 q 960 109 924 61 q 996 240 996 157 q 960 368 996 323 q 863 412 924 412 z "},"Â":{"ha":896,"x_min":15,"x_max":880,"o":"m 880 0 l 754 0 l 651 273 l 239 273 l 142 0 l 15 0 l 388 972 l 506 972 l 880 0 m 614 375 l 461 789 q 446 854 454 810 l 444 854 q 428 789 437 813 l 277 375 l 614 375 m 629 1061 l 546 1061 l 435 1217 l 323 1061 l 246 1061 l 392 1286 l 482 1286 l 629 1061 z "},"Ê":{"ha":703,"x_min":127,"x_max":643,"o":"m 643 0 l 127 0 l 127 972 l 621 972 l 621 869 l 241 869 l 241 546 l 593 546 l 593 444 l 241 444 l 241 103 l 643 103 l 643 0 m 561 1063 l 478 1063 l 367 1219 l 255 1063 l 178 1063 l 324 1288 l 414 1288 l 561 1063 z "},"Á":{"ha":896,"x_min":15,"x_max":880,"o":"m 880 0 l 754 0 l 651 273 l 239 273 l 142 0 l 15 0 l 388 972 l 506 972 l 880 0 m 614 375 l 461 789 q 446 854 454 810 l 444 854 q 428 789 437 813 l 277 375 l 614 375 m 588 1284 l 410 1062 l 324 1062 l 475 1284 l 588 1284 z "},"Ë":{"ha":703,"x_min":127,"x_max":643,"o":"m 643 0 l 127 0 l 127 972 l 621 972 l 621 869 l 241 869 l 241 546 l 593 546 l 593 444 l 241 444 l 241 103 l 643 103 l 643 0 m 508 1062 q 461 1081 481 1062 q 441 1129 441 1100 q 460 1177 441 1158 q 507 1196 479 1196 q 555 1176 535 1196 q 574 1129 574 1157 q 555 1082 574 1101 q 508 1062 536 1062 m 248 1062 q 199 1082 219 1062 q 179 1129 179 1102 q 198 1177 179 1158 q 245 1196 218 1196 q 294 1176 273 1196 q 314 1129 314 1157 q 294 1082 314 1101 q 248 1062 275 1062 z "},"È":{"ha":703,"x_min":127,"x_max":643,"o":"m 643 0 l 127 0 l 127 972 l 621 972 l 621 869 l 241 869 l 241 546 l 593 546 l 593 444 l 241 444 l 241 103 l 643 103 l 643 0 m 477 1062 l 391 1062 l 213 1284 l 327 1284 l 477 1062 z "},"Í":{"ha":370,"x_min":81,"x_max":345,"o":"m 241 0 l 127 0 l 127 972 l 241 972 l 241 0 m 345 1284 l 168 1062 l 81 1062 l 233 1284 l 345 1284 z "},"Î":{"ha":370,"x_min":-3,"x_max":380,"o":"m 241 0 l 127 0 l 127 972 l 241 972 l 241 0 m 380 1063 l 297 1063 l 186 1219 l 74 1063 l -3 1063 l 143 1288 l 233 1288 l 380 1063 z "},"Ï":{"ha":370,"x_min":-10,"x_max":385,"o":"m 241 0 l 127 0 l 127 972 l 241 972 l 241 0 m 319 1062 q 272 1081 292 1062 q 252 1129 252 1100 q 271 1177 252 1158 q 317 1196 290 1196 q 366 1176 346 1196 q 385 1129 385 1157 q 366 1082 385 1101 q 319 1062 347 1062 m 58 1062 q 10 1082 30 1062 q -10 1129 -10 1102 q 9 1177 -10 1158 q 56 1196 28 1196 q 104 1176 84 1196 q 125 1129 125 1157 q 105 1082 125 1101 q 58 1062 85 1062 z "},"Ì":{"ha":370,"x_min":18,"x_max":282,"o":"m 241 0 l 127 0 l 127 972 l 241 972 l 241 0 m 282 1062 l 196 1062 l 18 1284 l 132 1284 l 282 1062 z "},"Ó":{"ha":1047,"x_min":64,"x_max":983,"o":"m 519 -16 q 188 120 313 -16 q 64 475 64 256 q 191 849 64 709 q 536 989 317 989 q 860 853 737 989 q 983 498 983 718 q 857 122 983 260 q 519 -16 731 -16 m 528 886 q 279 775 374 886 q 183 485 183 665 q 276 196 183 305 q 519 86 370 86 q 772 191 680 86 q 864 483 864 295 q 774 781 864 675 q 528 886 685 886 m 697 1284 l 519 1062 l 433 1062 l 585 1284 l 697 1284 z "},"Ô":{"ha":1047,"x_min":64,"x_max":983,"o":"m 519 -16 q 188 120 313 -16 q 64 475 64 256 q 191 849 64 709 q 536 989 317 989 q 860 853 737 989 q 983 498 983 718 q 857 122 983 260 q 519 -16 731 -16 m 528 886 q 279 775 374 886 q 183 485 183 665 q 276 196 183 305 q 519 86 370 86 q 772 191 680 86 q 864 483 864 295 q 774 781 864 675 q 528 886 685 886 m 721 1062 l 638 1062 l 527 1218 l 415 1062 l 338 1062 l 484 1287 l 574 1287 l 721 1062 z "},"Ò":{"ha":1047,"x_min":64,"x_max":983,"o":"m 519 -16 q 188 120 313 -16 q 64 475 64 256 q 191 849 64 709 q 536 989 317 989 q 860 853 737 989 q 983 498 983 718 q 857 122 983 260 q 519 -16 731 -16 m 528 886 q 279 775 374 886 q 183 485 183 665 q 276 196 183 305 q 519 86 370 86 q 772 191 680 86 q 864 483 864 295 q 774 781 864 675 q 528 886 685 886 m 597 1062 l 511 1062 l 333 1284 l 447 1284 l 597 1062 z "},"Ú":{"ha":954,"x_min":115,"x_max":839,"o":"m 839 393 q 469 -16 839 -16 q 115 378 115 -16 l 115 972 l 229 972 l 229 385 q 481 86 229 86 q 725 375 725 86 l 725 972 l 839 972 l 839 393 m 651 1284 l 473 1061 l 387 1061 l 538 1284 l 651 1284 z "},"Û":{"ha":954,"x_min":115,"x_max":839,"o":"m 839 393 q 469 -16 839 -16 q 115 378 115 -16 l 115 972 l 229 972 l 229 385 q 481 86 229 86 q 725 375 725 86 l 725 972 l 839 972 l 839 393 m 669 1063 l 587 1063 l 475 1219 l 363 1063 l 287 1063 l 433 1288 l 523 1288 l 669 1063 z "},"Ù":{"ha":954,"x_min":115,"x_max":839,"o":"m 839 393 q 469 -16 839 -16 q 115 378 115 -16 l 115 972 l 229 972 l 229 385 q 481 86 229 86 q 725 375 725 86 l 725 972 l 839 972 l 839 393 m 563 1062 l 477 1062 l 299 1284 l 413 1284 l 563 1062 z "},"ı":{"ha":336,"x_min":113,"x_max":224,"o":"m 224 0 l 113 0 l 113 694 l 224 694 l 224 0 z "},"ˆ":{"ha":515,"x_min":62,"x_max":445,"o":"m 445 826 l 362 826 l 251 982 l 139 826 l 62 826 l 208 1051 l 298 1051 l 445 826 z "},"˜":{"ha":468,"x_min":24,"x_max":458,"o":"m 458 989 q 426 872 458 918 q 338 827 393 827 q 228 863 290 827 q 147 892 176 892 q 87 815 87 892 l 24 815 q 56 931 24 888 q 147 975 89 975 q 248 940 191 975 q 335 910 298 910 q 392 989 392 910 l 458 989 z "},"˚":{"ha":389,"x_min":56,"x_max":335,"o":"m 193 798 q 95 833 134 798 q 56 926 56 869 q 96 1024 56 987 q 197 1061 136 1061 q 296 1024 258 1061 q 335 930 335 987 q 294 836 335 873 q 193 798 252 798 m 193 1006 q 138 984 160 1006 q 117 929 117 962 q 193 853 117 853 q 249 875 227 853 q 271 929 271 897 q 249 984 271 962 q 193 1006 227 1006 z "},"¸":{"ha":285,"x_min":35,"x_max":265,"o":"m 265 -174 q 79 -293 265 -293 q 35 -292 53 -293 l 35 -231 q 82 -235 64 -235 q 178 -174 178 -235 q 90 -121 178 -121 q 62 -123 83 -121 l 62 0 l 136 0 l 136 -71 q 230 -98 195 -71 q 265 -174 265 -125 z "},"ˇ":{"ha":515,"x_min":69,"x_max":450,"o":"m 450 1050 l 305 826 l 216 826 l 69 1050 l 147 1050 l 258 895 l 370 1050 l 450 1050 z "},"Š":{"ha":738,"x_min":82,"x_max":671,"o":"m 82 39 l 82 174 q 137 137 105 153 q 205 110 170 121 q 277 92 241 98 q 343 86 313 86 q 500 125 448 86 q 552 237 552 164 q 535 306 552 277 q 487 359 517 335 q 415 405 456 383 q 325 452 373 427 q 230 504 274 477 q 153 562 186 530 q 102 634 121 594 q 83 729 83 675 q 113 845 83 795 q 189 926 142 894 q 297 973 237 958 q 421 989 358 989 q 631 954 565 989 l 631 826 q 410 886 545 886 q 335 878 372 886 q 269 852 298 870 q 221 807 239 835 q 203 739 203 779 q 217 675 203 702 q 258 625 231 648 q 324 582 285 603 q 414 536 363 561 q 513 481 466 510 q 595 418 559 453 q 651 342 630 384 q 671 245 671 300 q 643 124 671 174 q 567 43 615 74 q 457 -2 519 12 q 326 -16 395 -16 q 269 -13 302 -16 q 199 -2 235 -9 q 133 16 164 5 q 82 39 101 26 m 560 1287 l 415 1063 l 326 1063 l 179 1287 l 257 1287 l 368 1132 l 479 1287 l 560 1287 z "},"š":{"ha":589,"x_min":71,"x_max":531,"o":"m 71 25 l 71 144 q 271 77 161 77 q 417 175 417 77 q 405 222 417 203 q 371 256 392 241 q 320 283 349 271 q 258 308 292 295 q 177 345 212 326 q 119 387 142 363 q 84 440 96 410 q 72 510 72 470 q 94 596 72 559 q 154 660 117 634 q 239 698 191 685 q 338 711 287 711 q 499 680 428 711 l 499 567 q 323 617 422 617 q 267 610 292 617 q 223 590 241 603 q 196 559 205 577 q 186 519 186 541 q 196 474 186 492 q 224 441 205 456 q 271 416 243 427 q 332 391 298 404 q 415 354 378 373 q 477 312 452 336 q 517 258 503 289 q 531 186 531 228 q 508 96 531 134 q 448 33 486 58 q 360 -4 410 8 q 256 -16 311 -16 q 71 25 149 -16 m 463 1050 l 317 826 l 228 826 l 81 1050 l 159 1050 l 271 895 l 382 1050 l 463 1050 z "},"Ž":{"ha":792,"x_min":22,"x_max":762,"o":"m 762 945 l 193 103 l 749 103 l 749 0 l 22 0 l 22 32 l 587 869 l 68 869 l 68 972 l 762 972 l 762 945 m 610 1285 l 465 1061 l 376 1061 l 229 1285 l 307 1285 l 418 1130 l 530 1285 l 610 1285 z "},"ž":{"ha":628,"x_min":22,"x_max":597,"o":"m 597 663 l 186 95 l 593 95 l 593 0 l 22 0 l 22 35 l 433 600 l 61 600 l 61 694 l 597 694 l 597 663 m 530 1050 l 385 826 l 296 826 l 149 1050 l 227 1050 l 338 895 l 450 1050 l 530 1050 z "},"¦":{"ha":332,"x_min":117,"x_max":217,"o":"m 217 485 l 117 485 l 117 1062 l 217 1062 l 217 485 m 217 -327 l 117 -327 l 117 251 l 217 251 l 217 -327 z "},"Ð":{"ha":974,"x_min":19,"x_max":910,"o":"m 127 0 l 127 435 l 19 435 l 19 540 l 127 540 l 127 972 l 396 972 q 910 498 910 972 q 767 136 910 272 q 385 0 625 0 l 127 0 m 241 869 l 241 540 l 469 540 l 469 435 l 241 435 l 241 103 l 387 103 q 684 205 578 103 q 791 496 791 308 q 393 869 791 869 l 241 869 z "},"ð":{"ha":777,"x_min":65,"x_max":711,"o":"m 533 656 l 536 659 q 401 839 475 768 l 199 736 l 164 803 l 347 892 q 168 1028 267 963 l 318 1028 q 435 936 369 993 l 631 1034 l 668 970 l 489 882 q 711 357 711 673 q 623 90 711 194 q 385 -15 536 -15 q 150 80 235 -15 q 65 339 65 175 q 153 607 65 504 q 391 709 241 709 q 533 656 474 709 m 395 617 q 237 544 294 617 q 179 343 179 470 q 235 149 179 220 q 392 77 292 77 q 542 151 486 77 q 597 346 597 224 q 395 617 597 617 z "},"Ý":{"ha":768,"x_min":12,"x_max":760,"o":"m 760 972 l 439 359 l 439 0 l 325 0 l 325 357 l 12 972 l 142 972 l 359 533 q 383 473 363 525 l 385 473 q 411 533 392 496 l 639 972 l 760 972 m 564 1284 l 386 1062 l 300 1062 l 451 1284 l 564 1284 z "},"ý":{"ha":672,"x_min":9,"x_max":665,"o":"m 665 694 l 346 -111 q 106 -327 260 -327 q 33 -318 62 -327 l 33 -218 q 99 -231 69 -231 q 225 -130 183 -231 l 281 1 l 9 694 l 133 694 l 321 160 q 335 107 324 150 l 339 107 q 353 159 342 123 l 550 694 l 665 694 m 517 1048 l 339 826 l 253 826 l 404 1048 l 517 1048 z "},"Þ":{"ha":778,"x_min":127,"x_max":722,"o":"m 241 216 l 241 0 l 127 0 l 127 972 l 241 972 l 241 819 l 395 819 q 637 744 552 819 q 722 529 722 668 q 626 303 722 391 q 368 216 530 216 l 241 216 m 241 717 l 241 318 l 361 318 q 541 371 478 318 q 603 522 603 424 q 375 717 603 717 l 241 717 z "},"þ":{"ha":817,"x_min":113,"x_max":751,"o":"m 227 100 l 224 100 l 224 -319 l 113 -319 l 113 1028 l 224 1028 l 224 572 l 227 572 q 467 711 309 711 q 676 617 601 711 q 751 368 751 524 q 667 89 751 193 q 435 -16 582 -16 q 227 100 300 -16 m 224 380 l 224 283 q 280 137 224 197 q 422 77 336 77 q 580 155 523 77 q 637 370 637 232 q 584 551 637 486 q 439 617 530 617 q 283 550 342 617 q 224 380 224 482 z "},"×":{"ha":950,"x_min":182,"x_max":769,"o":"m 769 175 l 705 111 l 475 342 l 245 111 l 182 175 l 412 404 l 182 635 l 245 699 l 475 468 l 705 699 l 769 635 l 538 404 l 769 175 z "},"½":{"ha":1293,"x_min":85,"x_max":1185,"o":"m 304 396 l 218 396 l 218 878 q 195 860 210 870 q 163 841 181 850 q 124 823 144 831 q 85 810 104 814 l 85 892 q 131 908 106 898 q 178 931 155 918 q 222 957 201 943 q 258 985 243 971 l 304 985 l 304 396 m 945 972 l 363 0 l 265 0 l 848 972 l 945 972 m 1080 422 q 1075 453 1080 438 q 1058 480 1069 469 q 1029 500 1046 492 q 988 507 1011 507 q 910 489 947 507 q 841 439 873 470 l 841 538 q 911 579 871 567 q 997 591 950 591 q 1066 581 1034 591 q 1122 550 1099 570 q 1160 501 1146 530 q 1174 433 1174 471 q 1167 371 1174 399 q 1143 318 1160 343 q 1101 269 1127 292 q 1036 221 1074 245 q 981 185 1005 201 q 940 154 956 170 q 914 121 923 138 q 905 83 905 104 l 1185 83 l 1185 1 l 810 1 l 810 56 q 823 124 810 94 q 857 179 836 154 q 908 226 879 204 q 972 269 938 248 q 1025 307 1004 289 q 1059 343 1046 326 q 1076 381 1071 361 q 1080 422 1080 400 z "},"¼":{"ha":1259,"x_min":85,"x_max":1157,"o":"m 304 396 l 218 396 l 218 878 q 195 860 210 870 q 163 841 181 850 q 124 823 144 831 q 85 810 104 814 l 85 892 q 131 908 106 898 q 178 931 155 918 q 222 957 201 943 q 258 985 243 971 l 304 985 l 304 396 m 945 972 l 363 0 l 265 0 l 848 972 l 945 972 m 1082 576 l 1082 203 l 1157 203 l 1157 129 l 1082 129 l 1082 0 l 993 0 l 993 129 l 726 129 l 726 199 q 804 290 766 242 q 875 386 842 337 q 937 483 909 434 q 987 576 966 531 l 1082 576 m 993 203 l 993 456 q 943 373 966 410 q 900 307 920 337 q 859 252 879 277 q 818 203 839 227 l 993 203 z "},"¾":{"ha":1322,"x_min":87,"x_max":1201,"o":"m 87 418 l 87 514 q 235 463 157 463 q 320 488 289 463 q 351 557 351 513 q 203 652 351 652 l 146 652 l 146 732 l 200 732 q 334 823 334 732 q 236 904 334 904 q 110 857 172 904 l 110 951 q 254 986 169 986 q 376 946 331 986 q 422 840 422 905 q 323 701 422 738 l 323 699 q 444 562 444 670 q 386 432 444 482 q 232 382 328 382 q 87 418 139 382 m 993 972 l 411 0 l 313 0 l 896 972 l 993 972 m 1126 576 l 1126 203 l 1201 203 l 1201 129 l 1126 129 l 1126 0 l 1037 0 l 1037 129 l 770 129 l 770 199 q 848 290 810 242 q 919 386 886 337 q 981 483 953 434 q 1031 576 1010 531 l 1126 576 m 1037 203 l 1037 456 q 987 373 1010 410 q 944 307 964 337 q 903 252 923 277 q 862 203 883 227 l 1037 203 z "},"¯":{"ha":576,"x_min":0,"x_max":576,"o":"m 576 947 l 0 947 l 0 1028 l 576 1028 l 576 947 z "},"¤":{"ha":772,"x_min":68,"x_max":704,"o":"m 704 240 l 642 175 l 549 269 q 387 217 477 217 q 224 269 294 217 l 130 175 l 68 240 l 161 331 q 110 492 110 408 q 161 652 110 579 l 68 745 l 130 810 l 224 717 q 387 769 298 769 q 547 717 474 769 l 642 810 l 704 745 l 611 652 q 664 492 664 576 q 611 331 664 410 l 704 240 m 387 680 q 254 625 308 680 q 200 493 200 570 q 255 361 200 416 q 387 307 309 307 q 518 361 463 307 q 574 493 574 416 q 517 625 574 570 q 387 680 461 680 z "},"²":{"ha":509,"x_min":71,"x_max":446,"o":"m 341 1021 q 335 1052 341 1037 q 318 1079 330 1067 q 290 1099 307 1091 q 249 1106 272 1106 q 171 1087 208 1106 q 102 1038 134 1069 l 102 1137 q 172 1178 132 1166 q 258 1190 211 1190 q 327 1179 294 1190 q 383 1149 359 1169 q 421 1100 407 1129 q 435 1032 435 1070 q 428 970 435 998 q 404 917 420 942 q 361 868 388 891 q 297 820 335 844 q 241 784 266 800 q 200 752 217 768 q 175 720 184 736 q 166 682 166 703 l 446 682 l 446 600 l 71 600 l 71 655 q 83 723 71 692 q 118 778 96 753 q 169 825 140 803 q 233 867 199 846 q 286 906 265 888 q 319 942 307 924 q 336 980 332 960 q 341 1021 341 999 z "},"³":{"ha":509,"x_min":87,"x_max":444,"o":"m 87 621 l 87 718 q 235 666 157 666 q 320 691 289 666 q 351 760 351 717 q 203 856 351 856 l 146 856 l 146 936 l 200 936 q 334 1027 334 936 q 236 1107 334 1107 q 110 1061 172 1107 l 110 1155 q 254 1190 169 1190 q 376 1149 331 1190 q 422 1044 422 1109 q 323 905 422 941 l 323 902 q 444 765 444 873 q 386 635 444 686 q 232 585 328 585 q 87 621 139 585 z "},"¹":{"ha":488,"x_min":85,"x_max":304,"o":"m 304 600 l 218 600 l 218 1081 q 195 1064 210 1074 q 163 1044 181 1054 q 124 1026 144 1035 q 85 1013 104 1018 l 85 1095 q 131 1112 106 1101 q 178 1134 155 1122 q 222 1161 201 1147 q 258 1188 243 1175 l 304 1188 l 304 600 z "},"ᚠ":{"ha":909,"x_min":127,"x_max":854,"o":"m 241 668 q 343 705 295 678 q 426 770 391 731 q 483 858 462 808 q 503 964 503 907 l 503 972 l 615 972 l 615 962 q 588 823 615 888 q 511 705 560 758 q 393 614 462 652 q 241 555 324 576 l 241 428 q 373 468 310 441 q 492 531 437 494 q 594 615 548 568 q 673 718 640 663 q 724 835 706 772 q 742 964 742 897 l 742 972 l 854 972 l 854 962 q 834 814 854 886 q 778 676 814 742 q 687 553 741 610 q 565 449 633 495 q 416 369 497 402 q 241 318 334 336 l 241 0 l 127 0 l 127 972 l 241 972 l 241 668 z "},"ᚡ":{"ha":909,"x_min":127,"x_max":854,"o":"m 241 668 q 343 705 295 678 q 426 770 391 731 q 483 858 462 808 q 503 964 503 907 l 503 972 l 615 972 l 615 962 q 588 823 615 888 q 511 705 560 758 q 393 614 462 652 q 241 555 324 576 l 241 428 q 373 468 310 441 q 492 531 437 494 q 594 615 548 568 q 673 718 640 663 q 724 835 706 772 q 742 964 742 897 l 742 972 l 854 972 l 854 962 q 834 814 854 886 q 778 676 814 742 q 687 553 741 610 q 565 449 633 495 q 416 369 497 402 q 241 318 334 336 l 241 0 l 127 0 l 127 972 l 241 972 l 241 668 m 363 834 q 315 854 334 834 q 296 903 296 874 q 301 929 296 917 q 315 951 306 942 q 336 967 323 961 q 363 972 349 972 q 390 967 377 972 q 411 951 402 961 q 426 929 420 942 q 431 903 431 917 q 412 854 431 874 q 363 834 392 834 z "},"ᚢ":{"ha":827,"x_min":127,"x_max":707,"o":"m 593 528 q 574 659 593 597 q 517 769 555 722 q 421 845 479 817 q 288 873 364 873 l 241 873 l 241 0 l 127 0 l 127 972 l 291 972 q 464 942 387 972 q 595 853 541 911 q 678 715 649 796 q 707 532 707 633 l 707 0 l 593 0 l 593 528 z "},"ᚣ":{"ha":723,"x_min":127,"x_max":722,"o":"m 241 882 l 235 882 q 240 788 238 837 q 241 694 241 739 l 241 0 l 127 0 l 127 972 l 326 972 l 722 0 l 593 0 l 241 882 m 342 285 l 442 285 l 442 0 l 342 0 l 342 285 z "},"ᚤ":{"ha":827,"x_min":127,"x_max":707,"o":"m 593 528 q 574 659 593 597 q 517 769 555 722 q 421 845 479 817 q 288 873 364 873 l 241 873 l 241 0 l 127 0 l 127 972 l 291 972 q 464 942 387 972 q 595 853 541 911 q 678 715 649 796 q 707 532 707 633 l 707 0 l 593 0 l 593 528 m 416 435 q 368 455 387 435 q 349 504 349 475 q 354 530 349 517 q 368 552 359 543 q 390 567 377 562 q 416 573 402 573 q 443 567 431 573 q 465 552 456 562 q 479 530 474 543 q 485 504 485 517 q 465 455 485 475 q 416 435 446 435 z "},"ᚥ":{"ha":854,"x_min":127,"x_max":734,"o":"m 620 528 q 600 659 620 597 q 541 769 580 722 q 443 845 501 817 q 309 873 385 873 l 241 873 l 241 706 q 348 685 302 702 q 425 631 394 669 q 472 533 456 594 q 488 380 488 472 l 488 0 l 374 0 l 374 376 q 368 476 374 435 q 346 545 361 517 q 306 586 331 572 q 241 605 280 600 l 241 0 l 127 0 l 127 972 l 311 972 q 486 942 408 972 q 619 853 564 911 q 704 715 674 796 q 734 532 734 633 l 734 0 l 620 0 l 620 528 z "},"ᚦ":{"ha":662,"x_min":127,"x_max":606,"o":"m 241 0 l 127 0 l 127 972 l 241 972 l 241 853 q 400 811 332 840 q 514 737 468 781 q 583 635 559 693 q 606 507 606 576 q 583 378 606 436 q 514 276 559 320 q 400 202 468 231 q 241 160 332 173 l 241 0 m 241 262 q 425 348 363 286 q 487 507 487 411 q 425 664 487 602 q 241 751 363 726 l 241 262 z "},"ᚧ":{"ha":662,"x_min":127,"x_max":606,"o":"m 360 437 q 312 457 331 437 q 293 507 293 477 q 298 533 293 520 q 312 555 303 545 q 333 570 321 564 q 360 576 346 576 q 387 570 374 576 q 409 555 399 564 q 423 533 418 545 q 429 507 429 520 q 409 457 429 477 q 360 437 389 437 m 241 0 l 127 0 l 127 972 l 241 972 l 241 853 q 400 811 332 840 q 514 737 468 781 q 583 635 559 693 q 606 507 606 576 q 583 378 606 436 q 514 276 559 320 q 400 202 468 231 q 241 160 332 173 l 241 0 m 241 262 q 425 348 363 286 q 487 507 487 411 q 425 664 487 602 q 241 751 363 726 l 241 262 z "},"ᚨ":{"ha":515,"x_min":127,"x_max":460,"o":"m 241 719 l 460 640 l 460 528 l 241 606 l 241 0 l 127 0 l 127 972 l 241 972 l 460 893 l 460 780 l 241 859 l 241 719 z "},"ᚩ":{"ha":733,"x_min":127,"x_max":677,"o":"m 677 972 l 677 859 l 460 780 l 241 859 l 241 719 l 460 640 l 677 718 l 677 605 l 460 528 l 241 606 l 241 0 l 127 0 l 127 972 l 241 972 l 460 893 l 677 972 z "},"ᚪ":{"ha":733,"x_min":127,"x_max":677,"o":"m 677 972 l 677 859 l 460 780 l 241 859 l 241 719 l 460 640 l 460 528 l 241 606 l 241 0 l 127 0 l 127 972 l 241 972 l 460 893 l 677 972 z "},"ᚫ":{"ha":648,"x_min":127,"x_max":593,"o":"m 241 719 l 593 593 l 593 481 l 241 606 l 241 0 l 127 0 l 127 972 l 241 972 l 593 846 l 593 733 l 241 859 l 241 719 z "},"ᚬ":{"ha":662,"x_min":56,"x_max":606,"o":"m 56 785 l 274 705 l 274 972 l 388 972 l 388 664 l 606 585 l 606 473 l 388 551 l 388 410 l 606 332 l 606 220 l 388 298 l 388 0 l 274 0 l 274 339 l 56 418 l 56 531 l 274 452 l 274 593 l 56 671 l 56 785 z "},"ᚭ":{"ha":515,"x_min":127,"x_max":460,"o":"m 127 972 l 241 972 l 241 664 l 460 585 l 460 473 l 241 551 l 241 410 l 460 332 l 460 220 l 241 298 l 241 0 l 127 0 l 127 972 z "},"ᚮ":{"ha":515,"x_min":56,"x_max":388,"o":"m 388 0 l 274 0 l 274 298 l 56 220 l 56 332 l 274 410 l 274 551 l 56 473 l 56 585 l 274 664 l 274 972 l 388 972 l 388 0 z "},"ᚯ":{"ha":662,"x_min":56,"x_max":606,"o":"m 606 671 l 388 593 l 388 452 l 606 531 l 606 418 l 388 339 l 388 0 l 274 0 l 274 298 l 56 220 l 56 332 l 274 410 l 274 552 l 56 473 l 56 585 l 274 664 l 274 972 l 388 972 l 388 705 l 606 785 l 606 671 z "},"ᚰ":{"ha":662,"x_min":56,"x_max":606,"o":"m 606 671 l 388 593 l 388 0 l 274 0 l 274 298 l 56 220 l 56 332 l 274 410 l 274 552 l 56 473 l 56 585 l 274 664 l 274 972 l 388 972 l 388 705 l 606 785 l 606 671 z "},"ᚱ":{"ha":730,"x_min":127,"x_max":696,"o":"m 248 856 l 241 856 l 241 0 l 127 0 l 127 972 l 241 972 l 656 759 l 656 694 l 437 489 l 696 0 l 559 0 l 323 475 l 323 511 l 528 710 l 248 856 z "},"ᚲ":{"ha":439,"x_min":49,"x_max":379,"o":"m 378 233 l 252 233 l 49 461 l 252 694 l 379 694 l 172 461 l 378 233 z "},"ᚳ":{"ha":559,"x_min":127,"x_max":557,"o":"m 241 491 l 557 0 l 427 0 l 333 154 q 304 203 317 180 q 278 248 290 226 q 256 292 267 271 q 234 337 245 314 l 231 337 q 238 251 235 296 q 241 154 241 205 l 241 0 l 127 0 l 127 972 l 241 972 l 241 491 z "},"ᚴ":{"ha":753,"x_min":127,"x_max":697,"o":"m 241 547 q 372 597 311 564 q 478 682 433 631 q 551 802 524 732 q 578 962 578 871 l 578 972 l 697 972 l 697 964 q 664 778 697 865 q 571 622 631 690 q 427 505 511 553 q 241 437 343 457 l 241 0 l 127 0 l 127 972 l 241 972 l 241 547 z "},"ᚵ":{"ha":753,"x_min":127,"x_max":697,"o":"m 241 547 q 372 597 311 564 q 478 682 433 631 q 551 802 524 732 q 578 962 578 871 l 578 972 l 697 972 l 697 964 q 664 778 697 865 q 571 622 631 690 q 427 505 511 553 q 241 437 343 457 l 241 0 l 127 0 l 127 972 l 241 972 l 241 547 m 391 751 q 343 771 362 751 q 324 821 324 791 q 329 847 324 834 q 343 869 334 859 q 365 884 352 878 q 391 890 377 890 q 418 884 406 890 q 440 869 431 878 q 454 847 449 859 q 460 821 460 834 q 440 771 460 791 q 391 751 420 751 z "},"ᚶ":{"ha":753,"x_min":32,"x_max":697,"o":"m 32 494 q 58 581 32 543 q 127 635 85 618 l 127 972 l 241 972 l 241 635 q 284 609 265 626 q 316 571 303 593 q 420 628 372 593 q 503 711 468 663 q 558 822 538 760 q 578 962 578 884 l 578 972 l 697 972 l 697 964 q 671 799 697 877 q 597 655 645 720 q 483 541 550 590 q 334 463 416 492 q 301 395 326 424 q 241 352 277 366 l 241 0 l 127 0 l 127 352 q 89 374 106 360 q 59 407 71 389 q 39 447 46 425 q 32 494 32 469 z "},"ᚷ":{"ha":670,"x_min":18,"x_max":650,"o":"m 650 0 l 520 0 l 351 349 q 343 370 347 357 q 334 398 340 382 l 332 398 q 326 378 330 391 q 314 349 322 366 l 141 0 l 18 0 l 271 489 l 33 972 l 161 972 l 311 652 q 325 618 318 635 q 338 584 332 602 l 340 584 q 355 624 348 606 q 369 655 362 642 l 523 972 l 646 972 l 402 490 l 650 0 z "},"ᚸ":{"ha":670,"x_min":18,"x_max":650,"o":"m 505 694 l 627 489 l 504 289 l 650 0 l 520 0 l 351 349 q 343 370 347 357 q 334 398 340 382 l 332 398 q 326 378 330 391 q 314 349 322 366 l 141 0 l 18 0 l 169 292 l 49 489 l 170 694 l 33 972 l 161 972 l 311 652 q 325 618 318 635 q 338 584 332 602 l 340 584 q 355 624 348 606 q 369 655 362 642 l 523 972 l 646 972 l 505 694 m 463 370 l 533 489 l 463 610 l 395 490 l 463 370 m 212 373 l 278 489 l 212 609 l 142 489 l 212 373 z "},"ᚹ":{"ha":730,"x_min":127,"x_max":656,"o":"m 127 0 l 127 972 l 241 972 l 656 759 l 656 694 l 241 435 l 241 0 l 127 0 m 248 856 l 241 856 l 241 555 l 248 555 l 514 719 l 248 856 z "},"ᚺ":{"ha":834,"x_min":127,"x_max":707,"o":"m 707 0 l 593 0 l 593 382 l 241 508 l 241 0 l 127 0 l 127 972 l 241 972 l 241 621 l 593 495 l 593 972 l 707 972 l 707 0 z "},"ᚻ":{"ha":834,"x_min":127,"x_max":707,"o":"m 707 0 l 593 0 l 593 255 l 241 381 l 241 0 l 127 0 l 127 972 l 241 972 l 241 748 l 593 622 l 593 972 l 707 972 l 707 0 m 241 494 l 593 368 l 593 509 l 241 635 l 241 494 z "},"ᚼ":{"ha":662,"x_min":56,"x_max":606,"o":"m 56 785 l 207 665 q 245 631 227 649 q 281 597 264 614 q 277 648 278 623 q 275 699 275 673 l 275 972 l 387 972 l 387 699 q 385 648 387 673 q 381 597 384 623 q 416 631 397 614 q 455 665 435 649 l 606 785 l 606 655 l 517 585 q 449 537 482 557 q 387 503 416 517 l 387 500 q 449 466 416 486 q 517 418 482 446 l 606 348 l 606 220 l 455 340 q 416 373 435 355 q 381 407 397 390 q 385 356 384 381 q 387 304 387 330 l 387 0 l 275 0 l 275 304 q 277 356 275 330 q 281 407 278 381 q 245 373 264 390 q 207 340 227 355 l 56 220 l 56 348 l 144 418 q 213 466 180 446 q 275 500 246 486 l 275 503 q 213 537 246 517 q 144 585 180 557 l 56 655 l 56 785 z "},"ᚽ":{"ha":369,"x_min":32,"x_max":337,"o":"m 32 494 q 58 581 32 543 q 127 635 85 618 l 127 972 l 241 972 l 241 635 q 311 581 284 618 q 337 494 337 543 q 330 447 337 469 q 310 407 323 425 q 280 374 298 389 q 241 352 262 360 l 241 0 l 127 0 l 127 352 q 89 374 106 360 q 59 407 71 389 q 39 447 46 425 q 32 494 32 469 z "},"ᚾ":{"ha":662,"x_min":56,"x_max":606,"o":"m 56 658 l 274 578 l 274 972 l 388 972 l 388 537 l 606 458 l 606 347 l 388 425 l 388 0 l 274 0 l 274 466 l 56 545 l 56 658 z "},"ᚿ":{"ha":515,"x_min":127,"x_max":460,"o":"m 127 972 l 241 972 l 241 537 l 460 458 l 460 347 l 241 425 l 241 0 l 127 0 l 127 972 z "},"ᛀ":{"ha":662,"x_min":56,"x_max":606,"o":"m 56 658 l 220 598 q 274 635 243 623 l 274 972 l 388 972 l 388 635 q 455 584 429 619 q 484 503 481 549 l 606 458 l 606 347 l 452 401 q 424 372 440 385 q 388 352 408 359 l 388 0 l 274 0 l 274 352 q 235 374 253 360 q 205 407 218 389 q 185 447 193 425 q 178 494 178 469 l 178 500 l 56 545 l 56 658 z "},"ᛁ":{"ha":369,"x_min":127,"x_max":241,"o":"m 241 0 l 127 0 l 127 972 l 241 972 l 241 0 z "},"ᛂ":{"ha":369,"x_min":32,"x_max":337,"o":"m 32 494 q 58 581 32 543 q 127 635 85 618 l 127 972 l 241 972 l 241 635 q 311 581 284 618 q 337 494 337 543 q 330 447 337 469 q 310 407 323 425 q 280 374 298 389 q 241 352 262 360 l 241 0 l 127 0 l 127 352 q 89 374 106 360 q 59 407 71 389 q 39 447 46 425 q 32 494 32 469 z "},"ᛃ":{"ha":701,"x_min":49,"x_max":652,"o":"m 378 347 l 252 347 l 49 574 l 252 808 l 379 808 l 172 574 l 378 347 m 652 387 l 448 157 l 321 157 l 527 387 l 321 618 l 448 618 l 652 387 z "},"ᛄ":{"ha":507,"x_min":-16,"x_max":523,"o":"m 309 789 l 523 489 l 309 189 l 309 0 l 198 0 l 198 189 l -16 489 l 198 789 l 198 972 l 309 972 l 309 789 m 201 316 l 203 316 q 200 369 201 340 q 198 441 198 397 l 198 541 q 198 579 198 562 q 199 609 199 595 q 200 635 199 623 q 203 660 201 648 l 200 660 l 80 489 l 201 316 m 307 660 l 304 660 q 308 609 307 636 q 309 541 309 583 l 309 441 q 308 369 309 397 q 304 316 307 340 l 307 316 l 427 489 l 307 660 z "},"ᛅ":{"ha":662,"x_min":56,"x_max":606,"o":"m 606 545 l 388 466 l 388 0 l 274 0 l 274 425 l 56 347 l 56 458 l 274 537 l 274 972 l 388 972 l 388 578 l 606 658 l 606 545 z "},"ᛆ":{"ha":515,"x_min":56,"x_max":388,"o":"m 388 0 l 274 0 l 274 425 l 56 347 l 56 458 l 274 537 l 274 972 l 388 972 l 388 0 z "},"ᛇ":{"ha":662,"x_min":56,"x_max":606,"o":"m 274 972 l 368 972 l 606 887 l 606 775 l 388 853 l 388 0 l 292 0 l 56 85 l 56 199 l 274 119 l 274 972 z "},"ᛈ":{"ha":733,"x_min":127,"x_max":677,"o":"m 460 79 l 241 0 l 127 0 l 127 972 l 241 972 l 460 893 l 677 972 l 677 859 l 460 780 l 241 859 l 241 113 l 460 193 l 677 114 l 677 1 l 460 79 z "},"ᛉ":{"ha":749,"x_min":1,"x_max":747,"o":"m 431 0 l 317 0 l 317 481 l 1 972 l 132 972 l 226 819 q 255 769 241 793 q 280 724 269 746 q 302 680 292 702 q 323 635 313 659 l 327 635 q 320 722 323 676 q 317 819 317 768 l 317 972 l 431 972 l 431 819 q 428 722 431 768 q 421 635 425 676 l 424 635 q 446 680 435 659 q 468 724 456 702 q 494 770 480 747 q 523 819 507 793 l 617 972 l 747 972 l 431 481 l 431 0 z "},"ᛊ":{"ha":532,"x_min":33,"x_max":508,"o":"m 327 1 l 33 233 l 33 243 l 303 511 l 35 733 l 35 743 l 326 972 l 486 972 l 192 740 l 445 531 l 445 507 l 190 252 l 508 1 l 327 1 z "},"ᛋ":{"ha":793,"x_min":127,"x_max":666,"o":"m 127 972 l 241 972 l 241 503 l 571 621 l 666 621 l 666 0 l 552 0 l 552 501 l 222 382 l 127 382 l 127 972 z "},"ᛌ":{"ha":369,"x_min":127,"x_max":241,"o":"m 241 486 l 127 486 l 127 972 l 241 972 l 241 486 z "},"ᛍ":{"ha":369,"x_min":32,"x_max":337,"o":"m 32 494 q 58 581 32 543 q 127 635 85 618 l 127 972 l 241 972 l 241 635 q 311 581 284 618 q 337 494 337 543 q 325 434 337 462 q 293 386 313 406 q 244 353 272 365 q 184 341 216 341 q 125 353 153 341 q 76 386 97 365 q 44 434 56 406 q 32 494 32 462 z "},"ᛎ":{"ha":662,"x_min":56,"x_max":606,"o":"m 388 458 l 606 631 l 606 503 l 331 284 l 56 503 l 56 631 l 274 458 l 274 972 l 388 972 l 388 458 z "},"ᛏ":{"ha":662,"x_min":56,"x_max":606,"o":"m 388 0 l 274 0 l 274 819 l 56 647 l 56 775 l 331 994 l 606 775 l 606 647 l 388 819 l 388 0 z "},"ᛐ":{"ha":515,"x_min":56,"x_max":388,"o":"m 388 0 l 274 0 l 274 819 l 56 647 l 56 775 l 304 972 l 388 972 l 388 0 z "},"ᛑ":{"ha":515,"x_min":56,"x_max":484,"o":"m 178 494 q 205 581 178 543 q 274 635 231 618 l 274 819 l 56 647 l 56 775 l 304 972 l 388 972 l 388 635 q 457 581 431 618 q 484 494 484 543 q 476 447 484 469 q 457 407 469 425 q 427 374 444 389 q 388 352 409 360 l 388 0 l 274 0 l 274 352 q 235 374 253 360 q 205 407 218 389 q 185 447 193 425 q 178 494 178 469 z "},"ᛒ":{"ha":730,"x_min":127,"x_max":656,"o":"m 127 0 l 127 972 l 248 972 l 650 759 l 650 694 l 357 509 l 357 506 l 656 312 l 656 248 l 241 0 l 127 0 m 239 869 l 239 540 l 517 719 l 239 869 m 239 467 l 239 106 l 526 279 l 239 467 z "},"ᛓ":{"ha":515,"x_min":127,"x_max":460,"o":"m 460 671 l 241 593 l 241 452 l 460 531 l 460 418 l 241 339 l 241 0 l 127 0 l 127 972 l 241 972 l 241 705 l 460 785 l 460 671 z "},"ᛔ":{"ha":739,"x_min":127,"x_max":669,"o":"m 338 972 q 469 957 410 972 q 570 908 528 941 q 636 828 612 876 q 659 715 659 780 q 645 631 659 669 q 609 565 631 593 q 558 519 587 537 q 499 494 529 501 l 499 488 q 560 469 530 484 q 614 429 590 454 q 653 366 638 404 q 669 279 669 329 q 644 163 669 214 q 574 75 618 111 q 469 19 530 39 q 338 0 409 0 l 127 0 l 127 972 l 338 972 m 345 540 q 489 583 437 540 q 540 713 540 627 q 489 830 540 791 q 338 869 439 869 l 239 869 l 239 540 l 345 540 m 239 433 l 239 103 l 338 103 q 494 149 439 103 q 549 281 549 194 q 535 353 549 324 q 493 400 520 382 q 428 425 466 418 q 345 433 391 433 l 239 433 m 378 208 q 330 228 349 208 q 311 277 311 248 q 316 303 311 290 q 330 325 321 315 q 351 340 338 334 q 378 346 363 346 q 405 340 392 346 q 426 325 417 334 q 441 303 435 315 q 446 277 446 290 q 427 228 446 248 q 378 208 407 208 m 378 642 q 330 662 349 642 q 311 711 311 682 q 316 738 311 725 q 330 760 321 750 q 351 775 338 769 q 378 781 363 781 q 405 775 392 781 q 426 760 417 769 q 441 738 435 750 q 446 711 446 725 q 427 662 446 682 q 378 642 407 642 z "},"ᛕ":{"ha":705,"x_min":127,"x_max":704,"o":"m 704 0 l 555 0 l 244 479 l 241 479 l 241 0 l 127 0 l 127 972 l 241 972 l 241 515 l 244 515 l 546 972 l 678 972 l 358 507 l 704 0 z "},"ᛖ":{"ha":878,"x_min":127,"x_max":750,"o":"m 127 0 l 127 972 l 238 972 l 440 730 l 642 972 l 750 972 l 750 0 l 636 0 l 636 662 q 636 707 636 684 q 638 752 637 730 q 640 794 639 774 q 643 827 642 813 l 636 827 q 602 779 618 802 q 564 730 586 755 l 461 606 l 419 606 l 316 730 q 277 781 294 756 q 241 831 259 806 l 235 831 q 237 797 236 817 q 240 755 239 777 q 241 709 241 732 q 241 662 241 685 l 241 0 l 127 0 z "},"ᛗ":{"ha":878,"x_min":127,"x_max":750,"o":"m 750 972 l 750 0 l 636 0 l 636 345 l 440 581 l 241 345 l 241 0 l 127 0 l 127 972 l 238 972 l 440 730 l 642 972 l 750 972 m 316 730 q 277 781 294 756 q 241 831 259 806 l 235 831 q 240 781 238 806 q 241 730 241 755 l 241 581 q 240 530 241 555 q 235 481 238 505 l 241 481 q 277 531 259 507 q 316 581 294 555 l 378 655 l 316 730 m 564 581 q 602 531 585 555 q 636 483 619 508 l 643 483 q 638 531 640 507 q 636 581 636 555 l 636 730 q 638 779 636 754 q 643 827 640 804 l 636 827 q 602 779 618 802 q 564 730 586 755 l 502 655 l 564 581 z "},"ᛘ":{"ha":783,"x_min":73,"x_max":709,"o":"m 334 0 l 334 597 q 217 637 266 606 q 136 714 168 668 q 89 819 104 761 q 73 941 73 878 l 73 972 l 187 972 l 187 941 q 334 700 187 731 l 334 972 l 448 972 l 448 700 q 595 941 595 731 l 595 972 l 709 972 l 709 941 q 694 819 709 878 q 647 714 679 761 q 566 637 615 668 q 448 597 517 606 l 448 0 l 334 0 z "},"ᛙ":{"ha":369,"x_min":32,"x_max":337,"o":"m 32 836 q 44 896 32 868 q 76 944 56 924 q 125 977 97 965 q 184 989 153 989 l 190 989 q 248 975 220 987 q 294 942 275 963 q 326 895 314 922 q 337 836 337 867 q 330 790 337 812 q 310 749 323 768 q 280 717 298 731 q 241 694 262 703 l 241 0 l 127 0 l 127 694 q 89 717 106 703 q 59 749 71 731 q 39 790 46 768 q 32 836 32 812 z "},"ᛚ":{"ha":515,"x_min":127,"x_max":460,"o":"m 127 972 l 211 972 l 460 775 l 460 647 l 241 819 l 241 0 l 127 0 l 127 972 z "},"ᛛ":{"ha":515,"x_min":32,"x_max":460,"o":"m 32 494 q 58 581 32 543 q 127 635 85 618 l 127 972 l 211 972 l 460 775 l 460 647 l 241 819 l 241 635 q 311 581 284 618 q 337 494 337 543 q 330 447 337 469 q 310 407 323 425 q 280 374 298 389 q 241 352 262 360 l 241 0 l 127 0 l 127 352 q 89 374 106 360 q 59 407 71 389 q 39 447 46 425 q 32 494 32 469 z "},"ᛜ":{"ha":629,"x_min":18,"x_max":611,"o":"m 18 471 l 18 502 l 315 816 l 611 502 l 611 471 l 315 157 l 18 471 m 315 661 l 153 492 l 315 317 l 477 492 l 315 661 z "},"ᛝ":{"ha":680,"x_min":43,"x_max":636,"o":"m 43 0 l 264 237 l 43 471 l 43 502 l 267 739 l 43 972 l 192 972 l 340 816 l 488 972 l 636 972 l 413 739 l 636 502 l 636 471 l 415 237 l 636 0 l 488 0 l 340 157 l 192 0 l 43 0 m 340 661 l 178 492 l 340 317 l 502 492 l 340 661 z "},"ᛞ":{"ha":878,"x_min":127,"x_max":750,"o":"m 750 972 l 750 0 l 648 0 l 440 389 l 232 0 l 127 0 l 127 972 l 238 972 l 440 595 l 642 972 l 750 972 m 329 595 q 282 685 306 638 q 237 775 259 732 l 233 775 q 236 685 235 732 q 236 595 236 638 l 236 389 q 236 299 236 345 q 233 209 235 252 l 237 209 q 282 299 259 253 q 329 389 306 346 l 385 492 l 329 595 m 640 770 q 596 683 618 728 q 551 595 574 637 l 496 492 l 551 389 q 596 301 573 347 q 640 214 618 256 l 645 214 q 642 301 642 256 q 642 389 642 346 l 642 595 q 642 683 642 637 q 645 770 642 728 l 640 770 z "},"ᛟ":{"ha":652,"x_min":30,"x_max":623,"o":"m 30 593 l 326 989 l 623 593 l 623 562 l 391 252 l 581 0 l 450 0 l 326 165 l 202 0 l 72 0 l 261 252 l 30 562 l 30 593 m 326 339 l 504 577 l 326 815 l 148 577 l 326 339 z "},"ᛠ":{"ha":777,"x_min":56,"x_max":722,"o":"m 722 989 l 722 857 l 568 709 l 506 762 q 475 790 490 777 q 446 823 460 804 l 446 0 l 332 0 l 332 825 q 302 790 316 805 q 271 762 288 776 l 210 709 l 56 857 l 56 989 l 214 840 l 389 989 l 563 840 l 722 989 z "},"ᛡ":{"ha":662,"x_min":56,"x_max":606,"o":"m 56 785 l 207 665 q 245 631 227 649 q 281 597 264 614 q 277 648 278 623 q 275 699 275 673 l 275 972 l 387 972 l 387 699 q 385 648 387 673 q 381 597 384 623 q 416 631 397 614 q 455 665 435 649 l 606 785 l 606 655 l 517 585 q 449 537 482 557 q 387 503 416 517 l 387 500 q 449 466 416 486 q 517 418 482 446 l 606 348 l 606 220 l 455 340 q 416 373 435 355 q 381 407 397 390 q 385 356 384 381 q 387 304 387 330 l 387 0 l 275 0 l 275 304 q 277 356 275 330 q 281 407 278 381 q 245 373 264 390 q 207 340 227 355 l 56 220 l 56 348 l 144 418 q 213 466 180 446 q 275 500 246 486 l 275 503 q 213 537 246 517 q 144 585 180 557 l 56 655 l 56 785 z "},"ᛢ":{"ha":777,"x_min":56,"x_max":722,"o":"m 56 -16 l 56 116 l 210 264 l 332 158 l 332 972 l 408 972 l 563 840 l 722 989 l 722 857 l 568 709 l 446 814 l 446 0 l 370 0 l 214 133 l 56 -16 z "},"ᛣ":{"ha":749,"x_min":1,"x_max":747,"o":"m 431 491 l 747 0 l 617 0 l 523 154 q 494 203 507 180 q 468 248 480 226 q 446 292 456 271 q 424 337 435 314 l 421 337 q 428 251 425 296 q 431 154 431 205 l 431 0 l 317 0 l 317 154 q 320 251 317 205 q 327 337 323 296 l 323 337 q 302 292 313 314 q 280 249 292 271 q 255 203 269 227 q 226 154 241 180 l 132 0 l 1 0 l 317 491 l 317 972 l 431 972 l 431 491 z "},"ᛤ":{"ha":670,"x_min":18,"x_max":650,"o":"m 380 656 l 383 656 q 415 741 398 699 q 452 827 431 783 l 523 972 l 646 972 l 505 694 l 627 489 l 504 289 l 650 0 l 520 0 l 449 148 q 410 240 427 193 q 383 333 393 288 l 380 333 l 380 0 l 292 0 l 292 333 l 289 333 q 256 241 275 288 q 214 148 237 194 l 141 0 l 18 0 l 170 292 l 49 489 l 170 694 l 33 972 l 161 972 l 229 827 q 263 741 250 783 q 289 656 277 699 l 292 656 l 292 972 l 380 972 l 380 656 m 463 370 l 533 489 l 463 610 l 395 490 l 463 370 m 212 373 l 278 489 l 212 609 l 142 489 l 212 373 z "},"ᛥ":{"ha":878,"x_min":127,"x_max":750,"o":"m 750 972 l 750 0 l 643 0 l 438 149 l 234 0 l 127 0 l 127 972 l 234 972 l 438 823 l 643 972 l 750 972 m 236 406 l 438 263 l 642 407 l 642 566 l 438 709 l 236 566 l 236 406 m 642 678 l 642 854 l 515 766 l 642 678 m 642 119 l 642 294 l 515 206 l 642 119 m 236 294 l 236 119 l 361 206 l 236 294 m 236 853 l 236 679 l 361 766 l 236 853 z "},"ᛦ":{"ha":783,"x_min":73,"x_max":709,"o":"m 448 972 l 448 376 q 566 335 517 366 q 647 257 615 304 q 694 153 679 211 q 709 31 709 95 l 709 0 l 595 0 l 595 31 q 448 272 595 241 l 448 0 l 334 0 l 334 272 q 187 31 187 241 l 187 0 l 73 0 l 73 31 q 89 153 73 95 q 136 257 104 211 q 217 335 168 304 q 334 376 266 366 l 334 972 l 448 972 z "},"ᛧ":{"ha":369,"x_min":127,"x_max":241,"o":"m 241 0 l 127 0 l 127 486 l 241 486 l 241 0 z "},"ᛨ":{"ha":662,"x_min":56,"x_max":606,"o":"m 388 157 l 606 330 l 606 201 l 331 -17 l 56 201 l 56 330 l 274 157 l 274 819 l 56 647 l 56 775 l 331 994 l 606 775 l 606 647 l 388 819 l 388 157 z "},"ᛩ":{"ha":730,"x_min":73,"x_max":602,"o":"m 488 0 l 488 435 l 73 694 l 73 759 l 488 972 l 602 972 l 602 0 l 488 0 m 216 719 l 481 555 l 488 555 l 488 856 l 481 856 l 216 719 z "},"ᛪ":{"ha":844,"x_min":7,"x_max":837,"o":"m 422 168 l 422 262 l 577 262 l 577 501 l 248 382 l 153 382 l 153 711 l 7 711 l 7 805 l 153 805 l 153 972 l 267 972 l 267 805 l 422 805 l 422 711 l 267 711 l 267 503 l 596 621 l 691 621 l 691 262 l 837 262 l 837 168 l 691 168 l 691 0 l 577 0 l 577 168 l 422 168 z "},"᛫":{"ha":407,"x_min":51,"x_max":356,"o":"m 51 494 q 63 553 51 526 q 95 602 75 581 q 144 634 116 623 q 203 646 172 646 q 263 634 235 646 q 312 602 291 623 q 344 553 332 581 q 356 494 356 526 q 344 434 356 462 q 312 386 332 406 q 263 353 291 365 q 203 341 235 341 q 144 353 172 341 q 95 386 116 365 q 63 434 75 406 q 51 494 51 462 z "},"᛬":{"ha":301,"x_min":75,"x_max":227,"o":"m 150 593 q 96 615 117 593 q 75 670 75 637 q 81 699 75 685 q 97 724 87 713 q 120 741 106 734 q 150 747 134 747 q 180 741 166 747 q 204 724 194 734 q 221 699 215 713 q 227 670 227 685 q 221 640 227 654 q 204 616 215 626 q 180 600 194 606 q 150 593 166 593 m 150 229 q 96 251 117 229 q 75 305 75 273 q 81 334 75 320 q 97 359 87 348 q 120 376 106 370 q 150 382 134 382 q 180 376 166 382 q 204 359 194 370 q 221 334 215 348 q 227 305 227 320 q 221 275 227 289 q 204 251 215 261 q 180 235 194 241 q 150 229 166 229 z "},"᛭":{"ha":892,"x_min":127,"x_max":765,"o":"m 484 526 l 765 580 l 765 408 l 484 462 l 532 175 l 361 175 l 415 462 l 127 408 l 127 580 l 415 526 l 361 812 l 532 812 l 484 526 z "},"ᛮ":{"ha":662,"x_min":56,"x_max":606,"o":"m 274 972 l 357 972 l 606 775 l 606 647 l 388 819 l 388 0 l 274 0 l 274 425 l 56 347 l 56 458 l 274 537 l 274 972 z "},"ᛯ":{"ha":783,"x_min":73,"x_max":709,"o":"m 448 972 l 448 700 q 595 941 595 731 l 595 972 l 709 972 l 709 941 q 694 819 709 878 q 647 714 679 761 q 566 637 615 668 q 448 597 517 606 l 448 376 q 566 335 517 366 q 647 257 615 304 q 694 153 679 211 q 709 31 709 95 l 709 0 l 595 0 l 595 31 q 448 272 595 241 l 448 0 l 334 0 l 334 272 q 187 31 187 241 l 187 0 l 73 0 l 73 31 q 89 153 73 95 q 136 257 104 211 q 217 335 168 304 q 334 376 266 366 l 334 597 q 217 637 266 606 q 136 714 168 668 q 89 819 104 761 q 73 941 73 878 l 73 972 l 187 972 l 187 941 q 334 700 187 731 l 334 972 l 448 972 z "},"ᛰ":{"ha":791,"x_min":64,"x_max":727,"o":"m 340 128 q 220 165 271 136 q 134 240 168 194 q 81 348 99 286 q 64 481 64 409 q 83 623 64 559 q 137 733 102 686 q 224 810 173 781 q 340 849 275 839 l 340 972 l 451 972 l 451 851 q 568 816 516 844 q 654 742 619 788 q 708 633 690 696 q 727 492 727 570 q 709 360 727 422 q 656 251 691 298 q 570 172 621 203 q 451 130 518 140 l 451 0 l 340 0 l 340 128 m 608 488 q 569 668 608 601 q 451 753 530 735 l 451 226 q 569 310 530 243 q 608 488 608 376 m 183 486 q 223 312 183 378 q 340 227 263 245 l 340 752 q 222 665 262 734 q 183 486 183 595 z "},"Ⲁ":{"ha":903,"x_min":64,"x_max":890,"o":"m 199 985 q 210 987 203 986 q 221 988 215 987 q 235 989 227 989 q 308 970 272 989 q 371 905 344 952 l 817 132 q 843 107 828 113 q 872 102 859 102 q 882 102 878 102 q 890 103 886 102 l 890 0 q 879 -3 885 -1 q 853 -5 869 -5 q 780 13 816 -5 q 718 77 744 30 l 683 138 l 532 51 q 435 8 484 23 q 339 -7 387 -7 q 209 28 271 -7 q 102 140 147 63 q 73 210 83 176 q 64 277 64 243 q 77 355 64 317 q 114 427 90 393 q 172 491 138 461 q 248 544 206 520 l 398 631 l 272 850 q 245 875 260 869 q 216 880 230 880 q 207 880 211 880 q 199 879 202 880 l 199 985 m 299 455 q 253 422 274 441 q 215 383 231 404 q 191 338 199 362 q 182 287 182 313 q 188 242 182 265 q 209 195 195 219 q 274 122 238 144 q 353 100 311 100 q 416 110 384 100 q 481 140 448 120 l 632 227 l 450 542 l 299 455 z "},"ⲁ":{"ha":738,"x_min":65,"x_max":731,"o":"m 158 702 q 186 708 172 706 q 216 711 200 711 q 288 692 252 711 q 351 627 324 673 l 637 132 q 662 107 648 113 q 689 102 675 102 q 702 102 697 102 q 710 102 707 102 l 731 1 q 705 -4 718 -2 q 679 -7 692 -7 q 601 12 637 -7 q 538 76 566 31 l 524 98 l 434 47 q 347 8 391 22 q 260 -7 302 -7 q 185 8 220 -7 q 123 50 150 23 q 81 112 96 76 q 65 191 65 149 q 103 309 65 250 q 222 415 141 368 l 311 467 l 252 572 q 227 595 241 589 q 199 602 212 602 l 178 601 l 158 702 m 273 326 q 202 268 224 298 q 180 209 180 239 q 188 168 180 187 q 211 135 197 149 q 245 113 226 121 q 284 105 264 105 q 382 137 328 105 l 472 189 l 363 377 l 273 326 z "},"Ⲃ":{"ha":796,"x_min":127,"x_max":726,"o":"m 127 0 l 127 972 l 404 972 q 604 911 530 972 q 678 750 678 849 q 633 606 678 667 q 510 519 589 545 l 510 517 q 667 443 608 505 q 726 279 726 380 q 637 77 726 155 q 411 0 547 0 l 127 0 m 241 869 l 241 555 l 358 555 q 505 601 452 555 q 559 728 559 646 q 372 869 559 869 l 241 869 m 241 453 l 241 103 l 396 103 q 552 151 496 103 q 607 281 607 198 q 372 453 607 453 l 241 453 z "},"ⲃ":{"ha":736,"x_min":113,"x_max":663,"o":"m 113 0 l 113 694 l 415 694 q 577 649 517 694 q 636 525 636 604 q 503 361 636 390 q 663 200 663 340 q 597 58 663 115 q 435 0 532 0 l 113 0 m 224 600 l 224 404 l 391 404 q 525 509 525 404 q 404 600 525 600 l 224 600 m 224 309 l 224 95 l 416 95 q 551 204 551 95 q 400 309 551 309 l 224 309 z "},"Ⲅ":{"ha":655,"x_min":127,"x_max":632,"o":"m 632 867 l 242 867 l 242 0 l 127 0 l 127 972 l 632 972 l 632 867 z "},"ⲅ":{"ha":532,"x_min":113,"x_max":498,"o":"m 498 600 l 224 600 l 224 0 l 113 0 l 113 694 l 498 694 l 498 600 z "},"Ⲇ":{"ha":827,"x_min":14,"x_max":814,"o":"m 814 0 l 14 0 l 14 33 l 353 685 l 219 943 l 317 989 l 814 33 l 814 0 m 652 103 l 412 572 l 172 103 l 652 103 z "},"ⲇ":{"ha":674,"x_min":14,"x_max":660,"o":"m 660 0 l 14 0 l 14 24 l 279 497 l 192 656 l 274 711 l 660 24 l 660 0 m 506 95 l 335 403 l 164 95 l 506 95 z "},"Ⲉ":{"ha":857,"x_min":64,"x_max":785,"o":"m 785 41 q 518 -16 677 -16 q 188 118 313 -16 q 64 468 64 252 q 196 846 64 703 q 537 989 328 989 q 785 949 682 989 l 785 827 q 536 886 674 886 q 296 792 390 886 q 186 536 202 699 l 616 536 l 616 433 l 184 433 q 288 179 195 271 q 526 86 380 86 q 785 151 678 86 l 785 41 z "},"ⲉ":{"ha":642,"x_min":61,"x_max":582,"o":"m 582 31 q 397 -16 504 -16 q 152 81 243 -16 q 61 342 61 178 q 150 614 61 517 q 404 711 239 711 q 574 674 502 711 l 574 564 q 406 617 503 617 q 245 559 305 617 q 176 397 184 500 l 472 397 l 472 302 l 176 302 q 242 138 182 199 q 401 77 303 77 q 582 136 503 77 l 582 31 z "},"Ⲋ":{"ha":692,"x_min":48,"x_max":766,"o":"m 766 956 q 755 891 766 920 q 724 842 744 863 q 675 810 703 821 q 611 799 646 799 q 536 812 570 799 q 469 842 502 826 q 401 872 435 859 q 324 886 366 886 q 269 875 296 886 q 218 843 241 865 q 182 786 196 821 q 168 703 168 751 q 190 601 168 647 q 246 517 212 555 q 318 446 279 478 q 392 384 357 413 q 495 283 449 335 q 574 177 541 231 q 626 66 608 122 q 644 -48 644 9 q 626 -164 644 -113 q 588 -252 609 -215 q 533 -326 564 -294 l 397 -326 q 460 -247 433 -290 q 484 -206 473 -229 q 504 -159 495 -184 q 519 -106 513 -134 q 524 -48 524 -78 q 504 54 524 5 q 454 146 484 102 q 386 227 423 189 q 315 294 349 264 q 257 345 288 319 q 197 400 227 371 q 140 461 168 429 q 93 531 113 494 q 60 611 73 568 q 48 703 48 654 q 69 820 48 768 q 127 910 90 873 q 215 968 164 948 q 324 989 265 989 q 418 976 376 989 q 494 946 460 962 q 555 917 528 930 q 608 904 583 904 q 636 911 624 904 q 656 929 648 918 q 667 956 663 941 q 671 989 671 971 l 766 956 z "},"ⲋ":{"ha":623,"x_min":52,"x_max":718,"o":"m 718 679 q 706 616 718 643 q 675 570 695 589 q 626 541 654 551 q 562 532 597 532 q 488 545 521 532 q 423 575 455 559 q 358 605 391 591 q 282 618 324 618 q 243 613 263 618 q 205 592 222 607 q 178 553 189 578 q 167 489 167 528 q 184 407 167 446 q 228 332 201 368 q 288 265 254 297 q 357 203 322 233 q 451 112 414 155 q 512 28 489 68 q 544 -53 534 -13 q 553 -136 553 -94 q 540 -216 553 -180 q 511 -275 527 -251 q 469 -326 493 -304 l 333 -326 q 387 -274 363 -303 q 406 -247 397 -262 q 423 -214 416 -231 q 435 -177 431 -197 q 440 -136 440 -158 q 428 -57 440 -92 q 393 8 415 -22 q 342 66 372 38 q 279 123 313 94 q 197 199 238 160 q 124 282 157 238 q 72 377 92 326 q 52 489 52 428 q 73 596 52 553 q 127 665 94 639 q 202 701 161 690 q 282 711 243 711 q 374 698 334 711 q 448 669 415 685 q 508 640 481 653 q 559 627 534 627 q 587 633 575 627 q 607 652 600 640 q 618 679 614 663 q 622 711 622 694 l 718 679 z "},"Ⲍ":{"ha":792,"x_min":22,"x_max":762,"o":"m 762 945 l 193 103 l 749 103 l 749 0 l 22 0 l 22 32 l 587 869 l 68 869 l 68 972 l 762 972 l 762 945 z "},"ⲍ":{"ha":628,"x_min":22,"x_max":597,"o":"m 597 663 l 186 95 l 593 95 l 593 0 l 22 0 l 22 35 l 433 600 l 61 600 l 61 694 l 597 694 l 597 663 z "},"Ⲏ":{"ha":986,"x_min":127,"x_max":859,"o":"m 859 0 l 745 0 l 745 444 l 241 444 l 241 0 l 127 0 l 127 972 l 241 972 l 241 546 l 745 546 l 745 972 l 859 972 l 859 0 z "},"ⲏ":{"ha":802,"x_min":113,"x_max":689,"o":"m 689 0 l 578 0 l 578 315 l 224 315 l 224 0 l 113 0 l 113 694 l 224 694 l 224 410 l 578 410 l 578 694 l 689 694 l 689 0 z "},"Ⲑ":{"ha":1047,"x_min":64,"x_max":983,"o":"m 519 -16 q 189 119 313 -16 q 64 475 64 254 q 190 848 64 707 q 536 989 317 989 q 860 853 737 989 q 983 498 983 718 q 858 122 983 260 q 519 -16 732 -16 m 277 195 q 519 86 370 86 q 771 191 680 86 q 861 433 850 280 l 186 433 q 277 195 197 288 m 527 886 q 279 775 374 886 q 186 538 198 682 l 861 538 q 774 779 850 689 q 527 886 685 886 z "},"ⲑ":{"ha":814,"x_min":65,"x_max":749,"o":"m 403 -16 q 157 81 249 -16 q 65 339 65 178 q 161 612 65 514 q 419 711 256 711 q 662 615 574 711 q 749 350 749 519 q 655 84 749 184 q 403 -16 561 -16 m 242 149 q 411 77 305 77 q 576 147 519 77 q 633 302 625 204 l 180 302 q 242 149 190 208 m 411 617 q 241 544 304 617 q 182 396 193 487 l 632 396 q 576 547 623 490 q 411 617 519 617 z "},"Ⲓ":{"ha":370,"x_min":33,"x_max":336,"o":"m 336 972 l 336 875 l 241 875 l 241 98 l 336 98 l 336 0 l 33 0 l 33 98 l 127 98 l 127 875 l 33 875 l 33 972 l 336 972 z "},"ⲓ":{"ha":336,"x_min":113,"x_max":224,"o":"m 224 0 l 113 0 l 113 694 l 224 694 l 224 0 z "},"Ⲕ":{"ha":806,"x_min":127,"x_max":804,"o":"m 241 515 l 522 842 q 572 898 549 873 q 620 941 596 923 q 669 968 644 958 q 723 978 694 978 q 752 976 739 978 q 775 972 766 974 q 795 966 786 969 l 795 868 q 779 874 787 871 q 762 878 772 876 q 741 880 752 880 q 683 854 718 880 q 598 774 647 828 l 358 506 l 804 0 l 646 0 l 241 479 l 241 0 l 127 0 l 127 972 l 241 972 l 241 515 z "},"ⲕ":{"ha":728,"x_min":113,"x_max":707,"o":"m 707 0 l 570 0 l 319 339 l 223 236 l 223 0 l 113 0 l 113 694 l 223 694 l 223 357 l 410 568 q 527 681 489 659 q 597 704 566 704 q 669 699 646 704 l 669 601 q 614 606 648 606 q 472 500 570 606 l 394 416 l 707 0 z "},"Ⲗ":{"ha":788,"x_min":33,"x_max":788,"o":"m 666 0 l 413 569 l 162 0 l 33 0 l 357 696 l 235 972 l 355 972 l 788 0 l 666 0 z "},"ⲗ":{"ha":672,"x_min":9,"x_max":665,"o":"m 550 0 l 328 557 l 133 0 l 9 0 l 273 693 l 159 986 l 271 986 l 665 0 l 550 0 z "},"Ⲙ":{"ha":1098,"x_min":127,"x_max":970,"o":"m 127 0 l 127 972 l 241 972 q 246 897 241 940 q 260 807 251 854 q 283 710 269 760 q 317 613 298 661 q 360 525 336 566 q 413 452 384 484 q 476 403 442 421 q 550 385 511 385 q 625 403 591 385 q 689 452 660 421 q 742 525 718 484 q 784 613 766 566 q 817 710 803 661 q 839 807 830 760 q 852 897 848 854 q 857 972 857 940 l 970 972 l 970 0 l 857 0 l 857 541 q 807 441 838 488 q 738 359 777 394 q 650 303 698 324 q 550 283 603 283 q 449 303 497 283 q 362 359 401 324 q 292 441 322 394 q 241 541 261 488 l 241 0 l 127 0 z "},"ⲙ":{"ha":882,"x_min":113,"x_max":769,"o":"m 113 0 l 113 694 l 224 694 q 228 625 224 667 q 241 538 231 584 q 266 447 250 493 q 306 365 282 401 q 364 306 330 329 q 441 283 397 283 q 518 306 486 283 q 575 365 551 329 q 615 447 600 401 q 641 538 631 493 q 654 625 650 584 q 658 694 658 667 l 769 694 l 769 0 l 658 0 l 658 357 q 618 288 642 319 q 566 234 595 256 q 506 200 538 212 q 441 188 474 188 q 372 200 405 188 q 312 235 340 213 q 262 289 284 258 q 224 357 239 320 l 224 0 l 113 0 z "},"Ⲛ":{"ha":1039,"x_min":127,"x_max":911,"o":"m 911 0 l 772 0 l 271 775 q 240 836 252 804 l 236 836 q 241 703 241 805 l 241 0 l 127 0 l 127 972 l 275 972 l 762 210 q 802 144 793 162 l 804 144 q 798 288 798 186 l 798 972 l 911 972 l 911 0 z "},"ⲛ":{"ha":807,"x_min":113,"x_max":694,"o":"m 113 694 l 228 694 l 557 214 q 593 147 585 167 l 593 694 l 694 694 l 694 0 l 579 0 l 258 472 q 213 554 228 525 l 213 0 l 113 0 l 113 694 z "},"Ⲝ":{"ha":751,"x_min":76,"x_max":741,"o":"m 686 945 l 387 585 q 444 581 412 585 q 509 567 475 577 q 574 541 542 557 q 631 500 606 525 q 671 443 656 476 q 686 365 686 409 q 669 285 686 323 q 621 215 651 248 q 550 154 591 182 q 464 103 510 126 l 741 103 l 741 0 l 76 0 l 76 69 q 181 91 125 77 q 291 127 237 106 q 396 174 346 148 q 484 230 446 200 q 544 295 522 260 q 566 365 566 329 q 495 466 566 430 q 282 501 424 501 l 210 501 l 210 533 l 484 869 l 76 869 l 76 972 l 686 972 l 686 945 z "},"ⲝ":{"ha":563,"x_min":36,"x_max":541,"o":"m 36 45 q 162 99 103 69 q 266 161 222 128 q 336 231 311 195 q 361 304 361 267 q 356 333 361 319 q 338 357 351 347 q 303 373 325 367 q 248 378 281 378 l 113 378 l 113 410 l 303 600 l 36 600 l 36 694 l 461 694 l 461 647 l 275 452 q 376 439 337 452 q 437 406 415 426 q 468 360 460 385 q 476 310 476 334 q 465 251 476 280 q 433 193 453 221 q 386 140 413 165 q 330 95 359 115 l 541 95 l 541 0 l 37 0 l 36 45 z "},"Ⲟ":{"ha":1047,"x_min":64,"x_max":983,"o":"m 519 -16 q 188 120 313 -16 q 64 475 64 256 q 191 849 64 709 q 536 989 317 989 q 860 853 737 989 q 983 498 983 718 q 857 122 983 260 q 519 -16 731 -16 m 528 886 q 279 775 374 886 q 183 485 183 665 q 276 196 183 305 q 519 86 370 86 q 772 191 680 86 q 864 483 864 295 q 774 781 864 675 q 528 886 685 886 z "},"ⲟ":{"ha":814,"x_min":65,"x_max":749,"o":"m 403 -16 q 157 81 249 -16 q 65 339 65 178 q 161 612 65 514 q 419 711 256 711 q 662 615 574 711 q 749 350 749 519 q 655 84 749 184 q 403 -16 561 -16 m 411 617 q 241 544 304 617 q 179 343 179 471 q 242 149 179 220 q 411 77 305 77 q 577 147 519 77 q 635 346 635 217 q 577 547 635 476 q 411 617 519 617 z "},"Ⲡ":{"ha":990,"x_min":127,"x_max":865,"o":"m 865 0 l 750 0 l 750 867 l 242 867 l 242 0 l 127 0 l 127 972 l 865 972 l 865 0 z "},"ⲡ":{"ha":802,"x_min":113,"x_max":689,"o":"m 689 0 l 578 0 l 578 600 l 224 600 l 224 0 l 113 0 l 113 694 l 689 694 l 689 0 z "},"Ⲣ":{"ha":778,"x_min":127,"x_max":722,"o":"m 241 368 l 241 0 l 127 0 l 127 972 l 395 972 q 636 897 551 972 q 722 682 722 821 q 627 456 722 544 q 370 368 532 368 l 241 368 m 241 869 l 241 471 l 361 471 q 541 525 479 471 q 603 677 603 578 q 375 869 603 869 l 241 869 z "},"ⲣ":{"ha":817,"x_min":113,"x_max":751,"o":"m 227 100 l 224 100 l 224 -319 l 113 -319 l 113 694 l 224 694 l 224 572 l 227 572 q 467 711 309 711 q 676 617 601 711 q 751 368 751 524 q 667 89 751 193 q 435 -16 582 -16 q 227 100 300 -16 m 224 380 l 224 283 q 280 137 224 197 q 422 77 336 77 q 580 155 523 77 q 637 370 637 232 q 584 551 637 486 q 439 617 530 617 q 283 550 342 617 q 224 380 224 482 z "},"Ⲥ":{"ha":860,"x_min":64,"x_max":789,"o":"m 789 41 q 521 -16 682 -16 q 189 117 313 -16 q 64 468 64 251 q 204 845 64 701 q 560 989 345 989 q 789 949 699 989 l 789 827 q 559 886 685 886 q 287 774 391 886 q 183 475 183 662 q 280 192 183 297 q 536 86 378 86 q 789 151 682 86 l 789 41 z "},"ⲥ":{"ha":642,"x_min":65,"x_max":587,"o":"m 586 32 q 396 -16 506 -16 q 156 80 248 -16 q 65 331 65 177 q 163 607 65 503 q 426 711 262 711 q 587 677 517 711 l 587 563 q 422 617 510 617 q 247 541 315 617 q 179 340 179 465 q 243 148 179 218 q 415 77 307 77 q 586 138 506 77 l 586 32 z "},"Ⲧ":{"ha":728,"x_min":28,"x_max":703,"o":"m 703 869 l 422 869 l 422 0 l 308 0 l 308 869 l 28 869 l 28 972 l 703 972 l 703 869 z "},"ⲧ":{"ha":570,"x_min":20,"x_max":549,"o":"m 549 600 l 340 600 l 340 0 l 229 0 l 229 600 l 20 600 l 20 694 l 549 694 l 549 600 z "},"Ⲩ":{"ha":785,"x_min":12,"x_max":819,"o":"m 819 872 q 760 886 789 886 q 639 757 704 886 l 439 357 l 439 0 l 325 0 l 325 357 l 12 972 l 142 972 l 359 533 q 383 473 363 525 l 385 473 q 408 533 391 492 l 543 803 q 642 947 594 905 q 753 989 689 989 q 819 975 789 989 l 819 872 z "},"ⲩ":{"ha":719,"x_min":17,"x_max":732,"o":"m 506 575 q 532 624 516 602 q 570 664 548 647 q 619 690 591 680 q 679 699 646 699 q 701 699 691 699 q 718 696 710 698 q 732 694 726 695 l 732 596 q 720 599 727 597 q 707 601 715 600 q 691 602 699 602 q 668 600 680 602 q 644 591 656 598 q 621 568 632 583 q 599 527 609 553 l 390 1 l 390 -319 l 279 -319 l 279 3 l 17 694 l 139 694 l 315 190 q 340 93 335 134 l 342 93 q 364 187 349 145 l 506 575 z "},"Ⲫ":{"ha":1047,"x_min":64,"x_max":983,"o":"m 582 1180 l 582 987 q 751 938 677 979 q 878 831 826 897 q 956 681 929 766 q 983 498 983 595 q 957 307 983 395 q 880 151 931 218 q 754 41 829 83 q 582 -13 680 -2 l 582 -319 l 468 -319 l 468 -14 q 298 36 373 -5 q 171 141 222 77 q 91 291 119 205 q 64 475 64 376 q 90 666 64 577 q 168 821 117 754 q 295 931 219 888 q 468 985 370 973 l 468 1180 l 582 1180 m 864 483 q 847 630 864 562 q 796 751 831 699 q 708 839 762 804 q 582 882 655 873 l 582 90 q 706 134 653 100 q 794 219 759 168 q 847 338 829 271 q 864 483 864 406 m 183 485 q 201 344 183 411 q 255 223 220 277 q 344 135 291 170 q 468 90 397 100 l 468 881 q 346 834 399 869 q 256 745 292 798 q 201 625 220 692 q 183 485 183 558 z "},"ⲫ":{"ha":953,"x_min":65,"x_max":887,"o":"m 526 -16 l 526 -327 l 426 -327 l 426 -16 l 404 -16 q 159 82 252 -16 q 65 339 65 180 q 160 609 65 508 q 410 711 254 711 l 426 711 l 426 989 l 526 989 l 526 711 l 541 711 q 792 610 698 711 q 887 339 887 509 q 794 82 887 180 q 550 -16 701 -16 l 526 -16 m 526 617 l 526 77 l 541 77 q 710 149 647 77 q 773 343 773 220 q 711 545 773 472 q 545 617 649 617 l 526 617 m 426 77 l 426 617 l 410 617 q 242 544 305 617 q 179 343 179 471 q 242 150 179 222 q 412 77 306 77 l 426 77 z "},"Ⲭ":{"ha":878,"x_min":17,"x_max":861,"o":"m 267 129 q 225 70 246 95 q 182 27 205 44 q 135 2 160 10 q 82 -6 111 -6 q 53 -4 65 -6 q 33 -1 41 -3 q 17 5 24 2 l 17 104 q 29 98 22 100 q 44 93 35 95 q 64 92 53 92 q 93 97 81 92 q 119 116 106 103 q 146 149 132 128 q 179 197 160 169 l 373 489 l 73 972 l 213 972 l 412 631 q 446 563 431 597 l 449 563 q 487 633 471 608 l 615 843 q 656 902 636 877 q 698 944 676 928 q 744 969 720 961 q 796 978 768 978 q 825 976 812 978 q 845 972 837 974 q 861 966 854 969 l 861 868 q 849 874 857 871 q 834 878 843 876 q 814 880 825 880 q 785 874 798 880 q 759 856 772 869 q 731 824 746 844 q 699 774 717 804 l 519 490 l 829 0 l 690 0 l 466 372 q 444 420 456 389 l 441 420 q 418 374 435 403 l 267 129 z "},"ⲭ":{"ha":686,"x_min":14,"x_max":672,"o":"m 446 574 q 477 620 461 597 q 514 661 494 643 q 560 689 534 678 q 618 699 586 699 q 640 699 631 699 q 657 696 650 698 q 672 694 665 695 l 672 596 q 660 599 667 597 q 647 601 654 600 q 631 602 639 602 q 608 598 619 602 q 585 587 597 595 q 559 565 572 579 q 530 527 545 550 l 408 343 l 637 0 l 507 0 l 371 225 q 340 278 357 246 l 338 278 q 328 262 336 275 q 306 225 320 249 l 242 122 q 210 76 227 98 q 173 35 193 53 q 126 7 152 18 q 67 -3 100 -3 q 28 -1 42 -3 q 14 1 20 0 l 14 100 q 26 97 19 98 q 39 95 31 96 q 55 94 46 94 q 77 97 66 94 q 100 108 88 100 q 126 131 113 116 q 156 169 140 145 l 275 340 l 49 694 l 178 694 l 313 457 q 327 430 320 444 q 342 403 334 416 l 345 403 l 446 574 z "},"Ⲯ":{"ha":800,"x_min":20,"x_max":826,"o":"m 454 1071 l 454 570 l 562 820 q 595 888 578 857 q 636 942 613 920 q 689 977 659 964 q 760 989 719 989 q 826 975 795 989 l 826 872 q 766 886 795 886 q 740 881 752 886 q 714 863 727 876 q 688 829 701 850 q 659 776 675 808 l 454 357 l 454 0 l 340 0 l 340 357 l 20 972 l 150 972 l 340 572 l 340 1071 l 454 1071 z "},"ⲯ":{"ha":827,"x_min":7,"x_max":834,"o":"m 603 575 q 630 624 613 602 q 669 664 646 647 q 720 690 692 680 q 781 699 748 699 q 802 699 793 699 q 819 696 812 698 q 834 694 827 695 l 834 596 q 822 599 829 597 q 809 601 817 600 q 793 602 801 602 q 769 600 781 602 q 744 591 756 598 q 719 568 731 583 q 696 527 706 553 l 451 1 l 451 -319 l 340 -319 l 340 3 l 7 694 l 129 694 l 340 227 l 340 989 l 451 989 l 451 220 l 603 575 z "},"Ⲱ":{"ha":1428,"x_min":64,"x_max":1364,"o":"m 657 972 l 771 972 l 771 475 q 784 316 771 387 q 823 193 796 244 q 893 114 850 142 q 996 85 935 85 q 1108 115 1061 85 q 1186 198 1156 145 q 1231 324 1217 251 q 1245 485 1245 397 q 1227 651 1245 576 q 1176 777 1210 725 q 1091 858 1141 829 q 975 886 1040 886 l 975 989 q 1144 951 1072 989 q 1266 847 1217 914 q 1340 684 1315 779 q 1364 475 1364 589 q 1339 264 1364 355 q 1265 110 1313 172 q 1149 16 1217 48 q 996 -16 1080 -16 q 827 30 898 -16 q 714 165 756 75 q 601 30 671 75 q 433 -16 530 -16 q 279 16 348 -16 q 163 110 211 48 q 90 264 115 172 q 64 475 64 355 q 89 684 64 589 q 162 847 113 779 q 284 951 211 914 q 453 989 357 989 l 453 886 q 337 858 388 886 q 253 777 287 829 q 201 651 218 725 q 183 485 183 576 q 197 324 183 397 q 242 198 212 251 q 320 115 273 145 q 433 85 367 85 q 534 115 492 85 q 604 196 576 144 q 644 319 631 248 q 657 475 657 390 l 657 972 z "},"ⲱ":{"ha":1122,"x_min":81,"x_max":1042,"o":"m 768 -16 q 562 114 631 -16 l 559 114 q 353 -16 489 -16 q 231 13 282 -16 q 146 89 179 41 q 97 201 113 137 q 81 339 81 266 q 87 429 81 385 q 109 514 94 474 q 144 589 123 555 q 196 649 166 624 q 265 689 227 675 q 350 703 303 703 l 350 606 q 284 584 313 606 q 235 526 255 563 q 204 441 214 490 q 193 339 193 393 q 204 232 193 279 q 235 151 214 184 q 284 100 255 117 q 350 82 313 82 q 506 317 506 82 l 506 694 l 617 694 l 617 317 q 772 82 617 82 q 838 100 809 82 q 888 151 867 117 q 919 232 908 184 q 929 339 929 279 q 919 441 929 393 q 888 526 908 490 q 838 584 867 563 q 772 606 809 606 l 772 703 q 858 689 819 703 q 926 649 896 675 q 978 589 956 624 q 1014 514 1000 555 q 1035 429 1028 474 q 1042 339 1042 385 q 1025 201 1042 266 q 976 89 1009 137 q 890 13 942 41 q 768 -16 838 -16 z "},"Ⲳ":{"ha":580,"x_min":20,"x_max":559,"o":"m 20 680 l 233 680 l 233 972 l 347 972 l 347 680 l 559 680 l 559 577 l 20 577 l 20 680 z "},"ⲳ":{"ha":433,"x_min":20,"x_max":413,"o":"m 20 551 l 161 551 l 161 694 l 272 694 l 272 551 l 413 551 l 413 456 l 20 456 l 20 551 z "},"Ⲵ":{"ha":713,"x_min":14,"x_max":700,"o":"m 619 -16 l 14 589 l 413 989 l 563 840 l 482 758 l 407 833 l 170 595 l 700 64 l 619 -16 m 486 482 q 457 488 471 482 q 433 505 444 494 q 417 529 423 515 q 411 558 411 543 q 417 588 411 574 q 433 612 423 602 q 457 629 444 623 q 486 635 471 635 q 516 629 502 635 q 540 612 530 623 q 557 588 551 602 q 563 558 563 574 q 557 529 563 543 q 540 505 551 515 q 516 488 530 494 q 486 482 502 482 z "},"ⲵ":{"ha":530,"x_min":27,"x_max":503,"o":"m 425 -16 l 27 381 l 357 711 l 492 576 l 413 498 l 346 565 l 173 393 l 503 62 l 425 -16 m 415 286 q 386 292 399 286 q 362 308 372 298 q 346 332 352 318 q 340 361 340 346 q 346 391 340 377 q 362 415 352 405 q 386 432 372 426 q 415 438 399 438 q 445 432 431 438 q 469 415 458 426 q 486 391 479 405 q 492 361 492 377 q 486 332 492 346 q 469 308 479 318 q 445 292 458 298 q 415 286 431 286 z "},"Ⲷ":{"ha":844,"x_min":39,"x_max":805,"o":"m 805 869 l 39 869 l 39 972 l 805 972 l 805 869 m 805 439 l 39 439 l 39 543 l 805 543 l 805 439 m 805 0 l 39 0 l 39 103 l 805 103 l 805 0 z "},"ⲷ":{"ha":657,"x_min":34,"x_max":623,"o":"m 623 600 l 34 600 l 34 694 l 623 694 l 623 600 m 623 0 l 34 0 l 34 95 l 623 95 l 623 0 m 623 292 l 34 292 l 34 387 l 623 387 l 623 292 z "},"Ⲹ":{"ha":781,"x_min":34,"x_max":760,"o":"m 760 103 l 760 -119 l 646 -119 l 646 0 l 34 0 l 34 32 l 464 524 l 271 838 l 271 837 l 170 774 l 109 871 l 297 989 l 590 521 l 590 507 l 231 103 l 760 103 z "},"ⲹ":{"ha":611,"x_min":27,"x_max":597,"o":"m 597 95 l 597 -95 l 486 -95 l 486 0 l 27 0 l 27 32 l 371 414 l 273 562 l 208 522 l 151 612 l 302 707 l 487 417 l 487 403 l 212 95 l 597 95 z "},"Ⲻ":{"ha":844,"x_min":39,"x_max":805,"o":"m 805 755 l 39 755 l 39 864 l 805 864 l 805 755 z "},"ⲻ":{"ha":657,"x_min":34,"x_max":623,"o":"m 623 505 l 34 505 l 34 600 l 623 600 l 623 505 z "},"Ⲽ":{"ha":890,"x_min":127,"x_max":763,"o":"m 241 0 l 127 0 l 127 972 l 241 972 l 241 0 m 502 0 l 388 0 l 388 972 l 502 972 l 502 0 m 763 0 l 649 0 l 649 972 l 763 972 l 763 0 z "},"ⲽ":{"ha":811,"x_min":113,"x_max":699,"o":"m 224 0 l 113 0 l 113 694 l 224 694 l 224 0 m 461 0 l 350 0 l 350 694 l 461 694 l 461 0 m 699 0 l 587 0 l 587 694 l 699 694 l 699 0 z "},"Ⲿ":{"ha":1000,"x_min":127,"x_max":987,"o":"m 987 444 l 763 444 l 763 0 l 649 0 l 649 444 l 502 444 l 502 0 l 388 0 l 388 444 l 241 444 l 241 0 l 127 0 l 127 972 l 241 972 l 241 546 l 388 546 l 388 972 l 502 972 l 502 546 l 649 546 l 649 972 l 763 972 l 763 546 l 873 546 l 873 643 l 987 643 l 987 444 z "},"ⲿ":{"ha":914,"x_min":113,"x_max":901,"o":"m 901 315 l 699 315 l 699 0 l 587 0 l 587 315 l 461 315 l 461 0 l 350 0 l 350 315 l 224 315 l 224 0 l 113 0 l 113 694 l 224 694 l 224 410 l 350 410 l 350 694 l 461 694 l 461 410 l 587 410 l 587 694 l 699 694 l 699 410 l 789 410 l 789 490 l 901 490 l 901 315 z "},"Ⳁ":{"ha":885,"x_min":27,"x_max":831,"o":"m 584 310 l 699 310 l 699 119 l 370 119 l 370 -319 l 256 -319 l 256 119 l 142 119 l 142 33 l 27 33 l 27 224 l 256 224 l 256 972 l 503 972 q 635 956 575 972 q 739 905 696 939 q 807 817 783 870 q 831 689 831 763 q 803 556 831 614 q 728 460 776 499 q 616 401 681 421 q 478 381 552 381 l 370 381 l 370 224 l 584 224 l 584 310 m 370 869 l 370 484 l 469 484 q 650 534 588 484 q 711 684 711 585 q 654 825 711 780 q 484 869 597 869 l 370 869 z "},"ⳁ":{"ha":950,"x_min":27,"x_max":869,"o":"m 27 -47 l 237 -47 l 237 694 l 348 694 l 348 572 l 351 572 q 591 711 433 711 q 717 685 664 711 q 803 615 770 659 q 853 514 837 571 q 869 395 869 457 q 851 275 869 334 q 795 172 833 217 q 699 99 758 127 q 559 72 640 72 q 499 78 530 72 q 441 98 469 85 q 390 133 414 112 q 351 182 366 153 l 348 182 l 348 -47 l 694 -47 l 694 31 l 792 31 l 792 -142 l 348 -142 l 348 -319 l 237 -319 l 237 -142 l 125 -142 l 125 -221 l 27 -221 l 27 -47 m 755 395 q 744 477 755 437 q 708 548 732 517 q 647 598 684 579 q 557 617 610 617 q 470 601 509 617 q 404 554 431 584 q 362 483 376 524 q 348 391 348 441 l 348 383 q 362 301 348 340 q 402 232 376 262 q 466 183 428 201 q 553 165 504 165 q 648 185 610 165 q 711 236 687 204 q 745 310 734 269 q 755 395 755 351 z "},"Ⳃ":{"ha":1428,"x_min":64,"x_max":1364,"o":"m 714 -224 q 833 -211 774 -224 q 946 -169 892 -197 q 1048 -96 1000 -140 q 1133 9 1095 -52 q 996 -16 1069 -16 q 827 30 898 -16 q 714 165 756 75 q 601 30 671 75 q 433 -16 530 -16 q 279 16 348 -16 q 163 110 211 48 q 90 264 115 172 q 64 475 64 355 q 89 684 64 589 q 162 847 113 779 q 284 951 211 914 q 453 989 357 989 l 453 886 q 337 858 388 886 q 253 777 287 829 q 201 651 218 725 q 183 485 183 576 q 197 324 183 397 q 242 198 212 251 q 320 115 273 145 q 433 85 367 85 q 534 115 492 85 q 604 196 576 144 q 644 319 631 248 q 657 475 657 390 l 657 972 l 771 972 l 771 475 q 784 316 771 387 q 823 193 796 244 q 893 114 850 142 q 996 85 935 85 q 1109 116 1062 85 q 1187 201 1157 147 q 1231 328 1217 255 q 1245 485 1245 401 q 1227 651 1245 576 q 1176 777 1210 725 q 1091 858 1141 829 q 975 886 1040 886 l 975 989 q 1101 969 1045 989 q 1201 914 1158 949 q 1275 831 1244 879 q 1326 726 1306 783 q 1355 605 1345 669 q 1364 475 1364 541 q 1316 135 1364 284 q 1181 -117 1267 -14 q 975 -273 1095 -220 q 714 -327 856 -327 l 714 -224 m 671 1025 l 671 1133 l 496 1133 l 496 1208 l 671 1208 l 671 1345 l 755 1345 l 755 1208 l 930 1208 l 930 1133 l 755 1133 l 755 1025 l 671 1025 m 578 1238 q 536 1256 553 1238 q 519 1298 519 1274 q 536 1340 519 1323 q 578 1357 553 1357 q 621 1340 604 1357 q 639 1298 639 1323 q 621 1256 639 1274 q 578 1238 604 1238 m 849 1238 q 807 1256 824 1238 q 789 1298 789 1274 q 807 1340 789 1323 q 849 1357 824 1357 q 892 1340 874 1357 q 909 1298 909 1323 q 892 1256 909 1274 q 849 1238 874 1238 z "},"ⳃ":{"ha":1122,"x_min":81,"x_max":1042,"o":"m 559 -231 q 749 -146 669 -203 q 874 5 828 -90 q 824 -10 850 -5 q 768 -16 798 -16 q 562 114 631 -16 l 559 114 q 353 -16 489 -16 q 231 13 282 -16 q 146 89 179 41 q 97 201 113 137 q 81 339 81 266 q 87 429 81 385 q 109 514 94 474 q 144 589 123 555 q 196 649 166 624 q 265 689 227 675 q 350 703 303 703 l 350 606 q 284 584 313 606 q 235 526 255 563 q 204 441 214 490 q 193 339 193 393 q 204 232 193 279 q 235 151 214 184 q 284 100 255 117 q 350 82 313 82 q 506 317 506 82 l 506 694 l 617 694 l 617 317 q 772 82 617 82 q 838 100 809 82 q 888 151 867 117 q 919 232 908 184 q 929 339 929 279 q 919 441 929 393 q 888 526 908 490 q 838 584 867 563 q 772 606 809 606 l 772 703 q 893 672 842 703 q 977 591 944 642 q 1026 476 1010 541 q 1042 343 1042 411 q 1031 191 1042 265 q 999 47 1021 116 q 939 -82 976 -22 q 848 -191 902 -142 q 723 -274 795 -239 q 559 -327 652 -309 l 559 -231 m 520 758 l 520 866 l 346 866 l 346 941 l 520 941 l 520 1078 l 604 1078 l 604 941 l 779 941 l 779 866 l 604 866 l 604 758 l 520 758 m 428 970 q 386 988 403 970 q 368 1031 368 1006 q 386 1073 368 1056 q 428 1090 403 1090 q 471 1073 453 1090 q 488 1031 488 1056 q 471 988 488 1006 q 428 970 453 970 m 699 970 q 656 988 673 970 q 639 1031 639 1006 q 656 1073 639 1056 q 699 1090 673 1090 q 741 1073 724 1090 q 759 1031 759 1056 q 741 988 759 1006 q 699 970 724 970 z "},"Ⳅ":{"ha":848,"x_min":7,"x_max":783,"o":"m 7 -254 l 7 -132 q 309 -224 159 -224 q 566 -143 467 -224 q 664 68 664 -62 q 561 283 664 206 q 278 359 458 359 l 216 359 l 216 411 l 555 869 l 26 869 l 26 972 l 722 972 l 722 921 l 376 456 q 672 337 562 440 q 783 72 783 234 q 647 -214 783 -102 q 308 -327 511 -327 q 7 -254 151 -327 z "},"ⳅ":{"ha":614,"x_min":-24,"x_max":591,"o":"m -24 -270 l -24 -160 q 208 -231 88 -231 q 402 -169 326 -231 q 477 -9 477 -107 q 402 148 477 92 q 187 204 327 204 l 132 204 l 132 239 l 392 600 l 0 600 l 0 694 l 551 694 l 551 660 l 285 292 q 512 195 433 274 q 591 -7 591 115 q 481 -235 591 -145 q 204 -325 372 -325 q -24 -270 81 -325 z "},"Ⳇ":{"ha":469,"x_min":-68,"x_max":441,"o":"m -68 -319 l 323 972 l 441 972 l 52 -319 l -68 -319 z "},"ⳇ":{"ha":366,"x_min":-79,"x_max":345,"o":"m -79 -319 l 229 694 l 345 694 l 36 -319 l -79 -319 z "},"Ⳉ":{"ha":848,"x_min":14,"x_max":812,"o":"m 762 448 l 762 345 l 218 345 q 179 255 191 304 q 168 148 168 205 q 184 -1 168 67 q 236 -119 201 -70 q 327 -197 271 -169 q 460 -224 382 -224 q 554 -210 511 -224 q 629 -168 597 -196 q 680 -98 661 -140 q 701 0 699 -56 l 812 0 q 783 -134 807 -74 q 715 -237 760 -195 q 606 -303 671 -280 q 453 -327 541 -327 q 307 -305 369 -327 q 199 -246 244 -283 q 125 -161 154 -210 q 79 -61 96 -113 q 56 45 62 -8 q 49 146 49 99 q 58 248 49 198 q 87 345 68 298 l 14 345 l 14 448 l 152 448 q 224 511 183 484 q 318 554 265 538 q 388 575 351 564 q 468 597 425 586 q 579 640 542 615 q 616 700 616 665 q 594 772 616 739 q 541 831 573 806 q 469 871 508 857 q 393 886 429 886 q 288 812 288 886 q 301 755 288 788 l 190 755 q 175 822 175 787 q 193 896 175 865 q 240 948 211 927 q 308 979 270 968 q 388 989 347 989 q 467 979 427 989 q 547 951 508 969 q 620 906 585 932 q 680 848 654 880 q 720 779 705 817 q 735 700 735 741 q 722 636 735 666 q 688 583 709 607 q 637 543 666 559 q 576 517 608 526 l 410 475 q 375 462 391 469 q 342 448 358 455 l 762 448 z "},"ⳉ":{"ha":639,"x_min":13,"x_max":618,"o":"m 559 197 l 165 197 q 145 125 151 164 q 140 42 140 87 q 149 -55 140 -6 q 180 -143 158 -104 q 241 -208 203 -183 q 339 -233 280 -233 q 415 -221 382 -233 q 472 -186 449 -209 q 507 -133 495 -164 q 519 -62 519 -101 l 618 -62 q 599 -169 618 -121 q 542 -253 579 -218 q 452 -308 505 -288 q 334 -327 399 -327 q 198 -296 255 -327 q 103 -214 140 -264 q 47 -97 65 -163 q 28 38 28 -31 q 34 123 28 83 q 50 197 39 163 l 13 197 l 13 288 l 97 288 q 182 362 130 332 q 306 410 233 393 q 355 424 332 416 q 397 442 379 432 q 427 464 416 452 q 437 493 437 477 q 420 541 437 518 q 377 581 403 564 q 323 608 352 598 q 273 618 295 618 q 210 571 210 618 q 232 510 210 543 l 129 510 q 109 581 109 543 q 121 637 109 612 q 156 677 134 661 q 205 702 177 694 q 265 711 234 711 q 326 703 294 711 q 389 682 358 696 q 450 649 420 669 q 500 606 479 630 q 535 554 522 582 q 549 494 549 526 q 531 422 549 451 q 482 375 513 394 q 412 344 452 356 q 328 321 372 332 q 281 307 302 315 q 243 288 260 298 l 559 288 l 559 197 z "},"Ⳋ":{"ha":793,"x_min":64,"x_max":729,"o":"m 729 479 q 688 133 729 283 q 569 -119 646 -17 q 381 -274 492 -221 q 134 -327 271 -327 l 134 -218 q 323 -174 236 -218 q 474 -43 410 -130 q 574 173 538 44 q 610 472 610 302 q 593 660 610 582 q 547 789 577 739 q 474 862 517 839 q 378 886 431 886 q 302 873 338 886 q 240 833 267 860 q 198 766 214 806 q 183 670 183 725 q 203 576 183 615 q 251 512 222 537 q 312 476 280 488 q 368 465 344 465 l 368 367 q 256 388 311 367 q 159 448 201 409 q 90 544 116 488 q 64 670 64 600 q 88 803 64 744 q 154 904 112 863 q 254 967 197 945 q 378 989 311 989 q 525 957 460 989 q 635 861 590 925 q 705 702 680 798 q 729 479 729 606 z "},"ⳋ":{"ha":787,"x_min":65,"x_max":722,"o":"m 722 255 q 695 57 722 144 q 625 -94 669 -29 q 523 -203 581 -158 q 405 -275 466 -248 q 283 -315 344 -302 q 172 -327 222 -327 l 172 -233 q 256 -225 209 -233 q 351 -195 302 -216 q 445 -139 399 -174 q 527 -50 491 -104 q 585 77 563 3 q 607 248 607 151 q 586 430 607 358 q 532 543 565 501 q 458 601 499 585 q 376 618 416 618 q 304 608 339 618 q 241 574 269 597 q 197 513 214 551 q 180 420 180 475 q 200 329 180 366 q 249 272 220 293 q 309 242 277 251 q 366 234 341 234 l 366 136 q 254 154 308 136 q 158 208 200 172 q 91 297 116 244 q 65 420 65 350 q 91 549 65 494 q 159 640 116 604 q 258 693 202 675 q 376 711 315 711 q 509 687 446 711 q 620 610 572 664 q 694 470 667 557 q 722 255 722 382 z "},"Ⳍ":{"ha":848,"x_min":7,"x_max":783,"o":"m 199 381 l 199 475 l 292 475 q 400 494 353 475 q 477 543 446 513 q 523 613 508 574 q 538 695 538 653 q 524 778 538 742 q 482 840 509 814 q 417 878 455 865 q 334 890 379 890 q 96 814 212 890 l 96 929 q 343 989 203 989 q 468 970 410 989 q 569 915 526 951 q 636 827 612 880 q 661 709 661 775 q 645 610 661 654 q 601 531 629 565 q 534 476 573 498 q 449 446 495 454 l 449 443 q 697 330 610 417 q 783 100 783 243 q 749 -75 783 4 q 654 -209 715 -153 q 506 -296 592 -265 q 313 -327 419 -327 q 228 -321 271 -327 q 145 -306 185 -315 q 70 -284 105 -296 q 7 -258 35 -271 l 7 -132 q 79 -168 43 -151 q 152 -197 114 -184 q 231 -217 189 -210 q 323 -224 273 -224 q 471 -200 408 -224 q 578 -135 535 -177 q 642 -34 621 -93 q 664 96 664 25 q 634 230 664 176 q 555 318 605 285 q 439 367 505 352 q 300 381 373 381 l 199 381 z "},"ⳍ":{"ha":614,"x_min":-24,"x_max":591,"o":"m 591 -7 q 560 -148 591 -88 q 477 -247 529 -208 q 356 -306 425 -286 q 211 -325 287 -325 q 89 -311 149 -325 q -24 -270 29 -298 l -24 -160 q 94 -213 33 -195 q 215 -231 155 -231 q 315 -218 267 -231 q 398 -178 362 -205 q 456 -111 435 -152 q 477 -14 477 -70 q 224 174 477 174 l 123 174 l 123 268 l 216 268 q 384 315 325 268 q 443 449 443 363 q 429 519 443 488 q 390 570 414 549 q 331 602 365 591 q 258 612 298 612 q 21 536 136 612 l 21 651 q 268 711 127 711 q 380 696 327 711 q 473 652 433 682 q 536 576 513 622 q 559 470 559 531 q 516 315 559 375 q 380 229 473 254 l 380 227 q 468 203 429 222 q 534 153 507 184 q 576 82 562 123 q 591 -7 591 41 z "},"Ⳏ":{"ha":850,"x_min":-67,"x_max":830,"o":"m 536 425 q 606 445 574 426 q 661 494 638 464 q 696 561 684 524 q 709 637 709 599 q 536 818 709 765 l 408 857 l 52 -319 l -67 -319 l 330 989 l 585 911 q 686 868 641 894 q 764 807 732 842 q 813 731 795 773 q 830 638 830 688 q 820 556 830 596 q 790 481 809 516 q 743 416 770 446 q 684 365 716 387 q 614 332 651 344 q 536 320 576 320 l 536 425 z "},"ⳏ":{"ha":700,"x_min":-77,"x_max":635,"o":"m 361 247 q 425 259 397 247 q 473 293 453 271 q 503 346 492 315 q 514 412 514 376 q 475 511 514 472 q 361 572 435 551 l 311 586 l 39 -319 l -77 -319 l 236 718 l 410 665 q 508 625 466 648 q 578 572 551 602 q 621 502 606 541 q 635 412 635 463 q 615 302 635 352 q 559 217 595 252 q 473 161 523 181 q 361 142 422 142 l 361 247 z "},"Ⳑ":{"ha":654,"x_min":127,"x_max":632,"o":"m 632 0 l 127 0 l 127 972 l 241 972 l 241 103 l 632 103 l 632 0 z "},"ⳑ":{"ha":534,"x_min":113,"x_max":515,"o":"m 515 0 l 113 0 l 113 694 l 224 694 l 224 95 l 515 95 l 515 0 z "},"Ⳓ":{"ha":793,"x_min":63,"x_max":728,"o":"m 63 494 q 104 839 63 689 q 223 1092 146 989 q 410 1246 300 1194 q 658 1299 520 1299 l 658 1191 q 469 1146 556 1191 q 318 1015 382 1102 q 218 799 254 928 q 182 500 182 670 q 199 312 182 391 q 245 184 215 234 q 318 110 275 134 q 414 87 361 87 q 490 100 454 87 q 552 139 526 113 q 594 207 578 166 q 609 302 609 248 q 589 396 609 357 q 541 460 570 435 q 480 496 512 485 q 424 508 448 508 l 424 606 q 536 585 481 606 q 633 524 591 564 q 702 429 676 485 q 728 302 728 372 q 704 169 728 228 q 638 69 680 110 q 538 6 595 28 q 414 -16 481 -16 q 267 16 332 -16 q 157 111 202 47 q 87 271 112 175 q 63 494 63 366 z "},"ⳓ":{"ha":787,"x_min":64,"x_max":722,"o":"m 64 439 q 91 637 64 551 q 162 788 118 724 q 263 897 206 852 q 382 969 321 942 q 504 1009 443 997 q 614 1021 564 1021 l 614 928 q 531 919 577 928 q 436 890 484 911 q 342 833 388 869 q 260 745 296 798 q 202 617 224 691 q 180 446 180 544 q 201 265 180 336 q 255 152 222 193 q 329 93 288 110 q 411 77 370 77 q 483 87 448 77 q 546 120 518 97 q 590 181 573 143 q 606 274 606 219 q 587 365 606 329 q 538 422 567 401 q 477 452 509 444 q 421 460 446 460 l 421 558 q 533 540 479 558 q 629 486 587 522 q 696 397 671 450 q 722 274 722 344 q 696 145 722 199 q 628 55 671 90 q 528 1 585 19 q 411 -16 472 -16 q 277 7 340 -16 q 167 84 214 31 q 92 225 120 138 q 64 439 64 312 z "},"Ⳕ":{"ha":543,"x_min":14,"x_max":465,"o":"m 14 869 l 285 1306 l 465 1195 l 404 1098 l 315 1154 l 197 972 l 404 972 l 404 0 l 290 0 l 290 869 l 14 869 z "},"ⳕ":{"ha":523,"x_min":14,"x_max":469,"o":"m 14 600 l 289 1043 l 469 932 l 408 835 l 319 890 l 192 694 l 408 694 l 408 0 l 297 0 l 297 600 l 14 600 z "},"Ⳗ":{"ha":761,"x_min":27,"x_max":739,"o":"m 739 197 l 378 197 q 370 125 378 163 q 339 56 361 87 q 281 4 317 24 q 192 -16 245 -16 q 117 -3 149 -16 q 66 31 86 9 q 37 80 46 52 q 27 136 27 107 q 40 201 27 171 q 77 254 53 231 q 138 289 102 276 q 220 302 174 302 l 264 302 l 264 972 l 378 972 l 378 302 l 739 302 l 739 197 m 221 197 q 150 179 174 197 q 127 132 127 161 q 144 91 127 107 q 192 75 162 75 q 229 86 215 75 q 251 113 243 96 q 262 152 259 130 q 264 197 264 174 l 221 197 z "},"ⳗ":{"ha":677,"x_min":27,"x_max":658,"o":"m 658 197 l 376 197 q 367 125 376 163 q 338 56 359 87 q 281 4 317 24 q 192 -16 245 -16 q 117 -3 149 -16 q 66 31 86 9 q 37 80 46 52 q 27 136 27 107 q 40 200 27 171 q 77 249 53 229 q 138 281 102 270 q 220 292 174 292 l 264 292 l 264 694 l 376 694 l 376 292 l 658 292 l 658 197 m 221 197 q 150 179 174 197 q 127 132 127 161 q 144 91 127 107 q 192 75 162 75 q 229 86 215 75 q 251 113 243 96 q 262 152 259 130 q 264 197 264 174 l 221 197 z "},"Ⳙ":{"ha":990,"x_min":127,"x_max":865,"o":"m 127 972 l 243 972 l 243 106 l 751 106 l 751 972 l 865 972 l 865 0 l 127 0 l 127 972 z "},"ⳙ":{"ha":802,"x_min":113,"x_max":689,"o":"m 113 694 l 224 694 l 224 95 l 578 95 l 578 694 l 689 694 l 689 0 l 113 0 l 113 694 z "},"Ⳛ":{"ha":827,"x_min":14,"x_max":814,"o":"m 814 0 l 14 0 l 14 33 l 353 685 l 219 943 l 317 989 l 814 33 l 814 0 m 310 372 l 604 197 l 412 572 l 310 372 m 172 103 l 560 103 l 260 275 l 172 103 z "},"ⳛ":{"ha":674,"x_min":14,"x_max":660,"o":"m 660 0 l 14 0 l 14 24 l 279 497 l 192 656 l 274 711 l 660 24 l 660 0 m 164 95 l 421 95 l 227 209 l 164 95 m 273 292 l 460 176 l 335 403 l 273 292 z "},"Ⳝ":{"ha":1047,"x_min":64,"x_max":1119,"o":"m 1119 1295 q 1108 1232 1119 1259 q 1076 1185 1097 1204 q 1027 1157 1056 1166 q 964 1147 999 1147 q 886 1161 922 1147 q 816 1191 850 1175 q 749 1221 782 1207 q 684 1234 717 1234 q 656 1230 671 1234 q 630 1216 642 1225 q 610 1190 618 1206 q 602 1152 602 1175 q 620 1076 602 1109 q 666 1014 638 1042 q 729 961 694 986 q 796 909 764 936 q 876 833 841 877 q 935 736 911 789 q 971 624 959 684 q 983 498 983 564 q 953 294 983 388 q 864 131 923 199 q 719 23 805 62 q 519 -16 632 -16 q 328 21 412 -16 q 185 124 243 58 q 95 280 126 191 q 64 475 64 370 q 95 680 64 586 q 185 843 125 774 q 334 950 245 911 q 536 989 422 989 q 545 989 541 989 q 554 988 549 989 q 505 1062 524 1023 q 487 1152 487 1102 q 505 1236 487 1202 q 550 1290 522 1270 q 611 1319 578 1310 q 677 1327 645 1327 q 752 1314 712 1327 q 830 1285 791 1301 q 902 1256 868 1269 q 960 1242 936 1242 q 989 1249 977 1242 q 1008 1267 1001 1256 q 1020 1294 1016 1279 q 1023 1327 1023 1310 l 1119 1295 m 528 886 q 380 853 444 886 q 272 766 315 821 q 205 639 228 711 q 183 485 183 566 q 204 333 183 405 q 268 205 226 260 q 374 118 311 151 q 519 86 437 86 q 672 116 607 86 q 779 199 736 146 q 843 325 822 252 q 864 483 864 397 q 844 642 864 568 q 784 770 825 715 q 679 855 743 824 q 528 886 615 886 z "},"ⳝ":{"ha":814,"x_min":65,"x_max":997,"o":"m 997 964 q 986 901 997 928 q 954 854 975 873 q 905 826 934 836 q 842 817 877 817 q 773 830 806 817 q 709 860 741 844 q 645 890 677 876 q 578 903 613 903 q 552 899 565 903 q 528 885 538 895 q 510 859 517 875 q 503 821 503 844 q 519 753 503 782 q 557 703 535 724 q 601 666 578 682 q 637 639 623 651 q 722 518 694 592 q 749 350 749 444 q 725 203 749 270 q 657 87 702 136 q 548 11 612 38 q 403 -16 484 -16 q 261 10 323 -16 q 155 84 199 37 q 88 196 111 131 q 65 339 65 261 q 89 492 65 423 q 158 609 113 560 q 269 684 203 658 q 419 711 335 711 l 420 711 q 396 762 405 735 q 388 821 388 789 q 405 905 388 871 q 448 959 421 939 q 507 988 474 979 q 571 996 539 996 q 648 983 610 996 q 722 954 687 970 q 787 925 757 938 q 838 911 817 911 q 867 918 854 911 q 886 937 879 925 q 898 963 894 948 q 901 996 901 979 l 997 964 m 411 617 q 308 596 352 617 q 236 537 264 574 q 193 451 208 500 q 179 343 179 401 q 194 238 179 287 q 237 154 208 190 q 310 98 267 118 q 411 77 353 77 q 577 147 519 77 q 635 346 635 216 q 577 547 635 477 q 411 617 519 617 z "},"Ⳟ":{"ha":655,"x_min":127,"x_max":632,"o":"m 496 0 l 127 0 l 127 972 l 632 972 l 632 867 l 242 867 l 242 106 l 496 106 l 496 0 z "},"ⳟ":{"ha":532,"x_min":113,"x_max":498,"o":"m 410 0 l 113 0 l 113 694 l 498 694 l 498 600 l 224 600 l 224 95 l 410 95 l 410 0 z "},"Ⳡ":{"ha":966,"x_min":56,"x_max":910,"o":"m 562 262 l 538 262 l 538 0 l 425 0 l 425 262 l 406 262 q 259 288 324 262 q 149 362 194 314 q 80 476 104 410 q 56 624 56 543 l 56 972 l 170 972 l 170 621 q 185 516 170 564 q 230 432 200 467 q 303 377 259 397 q 404 357 347 357 l 425 357 l 425 805 q 478 943 425 897 q 624 989 531 989 q 752 960 698 989 q 841 882 806 932 q 893 764 876 832 q 910 617 910 696 q 884 475 910 541 q 812 363 859 410 q 702 289 766 315 q 562 262 638 262 m 538 357 l 562 357 q 662 377 618 357 q 735 434 705 398 q 781 518 765 470 q 796 623 796 567 q 787 722 796 673 q 758 809 778 771 q 706 871 738 848 q 627 894 673 894 q 538 806 538 894 l 538 357 z "},"ⳡ":{"ha":818,"x_min":65,"x_max":753,"o":"m 463 0 l 351 0 l 351 228 l 332 228 q 222 238 272 228 q 138 277 173 248 q 84 356 103 305 q 65 488 65 407 l 65 694 l 178 694 l 178 486 q 189 396 178 429 q 221 347 201 363 q 270 327 241 331 q 331 323 298 323 l 351 323 l 351 520 q 366 602 351 566 q 407 662 380 637 q 469 698 433 686 q 547 711 505 711 q 639 693 600 711 q 703 646 678 676 q 741 573 728 615 q 753 481 753 531 q 730 356 753 405 q 670 278 707 307 q 584 239 632 250 q 486 228 536 228 l 463 228 l 463 0 m 463 323 l 486 323 q 546 329 518 323 q 595 353 574 335 q 627 402 616 370 q 639 487 639 435 q 635 525 639 503 q 620 567 631 547 q 592 602 610 587 q 547 616 574 616 q 484 591 505 616 q 463 522 463 566 l 463 323 z "},"Ⳣ":{"ha":877,"x_min":41,"x_max":863,"o":"m 478 867 l 155 867 l 155 761 l 41 761 l 41 972 l 863 972 l 863 761 l 749 761 l 749 867 l 593 867 l 593 486 q 642 432 620 463 q 679 362 663 401 q 703 276 694 323 q 711 171 711 228 q 696 22 711 87 q 654 -95 681 -44 q 591 -183 627 -146 q 512 -246 554 -220 q 424 -288 470 -272 q 333 -314 378 -304 q 243 -326 287 -323 q 161 -330 199 -330 l 161 -236 q 245 -233 198 -236 q 340 -219 292 -231 q 434 -182 388 -207 q 516 -113 480 -157 q 574 -1 552 -68 q 596 164 596 66 q 595 202 596 184 q 591 237 594 220 q 520 47 584 111 q 348 -16 457 -16 q 242 2 290 -16 q 160 56 195 20 q 107 145 126 92 q 88 269 88 198 q 111 397 88 342 q 172 488 133 452 q 264 541 211 524 q 378 559 317 559 q 429 555 404 559 q 478 546 454 552 l 478 867 m 378 466 q 310 456 342 466 q 254 422 277 446 q 217 361 231 399 q 203 269 203 323 q 217 177 203 214 q 251 120 231 141 q 298 90 272 98 q 348 81 323 81 q 396 90 372 81 q 437 120 419 98 q 467 177 456 141 q 478 269 478 214 l 478 439 q 429 459 454 453 q 378 466 404 466 z "},"ⳣ":{"ha":775,"x_min":27,"x_max":762,"o":"m 410 600 l 138 600 l 138 494 l 27 494 l 27 694 l 762 694 l 762 494 l 650 494 l 650 600 l 522 600 l 522 394 q 569 348 547 374 q 607 288 591 321 q 631 213 623 254 q 640 123 640 172 q 617 -52 640 22 q 556 -175 595 -125 q 468 -256 518 -226 q 363 -303 418 -286 q 251 -325 308 -319 q 144 -330 195 -330 l 144 -236 q 224 -233 181 -236 q 310 -218 267 -230 q 393 -184 353 -207 q 464 -122 433 -161 q 513 -25 495 -83 q 532 117 532 34 q 529 167 532 144 q 521 211 526 191 q 503 126 518 168 q 461 54 488 85 q 392 3 433 22 q 297 -16 351 -16 q 213 -2 253 -16 q 143 40 173 12 q 96 114 113 69 q 78 221 78 159 q 100 325 78 280 q 157 398 121 369 q 239 443 193 428 q 334 457 286 457 q 410 448 370 457 l 410 600 m 334 364 q 286 358 311 364 q 238 335 260 351 q 201 291 216 319 q 186 221 186 263 q 196 158 186 184 q 221 115 205 132 q 256 90 237 98 q 297 81 276 81 q 342 92 321 81 q 378 121 363 102 q 402 167 393 140 q 410 228 410 194 l 410 349 q 371 361 390 357 q 334 364 351 364 z "},"ⳤ":{"ha":728,"x_min":113,"x_max":749,"o":"m 319 339 l 223 236 l 223 0 l 113 0 l 113 694 l 223 694 l 223 357 l 410 568 q 527 681 488 658 q 597 704 565 704 q 669 699 647 704 l 669 601 q 614 606 647 606 q 472 500 570 606 l 394 416 l 610 130 q 648 92 629 106 q 694 77 667 77 q 749 87 723 77 l 749 -46 q 736 -126 749 -90 q 699 -189 723 -163 q 640 -231 675 -216 q 561 -245 605 -245 q 483 -229 518 -245 l 483 -130 q 558 -151 518 -151 q 621 -122 597 -151 q 644 -43 644 -92 l 644 -15 q 574 14 606 -9 q 518 70 543 37 l 319 339 z "},"⳥":{"ha":882,"x_min":113,"x_max":833,"o":"m 441 720 l 441 283 l 441 283 q 518 306 486 283 q 575 365 551 329 q 615 447 600 401 q 641 538 631 493 q 654 625 650 584 q 658 694 658 667 l 769 694 l 769 0 l 658 0 l 658 357 q 618 288 642 319 q 566 234 595 256 q 506 200 538 212 q 441 188 474 188 l 441 188 l 441 -319 l 327 -319 l 327 224 q 268 281 294 247 q 224 357 241 315 l 224 0 l 113 0 l 113 694 l 224 694 q 229 617 224 664 q 245 520 233 571 q 276 421 256 470 q 327 338 296 373 l 327 1244 l 506 1244 q 638 1227 578 1244 q 742 1180 699 1211 q 809 1102 785 1148 q 833 994 833 1055 q 806 877 833 928 q 731 791 779 825 q 619 738 684 756 q 481 720 555 720 l 441 720 m 441 1141 l 441 823 l 472 823 q 652 863 590 823 q 714 989 714 902 q 657 1104 714 1067 q 486 1141 601 1141 l 441 1141 z "},"⳦":{"ha":882,"x_min":113,"x_max":854,"o":"m 689 0 l 578 0 l 578 600 l 461 600 l 461 -319 l 347 -319 l 347 600 l 224 600 l 224 0 l 113 0 l 113 694 l 347 694 l 347 1244 l 526 1244 q 659 1227 598 1244 q 762 1180 719 1211 q 830 1102 806 1148 q 854 994 854 1055 q 826 877 854 928 q 751 791 799 825 q 640 738 704 756 q 501 720 575 720 l 461 720 l 461 694 l 689 694 l 689 0 m 461 1141 l 461 823 l 492 823 q 672 863 610 823 q 734 989 734 902 q 678 1104 734 1067 q 507 1141 621 1141 l 461 1141 z "},"⳧":{"ha":1509,"x_min":21,"x_max":1488,"o":"m 132 751 l 132 694 l 21 694 l 21 846 l 643 846 l 643 1244 l 883 1244 q 985 1236 938 1244 q 1068 1208 1033 1227 q 1123 1156 1103 1188 q 1143 1076 1143 1124 q 1123 986 1143 1021 q 1068 931 1103 951 q 985 904 1033 911 q 883 897 938 897 l 757 897 l 757 846 l 1488 846 l 1488 694 l 1377 694 l 1377 751 l 757 751 l 757 694 l 1188 694 q 1276 686 1234 694 q 1354 661 1318 677 l 1354 547 q 1188 600 1278 600 q 1085 579 1130 600 q 1009 523 1040 559 q 962 439 978 488 q 945 334 945 390 q 961 230 945 277 q 1006 149 976 182 q 1080 96 1036 115 q 1181 77 1124 77 q 1352 138 1272 77 l 1352 32 q 1162 -16 1272 -16 q 1025 9 1086 -16 q 921 79 964 34 q 854 186 878 124 q 831 324 831 249 q 857 481 831 411 q 932 600 883 551 l 757 600 l 757 -319 l 643 -319 l 643 600 l 587 600 l 587 547 q 512 586 551 572 q 431 600 473 600 q 320 579 368 600 q 241 523 273 559 q 195 439 210 488 q 179 334 179 390 q 194 230 179 277 q 239 149 210 182 q 313 96 269 115 q 415 77 357 77 q 586 138 505 77 l 586 32 q 396 -16 505 -16 q 259 9 320 -16 q 154 79 197 34 q 88 186 111 124 q 65 324 65 249 q 90 475 65 407 q 160 592 114 543 q 272 668 205 641 q 422 694 338 694 l 643 694 l 643 751 l 132 751 m 757 1141 l 757 1000 l 883 1000 q 941 1003 915 1000 q 985 1014 966 1006 q 1013 1035 1003 1021 q 1023 1070 1023 1048 q 1013 1105 1023 1091 q 985 1126 1003 1118 q 941 1138 966 1135 q 883 1141 915 1141 l 757 1141 z "},"⳨":{"ha":882,"x_min":27,"x_max":833,"o":"m 138 525 l 138 419 l 27 419 l 27 620 l 327 620 l 327 1244 l 506 1244 q 638 1227 578 1244 q 742 1180 699 1211 q 809 1102 785 1148 q 833 994 833 1055 q 806 877 833 928 q 731 791 779 825 q 619 738 684 756 q 481 720 555 720 l 441 720 l 441 620 l 762 620 l 762 419 l 650 419 l 650 525 l 441 525 l 441 -319 l 327 -319 l 327 525 l 138 525 m 441 1141 l 441 823 l 472 823 q 652 863 590 823 q 714 989 714 902 q 657 1104 714 1067 q 486 1141 601 1141 l 441 1141 z "},"⳩":{"ha":839,"x_min":14,"x_max":791,"o":"m 446 574 q 477 620 461 597 q 514 661 494 643 q 560 689 534 678 q 618 699 586 699 q 640 699 631 699 q 657 696 650 698 q 672 694 665 695 l 672 596 q 660 599 667 597 q 647 601 654 600 q 631 602 639 602 q 608 598 619 602 q 585 587 597 595 q 559 565 572 579 q 530 527 545 550 l 408 343 l 637 0 l 507 0 l 398 180 l 398 -319 l 284 -319 l 284 190 l 242 122 q 210 76 227 98 q 173 35 193 53 q 126 7 152 18 q 67 -3 100 -3 q 28 -1 42 -3 q 14 1 20 0 l 14 100 q 26 97 19 98 q 39 95 31 96 q 55 94 46 94 q 77 97 66 94 q 100 108 88 100 q 126 131 113 116 q 156 169 140 145 l 275 340 l 49 694 l 178 694 l 284 507 l 284 1244 l 463 1244 q 595 1227 535 1244 q 699 1180 656 1211 q 767 1102 743 1148 q 791 994 791 1055 q 763 877 791 928 q 688 791 736 825 q 576 738 641 756 q 438 720 512 720 l 398 720 l 398 492 l 446 574 m 398 1141 l 398 823 l 429 823 q 609 863 547 823 q 671 989 671 902 q 615 1104 671 1067 q 444 1141 558 1141 l 398 1141 z "},"⳪":{"ha":1408,"x_min":65,"x_max":1354,"o":"m 1352 32 q 1162 -16 1272 -16 q 923 80 1014 -16 q 831 331 831 177 q 930 606 831 503 q 940 617 935 612 l 659 617 l 661 615 q 749 350 749 519 q 655 84 749 184 q 403 -16 561 -16 q 157 81 249 -16 q 65 339 65 178 q 161 612 65 514 q 419 711 256 711 l 1192 711 q 1354 677 1284 711 l 1354 563 q 1188 617 1276 617 l 1183 617 q 1013 541 1080 615 q 945 340 945 465 q 1009 148 945 218 q 1181 77 1074 77 q 1352 138 1272 77 l 1352 32 m 411 617 q 241 544 304 617 q 179 343 179 471 q 242 149 179 220 q 411 77 305 77 q 577 147 519 77 q 635 346 635 217 q 577 547 635 476 q 411 617 519 617 z "},"Ⳬ":{"ha":1143,"x_min":53,"x_max":1090,"o":"m 296 472 q 118 540 182 472 q 53 725 53 608 q 122 917 53 848 q 307 986 192 986 q 481 919 417 986 q 545 735 545 851 q 477 543 545 614 q 296 472 410 472 m 301 911 q 187 863 229 911 q 144 728 144 814 q 185 596 144 644 q 300 549 225 549 q 413 597 371 549 q 454 729 454 646 q 413 863 454 814 q 301 911 372 911 m 842 472 q 664 540 728 472 q 599 725 599 608 q 668 917 599 848 q 852 986 738 986 q 1027 919 963 986 q 1090 735 1090 851 q 1023 543 1090 614 q 842 472 956 472 m 847 911 q 733 863 775 911 q 690 728 690 814 q 731 596 690 644 q 846 549 771 549 q 959 597 917 549 q 1000 729 1000 646 q 959 863 1000 814 q 847 911 918 911 m 976 418 l 1090 418 l 1090 254 l 168 254 l 168 196 l 53 196 l 53 360 l 976 360 l 976 418 z "},"ⳬ":{"ha":1143,"x_min":53,"x_max":1090,"o":"m 296 350 q 118 418 182 350 q 53 603 53 486 q 122 795 53 726 q 307 864 192 864 q 481 797 417 864 q 545 613 545 729 q 477 421 545 492 q 296 350 410 350 m 301 789 q 187 741 229 789 q 144 606 144 692 q 185 474 144 522 q 300 427 225 427 q 413 475 371 427 q 454 607 454 524 q 413 741 454 692 q 301 789 372 789 m 842 350 q 664 418 728 350 q 599 603 599 486 q 668 795 599 726 q 852 864 738 864 q 1027 797 963 864 q 1090 613 1090 729 q 1023 421 1090 492 q 842 350 956 350 m 847 789 q 733 741 775 789 q 690 606 690 692 q 731 474 690 522 q 846 427 771 427 q 959 475 917 427 q 1000 607 1000 524 q 959 741 1000 692 q 847 789 918 789 m 976 296 l 1090 296 l 1090 132 l 168 132 l 168 74 l 53 74 l 53 238 l 976 238 l 976 296 z "},"Ⳮ":{"ha":986,"x_min":127,"x_max":859,"o":"m 859 0 l 745 0 l 745 131 l 490 425 l 241 137 l 241 0 l 127 0 l 127 972 l 241 972 l 241 839 l 490 550 l 745 845 l 745 972 l 859 972 l 859 0 m 745 256 l 745 720 l 544 488 l 745 256 m 241 713 l 241 262 l 436 488 l 241 713 z "},"ⳮ":{"ha":802,"x_min":113,"x_max":689,"o":"m 689 0 l 578 0 l 578 114 l 399 293 l 224 117 l 224 0 l 113 0 l 113 694 l 224 694 l 224 585 l 399 408 l 578 587 l 578 694 l 689 694 l 689 0 m 578 229 l 578 471 l 457 351 l 578 229 m 224 469 l 224 232 l 342 351 l 224 469 z "},"⳯":{"ha":0,"x_min":-115,"x_max":804,"o":"m 689 867 l -115 867 l -115 1031 l -1 1031 l -1 972 l 804 972 l 804 808 l 689 808 l 689 867 z "},"⳰":{"ha":0,"x_min":-339,"x_max":339,"o":"m 339 1149 l -176 1149 q -187 1142 -183 1149 q -195 1124 -191 1135 q -205 1100 -199 1113 q -220 1076 -210 1087 q -245 1058 -230 1065 q -285 1050 -261 1050 q -301 1053 -295 1050 q -310 1059 -307 1056 q -315 1069 -313 1063 q -327 1072 -321 1069 q -335 1079 -332 1074 q -339 1092 -339 1083 q -335 1131 -339 1113 q -325 1162 -330 1148 q -310 1190 -318 1177 q -325 1218 -318 1202 q -335 1249 -330 1232 q -339 1288 -339 1267 q -335 1301 -339 1296 q -327 1308 -332 1305 q -315 1311 -321 1310 q -310 1320 -313 1316 q -301 1326 -307 1323 q -285 1329 -295 1329 q -245 1322 -261 1329 q -220 1303 -230 1314 q -205 1280 -210 1293 q -195 1256 -199 1267 q -187 1238 -191 1245 q -176 1230 -183 1230 l 339 1230 l 339 1149 z "},"⳱":{"ha":0,"x_min":-339,"x_max":339,"o":"m -339 1230 l 176 1230 q 187 1238 183 1230 q 195 1256 191 1245 q 205 1280 199 1267 q 220 1303 210 1293 q 245 1322 230 1314 q 285 1329 261 1329 q 301 1326 295 1329 q 310 1320 307 1323 q 315 1311 313 1316 q 327 1308 321 1310 q 335 1301 332 1305 q 339 1288 339 1296 q 334 1249 339 1267 q 324 1218 330 1232 q 310 1190 317 1202 q 324 1162 317 1177 q 334 1131 330 1148 q 339 1092 339 1113 q 335 1079 339 1083 q 327 1072 332 1074 q 315 1069 321 1069 q 310 1059 313 1063 q 301 1053 307 1056 q 285 1050 295 1050 q 245 1058 261 1050 q 220 1076 230 1065 q 205 1100 210 1087 q 195 1124 199 1113 q 187 1142 191 1135 q 176 1149 183 1149 l -339 1149 l -339 1230 z "},"Ⳳ":{"ha":989,"x_min":125,"x_max":925,"o":"m 327 878 l 448 1164 l 391 1188 l 435 1295 l 586 1232 l 484 986 q 513 988 498 987 q 547 989 529 989 q 671 970 616 989 q 768 919 726 951 q 840 841 810 886 q 889 744 870 796 q 916 634 907 692 q 925 518 925 576 q 918 378 925 446 q 892 251 910 310 q 844 142 873 191 q 769 58 814 93 q 663 3 724 22 q 521 -16 602 -16 q 354 9 427 -16 q 229 85 280 35 q 152 212 178 136 q 125 389 125 288 l 125 867 l 239 867 l 239 395 q 314 163 239 241 q 526 86 389 86 q 628 102 585 86 q 703 146 671 118 q 755 214 734 175 q 787 301 775 254 q 804 401 799 348 q 808 509 808 454 q 788 681 808 610 q 730 798 767 753 q 641 865 692 844 q 528 886 589 886 q 454 883 490 886 q 389 876 418 880 q 327 867 356 872 l 327 878 z "},"ⳳ":{"ha":775,"x_min":98,"x_max":709,"o":"m 274 610 l 381 859 l 323 884 l 363 983 l 515 920 l 428 711 q 528 695 485 710 q 603 654 572 680 q 655 593 634 628 q 687 520 675 559 q 704 440 699 481 q 709 361 709 399 q 689 213 709 281 q 628 93 669 144 q 526 13 587 42 q 382 -16 464 -16 q 98 286 98 -16 l 98 600 l 208 600 l 208 296 q 389 77 208 77 q 487 100 447 77 q 551 162 526 123 q 586 251 575 201 q 597 357 597 302 q 548 551 597 484 q 406 618 500 618 q 353 615 377 618 q 312 609 330 612 q 274 600 291 605 l 274 610 z "},"⳹":{"ha":1160,"x_min":14,"x_max":1160,"o":"m 176 774 q 142 823 157 803 q 115 856 128 844 q 90 874 102 869 q 61 880 77 880 q 41 878 50 880 q 26 874 32 876 q 14 868 18 871 l 14 966 q 30 972 20 969 q 50 976 38 974 q 79 978 62 978 q 132 969 107 978 q 178 944 156 961 q 221 902 200 927 q 264 843 242 876 l 827 0 l 689 0 l 176 774 m 508 774 q 475 823 489 803 q 448 856 460 844 q 422 874 435 869 q 393 880 410 880 q 373 878 382 880 q 358 874 364 876 q 346 868 351 871 l 346 966 q 362 972 353 969 q 382 976 370 974 q 411 978 394 978 q 464 969 439 978 q 510 944 488 961 q 553 902 532 927 q 597 843 574 876 l 1160 0 l 1021 0 l 508 774 z "},"⳺":{"ha":827,"x_min":0,"x_max":814,"o":"m 138 0 l 0 0 l 563 843 q 606 902 585 876 q 649 944 627 927 q 696 969 671 961 q 749 978 720 978 q 777 976 765 978 q 798 972 789 974 q 814 966 807 969 l 814 868 q 802 874 809 871 q 787 878 795 876 q 766 880 778 880 q 738 874 750 880 q 712 856 725 869 q 685 823 699 844 q 652 774 671 803 l 138 0 m 445 -15 q 391 7 413 -15 q 368 61 368 30 q 391 115 368 92 q 445 138 413 138 q 498 115 476 138 q 520 61 520 92 q 498 7 520 30 q 445 -15 476 -15 z "},"⳻":{"ha":827,"x_min":14,"x_max":827,"o":"m 176 774 q 142 823 157 803 q 115 856 128 844 q 90 874 102 869 q 61 880 77 880 q 41 878 50 880 q 26 874 32 876 q 14 868 18 871 l 14 966 q 30 972 20 969 q 50 976 38 974 q 79 978 62 978 q 132 969 107 978 q 178 944 156 961 q 221 902 200 927 q 264 843 242 876 l 827 0 l 689 0 l 176 774 m 382 -15 q 329 7 351 -15 q 307 61 307 30 q 329 115 307 92 q 382 138 351 138 q 437 115 414 138 q 459 61 459 92 q 437 7 459 30 q 382 -15 414 -15 z "},"⳼":{"ha":1160,"x_min":0,"x_max":1146,"o":"m 471 0 l 332 0 l 895 843 q 939 902 918 876 q 982 944 960 927 q 1028 969 1004 961 q 1081 978 1053 978 q 1109 976 1097 978 q 1130 972 1122 974 q 1146 966 1139 969 l 1146 868 q 1134 874 1141 871 q 1119 878 1128 876 q 1099 880 1110 880 q 1070 874 1082 880 q 1044 856 1057 869 q 1017 823 1031 844 q 984 774 1003 803 l 471 0 m 138 0 l 0 0 l 563 843 q 606 902 585 876 q 649 944 627 927 q 696 969 671 961 q 749 978 720 978 q 777 976 765 978 q 798 972 789 974 q 814 966 807 969 l 814 868 q 802 874 809 871 q 787 878 795 876 q 766 880 778 880 q 738 874 750 880 q 712 856 725 869 q 685 823 699 844 q 652 774 671 803 l 138 0 z "},"⳽":{"ha":509,"x_min":50,"x_max":458,"o":"m 50 -2 l 50 97 q 68 87 58 91 q 88 80 76 83 q 115 77 100 77 q 153 83 132 77 q 195 99 174 89 q 237 121 216 109 q 274 146 258 133 q 299 172 290 159 q 309 195 309 185 q 295 230 309 209 q 260 276 281 250 q 216 330 240 301 q 171 390 191 359 q 137 450 151 420 q 123 508 123 480 q 136 558 123 533 q 171 606 149 583 q 222 647 193 628 q 281 681 250 667 q 342 703 311 694 q 399 711 372 711 q 424 709 413 711 q 443 705 435 707 q 458 700 452 703 l 458 606 q 441 612 450 609 q 421 615 433 614 q 399 617 410 617 q 343 605 372 617 q 291 576 315 593 q 252 543 267 559 q 237 516 237 526 q 251 485 237 506 q 285 436 264 464 q 330 378 305 409 q 374 316 354 347 q 409 256 395 285 q 422 206 422 228 q 410 157 422 182 q 375 107 397 132 q 323 60 353 82 q 259 20 294 37 q 189 -6 225 3 q 116 -16 152 -16 q 90 -14 102 -16 q 69 -9 78 -12 q 50 -2 59 -7 z "},"⳾":{"ha":579,"x_min":27,"x_max":552,"o":"m 475 197 q 446 203 460 197 q 422 220 433 210 q 406 244 412 230 q 400 273 400 258 q 406 303 400 289 q 422 327 412 317 q 446 344 433 338 q 475 350 460 350 q 505 344 491 350 q 529 327 519 338 q 546 303 540 317 q 552 273 552 289 q 546 244 552 258 q 529 220 540 230 q 505 203 519 210 q 475 197 491 197 m 286 109 l 186 503 l 345 544 l 374 433 l 317 418 l 417 25 l 258 -16 l 230 95 l 286 109 m 102 197 q 73 203 87 197 q 50 220 60 210 q 33 244 39 230 q 27 273 27 258 q 33 303 27 289 q 50 327 39 317 q 73 344 60 338 q 102 350 87 350 q 132 344 118 350 q 156 327 146 338 q 173 303 167 317 q 179 273 179 289 q 173 244 179 258 q 156 220 167 230 q 132 203 146 210 q 102 197 118 197 z "},"⳿":{"ha":814,"x_min":281,"x_max":534,"o":"m 281 987 q 303 1041 281 1020 q 361 1063 325 1063 q 432 1042 400 1063 q 487 984 464 1021 q 522 899 509 948 q 534 793 534 850 l 534 758 l 484 758 q 467 888 484 848 q 410 928 450 928 q 377 924 395 928 q 343 920 359 920 q 299 939 317 920 q 281 987 281 957 z "},"Ⰰ":{"ha":840,"x_min":64,"x_max":776,"o":"m 477 972 l 477 538 l 776 538 l 776 243 l 662 243 l 662 435 l 477 435 l 477 0 l 363 0 l 363 435 l 178 435 l 178 243 l 64 243 l 64 538 l 363 538 l 363 972 l 477 972 z "},"Ⰱ":{"ha":954,"x_min":127,"x_max":840,"o":"m 127 0 l 127 972 l 241 972 l 241 569 l 427 569 l 427 972 l 541 972 l 541 569 l 726 569 l 726 972 l 840 972 l 840 466 l 241 466 l 241 103 l 726 103 l 769 171 l 785 171 l 840 0 l 127 0 z "},"Ⰲ":{"ha":1396,"x_min":64,"x_max":1333,"o":"m 1333 706 q 1310 596 1333 648 q 1250 506 1288 545 q 1160 446 1211 468 q 1050 423 1108 423 q 956 439 999 423 q 976 393 966 416 q 994 347 986 370 q 1006 297 1002 323 q 1010 245 1010 272 q 992 143 1010 191 q 935 60 973 96 q 837 4 896 24 q 699 -17 779 -17 q 559 4 618 -17 q 462 60 500 24 q 405 143 423 96 q 386 245 386 191 q 390 297 386 272 q 402 347 395 323 q 420 393 410 370 q 441 439 430 416 q 347 423 396 423 q 237 446 288 423 q 147 506 185 468 q 86 596 109 545 q 64 706 64 648 q 86 816 64 764 q 147 906 109 867 q 237 966 185 944 q 347 989 288 989 q 456 966 405 989 q 546 906 508 944 q 607 815 585 867 q 629 705 629 764 q 620 612 629 654 q 596 532 610 570 q 565 460 581 494 q 533 393 548 427 q 509 323 519 359 q 500 249 500 288 q 516 172 500 204 q 559 118 532 140 q 622 87 586 97 q 698 77 658 77 q 774 87 738 77 q 838 118 810 97 q 881 172 865 140 q 897 249 897 204 q 887 323 897 288 q 863 393 878 359 q 832 462 848 427 q 801 534 815 496 q 776 613 786 572 q 766 705 766 655 q 789 816 766 764 q 850 906 811 868 q 940 967 888 945 q 1050 989 991 989 q 1160 966 1108 989 q 1250 906 1211 944 q 1310 816 1288 867 q 1333 706 1333 764 m 1221 705 q 1207 771 1221 740 q 1170 826 1194 803 q 1115 863 1147 850 q 1048 877 1084 877 q 982 863 1013 877 q 927 826 951 850 q 890 771 904 803 q 877 705 877 740 q 893 636 879 667 q 930 582 907 604 q 984 546 954 559 q 1048 533 1014 533 q 1115 547 1084 533 q 1170 584 1147 560 q 1207 638 1194 607 q 1221 705 1221 669 m 519 705 q 506 771 519 740 q 469 826 492 803 q 414 863 446 850 q 347 877 382 877 q 281 863 312 877 q 226 826 250 850 q 189 771 203 803 q 176 705 176 740 q 192 636 178 667 q 229 582 206 604 q 282 546 252 559 q 347 533 313 533 q 414 547 382 533 q 469 584 446 560 q 506 638 492 607 q 519 705 519 669 z "},"Ⰳ":{"ha":1202,"x_min":64,"x_max":1138,"o":"m 64 706 q 86 816 64 764 q 147 906 109 867 q 237 966 185 944 q 347 989 288 989 q 456 966 405 989 q 546 906 508 944 q 607 816 585 867 q 629 706 629 764 q 625 660 629 684 q 614 616 621 636 l 513 369 l 592 369 q 634 441 608 408 q 694 498 660 474 q 769 535 728 522 q 855 549 810 549 q 965 526 913 549 q 1055 466 1017 504 q 1116 376 1093 427 q 1138 266 1138 324 q 1116 156 1138 208 q 1055 66 1093 104 q 965 5 1017 28 q 855 -17 913 -17 q 745 5 797 -17 q 655 66 694 28 q 595 156 617 104 q 572 266 572 208 l 471 266 l 363 1 l 259 1 l 437 438 q 393 427 415 431 q 347 423 370 423 q 237 446 288 423 q 147 506 185 468 q 86 596 109 545 q 64 706 64 648 m 684 264 q 698 198 684 229 q 735 143 711 167 q 789 106 758 120 q 857 93 821 93 q 923 106 892 93 q 978 143 954 120 q 1015 198 1001 167 q 1028 264 1028 229 q 1015 331 1028 300 q 978 386 1001 363 q 923 423 954 410 q 857 437 892 437 q 789 423 821 437 q 735 386 758 410 q 698 331 711 363 q 684 264 684 300 m 519 705 q 506 771 519 740 q 469 826 492 803 q 414 863 446 850 q 347 877 382 877 q 281 863 312 877 q 226 826 250 850 q 189 771 203 803 q 176 705 176 740 q 192 636 178 667 q 229 582 206 604 q 282 546 252 559 q 347 533 313 533 q 414 547 382 533 q 469 584 446 560 q 506 638 492 607 q 519 705 519 669 z "},"Ⰴ":{"ha":1396,"x_min":64,"x_max":1333,"o":"m 1333 266 q 1310 156 1333 208 q 1250 66 1288 104 q 1160 5 1211 28 q 1050 -17 1108 -17 q 940 5 991 -17 q 850 65 888 27 q 789 156 811 104 q 766 267 766 208 q 776 358 766 316 q 801 438 786 400 q 832 510 815 475 q 863 579 848 545 q 887 648 878 613 q 897 723 897 684 q 881 800 897 768 q 838 853 865 832 q 774 885 810 875 q 698 895 738 895 q 622 885 658 895 q 559 853 586 875 q 516 800 532 832 q 500 723 500 768 q 509 648 500 684 q 533 579 519 613 q 565 511 548 545 q 596 440 581 477 q 620 360 610 402 q 629 267 629 317 q 607 156 629 208 q 546 66 585 104 q 456 5 508 28 q 347 -17 405 -17 q 237 5 288 -17 q 147 66 185 28 q 86 156 109 104 q 64 266 64 208 q 86 376 64 324 q 147 466 109 427 q 237 526 185 504 q 347 549 288 549 q 441 532 396 549 q 402 625 419 578 q 386 727 386 672 q 405 828 386 781 q 462 912 423 876 q 559 968 500 947 q 699 989 618 989 q 837 968 779 989 q 935 912 896 947 q 992 828 973 876 q 1010 727 1010 781 q 994 625 1010 672 q 956 532 977 578 q 1050 549 999 549 q 1160 526 1108 549 q 1250 466 1211 504 q 1310 376 1288 427 q 1333 266 1333 324 m 1221 267 q 1207 334 1221 302 q 1170 388 1194 365 q 1115 425 1147 412 q 1048 439 1084 439 q 984 426 1014 439 q 930 390 954 413 q 893 336 907 368 q 877 267 879 304 q 890 200 877 231 q 927 145 904 169 q 982 109 951 122 q 1048 95 1013 95 q 1115 109 1084 95 q 1170 145 1147 122 q 1207 200 1194 169 q 1221 267 1221 231 m 519 267 q 506 334 519 302 q 469 388 492 365 q 414 425 446 412 q 347 439 382 439 q 282 426 313 439 q 229 390 252 413 q 192 336 206 368 q 176 267 178 304 q 189 200 176 231 q 226 145 203 169 q 281 109 250 122 q 347 95 312 95 q 414 109 382 95 q 469 145 446 122 q 506 200 492 169 q 519 267 519 231 z "},"Ⰵ":{"ha":750,"x_min":64,"x_max":629,"o":"m 519 706 q 506 772 519 741 q 469 827 492 804 q 414 864 446 850 q 347 877 382 877 q 281 864 312 877 q 226 827 250 850 q 189 772 203 804 q 176 706 176 741 l 64 706 q 86 816 64 764 q 147 906 109 867 q 237 966 185 944 q 347 989 288 989 q 456 967 405 989 q 546 906 508 945 q 607 817 585 868 q 629 706 629 765 l 629 266 q 607 155 629 207 q 546 65 585 104 q 456 5 508 27 q 347 -17 405 -17 q 237 5 288 -17 q 147 66 185 28 q 86 156 109 104 q 64 266 64 208 l 176 266 q 189 199 176 230 q 226 145 203 168 q 281 108 250 121 q 347 95 312 95 q 414 108 382 95 q 469 145 446 121 q 506 199 492 168 q 519 266 519 230 l 519 327 l 253 327 l 253 422 l 519 422 l 519 547 l 253 547 l 253 642 l 519 642 l 519 706 z "},"Ⰶ":{"ha":1367,"x_min":64,"x_max":1303,"o":"m 564 549 q 513 764 564 675 q 364 901 461 852 q 394 945 381 926 q 424 989 407 965 q 533 913 485 957 q 615 815 581 870 q 666 693 648 760 q 684 549 684 627 q 701 693 684 627 q 752 815 719 760 q 834 913 786 870 q 943 989 882 957 q 973 945 960 965 q 1003 901 986 926 q 854 764 906 852 q 803 549 803 675 l 1021 549 q 1131 526 1079 549 q 1220 465 1182 504 q 1281 375 1259 427 q 1303 264 1303 323 q 1281 155 1303 206 q 1220 65 1259 103 q 1131 5 1182 27 q 1021 -17 1079 -17 q 911 5 962 -17 q 821 65 859 27 q 760 155 783 103 q 738 264 738 206 q 755 362 738 316 q 803 446 772 408 l 564 446 q 612 362 594 408 q 629 264 629 316 q 607 155 629 206 q 546 65 585 103 q 456 5 508 27 q 347 -17 405 -17 q 237 5 288 -17 q 147 65 185 27 q 86 155 109 103 q 64 264 64 206 q 86 375 64 323 q 147 465 109 427 q 237 526 185 504 q 347 549 288 549 l 564 549 m 850 264 q 863 198 850 229 q 900 143 877 167 q 955 106 924 120 q 1022 93 986 93 q 1088 106 1057 93 q 1143 143 1120 120 q 1180 198 1166 167 q 1194 264 1194 229 q 1180 331 1194 300 q 1143 386 1166 363 q 1088 423 1120 410 q 1022 437 1057 437 q 955 423 986 437 q 900 386 924 410 q 863 331 877 363 q 850 264 850 300 m 176 264 q 189 198 176 229 q 226 143 203 167 q 281 106 250 120 q 348 93 312 93 q 414 106 383 93 q 469 143 446 120 q 506 198 492 167 q 519 264 519 229 q 506 331 519 300 q 469 386 492 363 q 414 423 446 410 q 348 437 383 437 q 281 423 312 437 q 226 386 250 410 q 189 331 203 363 q 176 264 176 300 z "},"Ⰷ":{"ha":983,"x_min":16,"x_max":967,"o":"m 967 505 l 967 492 l 552 0 l 431 0 l 16 492 l 16 505 l 571 505 q 588 559 582 532 q 593 612 593 586 q 572 598 585 606 q 540 583 559 590 q 497 570 522 575 q 441 564 473 564 q 369 576 407 564 q 298 612 330 587 q 245 677 266 637 q 224 772 224 717 q 248 882 224 838 q 306 952 271 926 q 382 991 340 979 q 463 1002 425 1002 q 581 976 534 1002 q 656 904 628 950 q 695 796 684 859 q 706 660 706 733 q 699 582 706 621 q 678 505 692 543 l 967 505 m 456 908 q 413 901 434 908 q 375 879 392 893 q 349 841 359 864 q 338 788 338 819 q 349 728 338 752 q 378 690 360 704 q 418 669 395 675 q 463 663 440 663 q 503 670 482 663 q 541 692 524 677 q 570 728 558 706 q 581 780 581 750 q 572 838 581 814 q 545 878 562 863 q 505 901 528 894 q 456 908 482 908 m 492 93 l 743 401 l 631 401 q 543 274 594 334 q 433 165 492 214 l 492 93 m 516 401 l 241 401 l 370 243 q 448 317 411 277 q 516 401 486 357 z "},"Ⰸ":{"ha":1312,"x_min":64,"x_max":1269,"o":"m 418 989 q 582 897 508 957 q 644 838 613 871 q 701 760 675 804 q 745 662 727 716 q 769 541 763 607 l 1047 541 q 1149 520 1107 541 q 1218 465 1191 500 q 1257 383 1244 430 q 1269 283 1269 336 q 1254 159 1269 214 q 1210 66 1239 104 q 1136 7 1180 28 q 1033 -13 1092 -13 q 929 7 973 -13 q 856 66 885 28 q 812 159 827 104 q 798 283 798 214 l 798 444 l 770 444 q 747 319 765 375 q 704 217 730 262 q 648 137 679 172 q 585 77 616 102 q 418 -16 510 16 q 241 85 318 18 q 176 151 208 113 q 119 238 144 189 q 79 349 94 288 q 64 486 64 411 q 79 622 64 561 q 119 733 94 684 q 176 820 144 782 q 241 887 208 859 q 418 989 318 954 m 418 100 q 526 170 477 124 q 568 216 547 190 q 605 276 588 242 q 634 351 623 309 q 650 444 646 393 l 184 444 q 200 351 189 393 q 230 276 212 309 q 268 216 247 242 q 309 170 288 190 q 418 100 358 124 m 418 872 q 312 797 359 844 q 271 751 292 777 q 234 694 251 726 q 203 624 216 663 q 186 541 191 586 l 649 541 q 631 624 644 586 q 601 694 618 663 q 564 751 584 726 q 523 797 543 777 q 418 872 475 844 m 911 444 l 911 283 q 918 200 911 237 q 938 137 924 163 q 976 98 952 111 q 1034 84 999 84 q 1089 98 1066 84 q 1127 137 1112 111 q 1148 200 1141 163 q 1155 283 1155 237 q 1148 351 1155 321 q 1128 401 1142 380 q 1093 433 1115 422 q 1040 444 1071 444 l 911 444 z "},"Ⰹ":{"ha":1388,"x_min":43,"x_max":1344,"o":"m 890 688 q 904 622 890 653 q 941 567 918 591 q 996 530 964 544 q 1063 517 1027 517 q 1129 530 1098 517 q 1184 567 1160 544 q 1221 622 1207 591 q 1234 688 1234 653 q 1221 755 1234 724 q 1184 810 1207 787 q 1129 847 1160 833 q 1063 861 1098 861 q 996 847 1027 861 q 941 810 964 833 q 904 755 918 787 q 890 688 890 724 m 155 688 q 169 622 155 653 q 206 567 182 591 q 260 530 229 544 q 328 517 292 517 q 394 530 363 517 q 449 567 425 544 q 486 622 472 591 q 499 688 499 653 q 486 755 499 724 q 449 810 472 787 q 394 847 425 833 q 328 861 363 861 q 260 847 292 861 q 206 810 229 833 q 169 755 182 787 q 155 688 155 724 m 555 875 l 693 689 l 831 875 l 555 875 m 750 98 l 845 98 l 845 0 l 541 0 l 541 98 l 636 98 l 636 661 q 604 600 621 630 q 572 547 589 574 q 538 502 555 520 q 445 432 500 458 q 326 407 390 407 q 216 429 268 407 q 126 489 165 451 q 66 578 88 527 q 43 688 43 630 q 66 799 43 747 q 126 889 88 850 q 216 950 165 928 q 326 972 268 972 l 1061 972 q 1171 950 1120 972 q 1261 889 1223 928 q 1322 799 1299 850 q 1344 688 1344 747 q 1322 578 1344 630 q 1261 489 1299 527 q 1171 429 1223 451 q 1060 407 1119 407 q 941 432 996 407 q 848 502 886 458 q 814 547 831 520 q 783 600 797 574 q 750 661 766 630 l 750 98 z "},"Ⰺ":{"ha":1388,"x_min":43,"x_max":1344,"o":"m 280 0 l 280 12 l 636 543 l 636 647 q 604 593 621 620 q 572 545 589 570 q 538 502 554 519 q 445 432 500 458 q 326 407 390 407 q 216 429 268 407 q 126 489 165 451 q 66 578 88 527 q 43 688 43 630 q 66 799 43 747 q 126 889 88 850 q 216 950 165 928 q 326 972 268 972 l 1061 972 q 1171 950 1120 972 q 1261 889 1223 928 q 1322 799 1299 850 q 1344 688 1344 747 q 1322 578 1344 630 q 1261 489 1299 527 q 1171 429 1223 451 q 1060 407 1119 407 q 941 432 996 407 q 848 502 886 458 q 814 545 831 519 q 783 593 797 570 q 750 647 766 620 l 750 546 l 1109 12 l 1109 0 l 280 0 m 890 688 q 904 622 890 653 q 941 567 918 591 q 996 530 964 544 q 1063 517 1027 517 q 1129 530 1098 517 q 1184 567 1160 544 q 1221 622 1207 591 q 1234 688 1234 653 q 1221 755 1234 724 q 1184 810 1207 787 q 1129 847 1160 833 q 1063 861 1098 861 q 996 847 1027 861 q 941 810 964 833 q 904 755 918 787 q 890 688 890 724 m 155 688 q 169 622 155 653 q 206 567 182 591 q 260 530 229 544 q 328 517 292 517 q 394 530 363 517 q 449 567 425 544 q 486 622 472 591 q 499 688 499 653 q 486 755 499 724 q 449 810 472 787 q 394 847 425 833 q 328 861 363 861 q 260 847 292 861 q 206 810 229 833 q 169 755 182 787 q 155 688 155 724 m 486 103 l 906 103 l 696 439 l 486 103 m 555 875 l 693 662 l 831 875 l 555 875 z "},"Ⰻ":{"ha":916,"x_min":64,"x_max":852,"o":"m 852 972 l 852 960 l 616 640 q 706 601 663 627 q 781 536 749 575 q 833 445 814 497 q 852 326 852 392 q 824 180 852 244 q 744 73 796 117 q 620 6 692 29 q 458 -16 547 -16 q 297 6 370 -16 q 172 73 224 29 q 92 180 120 117 q 64 326 64 244 q 83 445 64 392 q 135 536 102 497 q 210 601 168 575 q 300 640 253 627 l 64 960 l 64 972 l 852 972 m 458 77 q 576 94 524 77 q 665 142 629 111 q 720 220 701 174 q 739 326 739 267 q 725 408 739 371 q 686 474 711 446 q 627 522 661 503 q 551 552 593 542 l 465 435 l 452 435 l 366 552 q 290 522 324 542 q 230 474 255 503 q 192 408 205 446 q 178 326 178 371 q 197 220 178 267 q 252 142 216 174 q 339 94 288 111 q 458 77 391 77 m 458 608 l 641 869 l 275 869 l 458 608 z "},"Ⰼ":{"ha":1107,"x_min":64,"x_max":1043,"o":"m 890 0 l 720 535 q 661 505 688 524 q 613 459 633 486 q 583 396 593 431 q 572 316 572 360 q 577 239 572 279 q 599 146 583 199 l 641 0 l 514 0 l 300 823 l 297 823 l 181 304 l 251 0 l 128 0 l 64 300 l 237 972 l 363 972 l 525 404 q 537 469 525 435 q 570 531 549 502 q 621 584 591 561 q 687 618 651 607 l 696 621 l 665 722 q 658 764 659 743 q 656 804 656 785 q 671 876 656 842 q 712 935 686 910 q 773 975 738 960 q 851 989 809 989 q 934 971 898 989 q 994 925 970 954 q 1030 862 1018 897 q 1043 791 1043 827 q 1031 722 1043 755 q 998 661 1019 688 q 951 614 978 633 q 894 586 924 594 l 823 566 l 1010 0 l 890 0 m 798 650 l 872 672 q 904 693 891 678 q 925 725 918 707 q 936 762 932 743 q 939 793 939 780 q 932 829 939 812 q 914 858 926 846 q 886 877 902 870 q 852 884 871 884 q 819 877 835 884 q 790 857 802 869 q 770 827 777 844 q 762 791 762 810 q 768 751 762 772 l 798 650 z "},"Ⰽ":{"ha":591,"x_min":114,"x_max":527,"o":"m 114 0 l 114 374 l 413 374 l 413 611 l 114 611 l 114 972 l 228 972 l 228 714 l 527 714 l 527 271 l 228 271 l 228 0 l 114 0 z "},"Ⰾ":{"ha":1396,"x_min":64,"x_max":1333,"o":"m 1010 727 q 1007 678 1010 701 q 998 636 1004 656 q 985 597 992 616 q 971 562 978 579 q 1108 538 1042 557 q 1223 483 1173 519 q 1303 393 1273 447 q 1333 266 1333 340 q 1310 156 1333 208 q 1250 66 1288 104 q 1160 5 1211 28 q 1050 -17 1108 -17 q 940 5 991 -17 q 850 66 888 28 q 789 156 812 104 q 767 267 767 208 q 782 384 767 332 q 818 481 798 435 q 758 484 790 483 q 698 486 726 486 q 637 484 669 486 q 578 481 606 483 q 614 384 599 435 q 629 267 629 332 q 607 156 629 208 q 546 66 585 104 q 456 5 508 28 q 347 -17 405 -17 q 237 5 288 -17 q 147 66 185 28 q 86 156 109 104 q 64 266 64 208 q 94 393 64 340 q 173 483 123 447 q 289 538 223 519 q 425 562 354 557 q 411 597 418 579 q 398 636 404 616 q 389 678 393 656 q 386 727 386 701 q 405 828 386 781 q 462 912 423 876 q 559 968 500 947 q 698 989 618 989 q 837 968 778 989 q 935 912 896 947 q 992 828 973 876 q 1010 727 1010 781 m 859 571 q 886 644 875 607 q 897 723 897 681 q 881 800 897 768 q 838 853 865 832 q 774 885 810 875 q 698 895 738 895 q 622 885 658 895 q 559 853 586 875 q 516 800 532 832 q 500 723 500 768 q 511 644 500 681 q 537 571 522 607 q 571 573 552 572 q 612 575 591 574 q 656 577 634 576 q 698 578 678 578 q 740 577 718 578 q 784 575 762 576 q 825 573 806 574 q 859 571 844 572 m 519 267 q 514 332 519 302 q 500 385 509 361 q 482 430 492 410 q 463 471 472 451 q 405 464 437 468 q 342 451 374 460 q 280 428 310 442 q 227 392 250 414 q 190 340 203 370 q 176 267 176 309 q 189 200 176 231 q 226 145 203 169 q 281 109 250 122 q 347 95 312 95 q 414 109 382 95 q 469 145 446 122 q 506 200 492 169 q 519 267 519 231 m 877 267 q 890 200 877 231 q 927 145 904 169 q 982 109 951 122 q 1049 95 1013 95 q 1116 109 1084 95 q 1170 145 1147 122 q 1207 200 1194 169 q 1221 267 1221 231 q 1207 340 1221 309 q 1170 392 1193 370 q 1117 428 1147 414 q 1055 451 1086 442 q 991 464 1023 460 q 933 471 960 469 q 915 430 924 451 q 896 385 905 410 q 882 332 888 361 q 877 267 877 302 z "},"Ⰿ":{"ha":1556,"x_min":64,"x_max":1492,"o":"m 1008 731 q 1020 805 1008 770 q 1052 869 1031 840 l 835 869 l 835 616 l 968 438 q 1022 459 994 452 q 1080 466 1050 466 q 1174 447 1130 466 q 1251 395 1218 428 q 1303 318 1284 362 q 1322 224 1322 274 q 1303 130 1322 174 q 1251 54 1284 86 q 1174 2 1218 21 q 1080 -17 1130 -17 q 986 2 1030 -17 q 909 54 942 21 q 858 130 877 86 q 839 224 839 174 q 851 302 839 265 q 886 369 864 338 l 780 519 l 776 519 l 668 370 q 704 302 691 339 q 717 224 717 265 q 698 130 717 174 q 646 54 679 86 q 568 2 612 21 q 475 -17 524 -17 q 380 2 425 -17 q 304 54 336 21 q 252 130 271 86 q 233 224 233 174 q 252 318 233 274 q 304 395 271 362 q 380 447 336 428 q 475 466 425 466 q 533 459 505 466 q 587 438 561 452 l 721 613 l 721 869 l 503 869 q 536 805 524 840 q 547 731 547 770 q 528 637 547 681 q 476 560 509 593 q 399 509 443 528 q 305 490 355 490 q 211 509 255 490 q 134 560 167 528 q 83 637 102 593 q 64 731 64 681 q 83 825 64 781 q 134 902 102 869 q 211 954 167 935 q 305 972 255 972 l 1250 972 q 1343 954 1299 972 q 1421 902 1388 935 q 1473 825 1454 869 q 1492 731 1492 781 q 1473 637 1492 681 q 1421 560 1454 593 q 1343 509 1388 528 q 1250 490 1299 490 q 1156 509 1200 490 q 1079 560 1112 528 q 1027 637 1046 593 q 1008 731 1008 681 m 347 223 q 357 173 347 197 q 385 132 367 149 q 426 104 402 115 q 476 94 449 94 q 526 104 503 94 q 567 132 549 115 q 595 173 585 149 q 605 223 605 197 q 595 273 605 250 q 567 315 585 297 q 526 342 549 332 q 476 353 503 353 q 426 342 449 353 q 385 315 402 332 q 357 273 367 297 q 347 223 347 250 m 177 730 q 187 680 177 703 q 215 638 197 656 q 256 611 233 621 q 307 601 279 601 q 356 611 333 601 q 397 638 380 621 q 425 680 415 656 q 435 730 435 703 q 425 780 435 756 q 397 821 415 804 q 356 849 380 839 q 307 859 333 859 q 256 849 279 859 q 215 821 233 839 q 187 780 197 804 q 177 730 177 756 m 1122 730 q 1132 680 1122 703 q 1160 638 1142 656 q 1201 611 1177 621 q 1251 601 1224 601 q 1301 611 1278 601 q 1342 638 1324 621 q 1370 680 1360 656 q 1380 730 1380 703 q 1370 780 1380 756 q 1342 821 1360 804 q 1301 849 1324 839 q 1251 859 1278 859 q 1201 849 1224 859 q 1160 821 1177 839 q 1132 780 1142 804 q 1122 730 1122 756 m 952 223 q 962 173 952 197 q 990 132 972 149 q 1031 104 1008 115 q 1082 94 1055 94 q 1132 104 1108 94 q 1173 132 1155 115 q 1200 173 1190 149 q 1211 223 1211 197 q 1200 273 1211 250 q 1173 315 1190 297 q 1132 342 1155 332 q 1082 353 1108 353 q 1031 342 1055 353 q 990 315 1008 332 q 962 273 972 297 q 952 223 952 250 z "},"Ⱀ":{"ha":935,"x_min":30,"x_max":871,"o":"m 268 415 q 213 405 235 415 q 176 376 190 395 q 155 333 161 358 q 149 279 149 309 l 30 279 q 41 372 30 329 q 78 448 53 416 q 144 499 104 481 q 243 518 184 518 l 276 518 l 276 972 l 543 972 q 675 956 615 972 q 779 906 736 940 q 847 819 823 871 q 871 696 871 767 q 843 569 871 623 q 768 482 816 516 q 656 431 721 448 q 518 415 592 415 l 390 415 l 390 0 l 181 0 l 181 98 l 276 98 l 276 415 l 268 415 m 390 869 l 390 518 l 509 518 q 613 527 568 518 q 689 557 659 536 q 736 611 720 578 q 751 690 751 644 q 695 826 751 782 q 524 869 638 869 l 390 869 z "},"Ⱁ":{"ha":658,"x_min":64,"x_max":547,"o":"m 305 466 q 379 455 344 466 q 444 422 414 444 l 444 549 q 379 517 414 528 q 305 505 344 505 q 211 524 255 505 q 134 576 167 543 q 83 653 102 610 q 64 747 64 697 q 83 842 64 798 q 134 918 102 886 q 211 970 167 951 q 305 989 255 989 q 399 970 355 989 q 476 918 443 951 q 528 842 509 886 q 547 747 547 798 l 547 224 q 528 131 547 174 q 476 54 509 87 q 399 1 443 20 q 305 -18 355 -18 q 211 1 255 -18 q 134 54 167 20 q 83 131 102 87 q 64 224 64 174 q 83 319 64 275 q 134 395 102 363 q 211 447 167 428 q 305 466 255 466 m 304 876 q 254 865 277 876 q 213 838 230 855 q 185 797 195 820 q 175 746 175 773 q 185 696 175 720 q 213 655 195 673 q 254 627 230 637 q 304 617 277 617 q 354 627 330 617 q 395 655 378 637 q 423 696 413 673 q 433 746 433 720 q 423 797 433 773 q 395 838 413 820 q 354 865 378 855 q 304 876 330 876 m 304 353 q 254 342 277 353 q 213 315 230 332 q 185 274 195 297 q 175 223 175 250 q 185 173 175 197 q 213 132 195 150 q 254 104 230 115 q 304 94 277 94 q 354 104 330 94 q 395 132 378 115 q 423 173 413 150 q 433 223 433 197 q 423 274 433 250 q 395 315 413 297 q 354 342 378 332 q 304 353 330 353 z "},"Ⱂ":{"ha":901,"x_min":30,"x_max":850,"o":"m 268 869 l 268 0 l 154 0 l 154 435 l 30 435 l 30 538 l 154 538 l 154 972 l 788 972 q 819 901 806 940 q 841 821 831 867 q 850 723 850 776 q 791 509 850 584 q 614 435 732 435 q 512 456 555 435 q 440 516 469 477 q 399 611 412 555 q 386 736 386 667 l 386 869 l 268 869 m 500 869 l 500 736 q 505 653 500 690 q 523 591 510 616 q 558 551 536 565 q 615 538 581 538 q 709 584 681 538 q 736 723 736 630 q 731 782 736 755 q 721 829 726 809 q 706 869 714 851 l 500 869 z "},"Ⱃ":{"ha":694,"x_min":127,"x_max":631,"o":"m 127 0 l 127 972 l 241 972 l 241 560 l 324 560 q 550 490 469 560 q 631 290 631 420 q 546 78 631 156 q 315 0 461 0 l 127 0 m 241 457 l 241 103 l 300 103 q 456 151 401 103 q 511 283 511 198 q 300 457 511 457 l 241 457 z "},"Ⱄ":{"ha":916,"x_min":64,"x_max":852,"o":"m 64 0 l 64 12 l 300 332 q 210 371 253 345 q 135 436 168 397 q 83 528 102 475 q 64 647 64 581 q 92 792 64 728 q 172 899 120 855 q 296 966 224 943 q 458 989 369 989 q 620 966 547 989 q 744 899 692 943 q 824 792 796 855 q 852 647 852 728 q 833 528 852 581 q 781 436 814 475 q 706 371 749 397 q 616 332 663 345 l 852 12 l 852 0 l 64 0 m 458 895 q 340 879 392 895 q 252 830 288 862 q 197 752 216 798 q 178 647 178 706 q 192 564 178 602 q 230 498 205 527 q 289 450 255 470 q 365 420 323 431 l 451 537 l 465 537 l 551 420 q 627 450 592 431 q 686 498 661 470 q 725 564 711 527 q 739 647 739 602 q 720 752 739 706 q 665 830 701 798 q 576 879 629 862 q 458 895 524 895 m 458 364 l 275 103 l 642 103 l 458 364 z "},"Ⱅ":{"ha":1365,"x_min":104,"x_max":1261,"o":"m 999 -16 q 806 58 875 -16 q 737 279 737 132 l 737 869 l 628 869 l 628 279 q 559 58 628 132 q 366 -16 490 -16 q 173 58 242 -16 q 104 279 104 132 l 104 972 l 1261 972 l 1261 279 q 1192 58 1261 132 q 999 -16 1123 -16 m 366 77 q 437 91 408 77 q 484 132 466 104 q 510 201 502 159 q 517 297 517 242 l 517 869 l 215 869 l 215 297 q 223 201 215 242 q 249 132 231 159 q 295 91 267 104 q 366 77 324 77 m 999 77 q 1070 91 1041 77 q 1117 132 1099 104 q 1142 201 1135 159 q 1150 297 1150 242 l 1150 869 l 848 869 l 848 297 q 856 201 848 242 q 881 132 863 159 q 928 91 899 104 q 999 77 957 77 z "},"Ⱆ":{"ha":1072,"x_min":64,"x_max":1042,"o":"m 1042 435 l 918 435 l 918 224 q 899 131 918 174 q 847 54 880 87 q 770 1 814 20 q 677 -18 726 -18 q 572 6 620 -18 q 491 70 524 29 q 409 6 457 29 q 305 -18 361 -18 q 211 1 255 -18 q 134 54 167 20 q 83 131 102 87 q 64 224 64 174 q 83 319 64 275 q 134 395 102 363 q 211 447 167 428 q 305 466 255 466 q 379 455 344 466 q 444 422 414 444 l 444 549 q 379 517 414 528 q 305 505 344 505 q 211 524 255 505 q 134 576 167 543 q 83 653 102 610 q 64 747 64 697 q 83 842 64 798 q 134 918 102 886 q 211 970 167 951 q 305 989 255 989 q 409 965 361 989 q 491 901 457 942 q 572 965 524 942 q 677 989 620 989 q 770 970 726 989 q 847 918 814 951 q 899 842 880 886 q 918 747 918 798 l 918 538 l 1042 538 l 1042 435 m 304 876 q 254 865 277 876 q 213 838 230 855 q 185 797 195 820 q 175 746 175 773 q 185 696 175 720 q 213 655 195 673 q 254 627 230 637 q 304 617 277 617 q 354 627 330 617 q 395 655 378 637 q 423 696 413 673 q 433 746 433 720 q 423 797 433 773 q 395 838 413 820 q 354 865 378 855 q 304 876 330 876 m 675 353 q 625 342 649 353 q 584 315 602 332 q 557 274 567 297 q 547 223 547 250 q 557 173 547 197 q 584 132 567 150 q 625 104 602 115 q 675 94 649 94 q 726 104 702 94 q 767 132 749 115 q 795 173 785 150 q 805 223 805 197 q 795 274 805 250 q 767 315 785 297 q 726 342 749 332 q 675 353 702 353 m 304 353 q 254 342 277 353 q 213 315 230 332 q 185 274 195 297 q 175 223 175 250 q 185 173 175 197 q 213 132 195 150 q 254 104 230 115 q 304 94 277 94 q 354 104 330 94 q 395 132 378 115 q 423 173 413 150 q 433 223 433 197 q 423 274 433 250 q 395 315 413 297 q 354 342 378 332 q 304 353 330 353 m 675 876 q 625 865 649 876 q 584 838 602 855 q 557 797 567 820 q 547 746 547 773 l 547 741 q 558 692 547 715 q 586 653 568 670 q 626 627 603 636 q 675 617 649 617 q 726 627 702 617 q 767 655 749 637 q 795 696 785 673 q 805 746 805 720 q 795 797 805 773 q 767 838 785 820 q 726 865 749 855 q 675 876 702 876 m 677 466 q 750 455 715 466 q 815 422 785 444 l 815 549 q 750 517 785 528 q 677 505 715 505 q 608 515 640 505 q 547 544 575 526 l 547 428 q 608 456 575 446 q 677 466 640 466 z "},"Ⱇ":{"ha":1047,"x_min":65,"x_max":981,"o":"m 576 99 l 576 -319 l 471 -319 l 471 99 l 441 99 q 287 132 357 99 q 168 221 218 165 q 92 352 119 277 q 65 511 65 427 q 93 669 65 595 q 170 797 120 743 q 289 883 220 852 q 443 914 359 914 l 471 914 l 471 1028 l 576 1028 l 576 914 l 605 914 q 758 883 688 914 q 877 797 827 851 q 954 669 926 742 q 981 511 981 595 q 955 352 981 427 q 878 221 928 277 q 760 132 829 165 q 606 99 690 99 l 576 99 m 576 818 l 576 201 l 606 201 q 720 225 670 201 q 802 292 769 250 q 853 391 836 334 q 870 510 870 447 q 852 627 870 571 q 799 725 833 682 q 716 793 765 768 q 605 818 667 818 l 576 818 m 471 201 l 471 818 l 443 818 q 332 793 381 818 q 248 725 282 768 q 195 627 213 683 q 176 509 176 571 q 193 389 176 445 q 244 291 210 333 q 327 225 277 249 q 441 201 376 201 l 471 201 z "},"Ⱈ":{"ha":807,"x_min":30,"x_max":764,"o":"m 30 86 q 107 165 73 121 q 136 207 121 184 q 161 256 150 229 q 178 312 172 282 q 185 374 185 342 l 185 972 l 299 972 l 299 314 q 334 375 312 347 q 386 423 357 403 q 449 455 414 444 q 522 466 484 466 q 615 447 571 466 q 692 395 659 428 q 745 318 726 362 q 764 224 764 274 q 745 130 764 174 q 692 54 726 86 q 615 2 659 21 q 522 -17 571 -17 q 428 2 471 -17 q 352 54 385 21 q 301 130 319 86 q 282 224 282 174 l 30 -16 l 30 86 m 522 353 q 472 342 495 353 q 431 315 448 332 q 404 273 414 297 q 394 223 394 250 q 404 173 394 197 q 431 132 414 149 q 472 104 448 115 q 522 94 495 94 q 572 104 548 94 q 613 132 595 115 q 641 173 631 149 q 652 223 652 197 q 641 273 652 250 q 613 315 631 297 q 572 342 595 332 q 522 353 548 353 z "},"Ⱉ":{"ha":1047,"x_min":64,"x_max":983,"o":"m 519 -16 q 328 21 412 -16 q 185 124 243 58 q 95 280 126 191 q 64 475 64 370 q 95 680 64 586 q 185 843 125 774 q 334 950 245 911 q 536 989 422 989 q 725 951 642 989 q 865 847 808 913 q 953 691 922 781 q 983 498 983 602 q 953 294 983 388 q 864 131 923 199 q 719 23 805 62 q 519 -16 632 -16 m 528 621 q 461 635 492 621 q 407 672 430 648 q 370 727 383 695 q 357 794 357 758 q 364 846 357 820 q 286 784 319 821 q 229 699 252 746 q 195 597 206 652 q 183 485 183 543 q 195 371 183 426 q 229 268 206 315 q 287 183 252 221 q 366 122 321 146 q 357 180 357 149 q 370 247 357 215 q 407 302 384 278 q 462 339 431 326 q 528 353 493 353 q 595 339 564 353 q 650 302 627 326 q 688 247 674 278 q 701 180 701 215 q 693 127 701 151 q 768 186 736 151 q 822 268 800 222 q 853 368 843 314 q 864 483 864 422 q 854 600 864 545 q 823 703 844 656 q 769 787 802 750 q 692 848 736 824 q 699 821 696 835 q 701 794 701 808 q 688 727 701 758 q 650 672 674 695 q 595 635 627 648 q 528 621 564 621 m 437 793 q 444 757 437 774 q 463 727 451 740 q 492 708 475 715 q 528 701 509 701 q 564 708 547 701 q 593 727 581 715 q 614 757 606 740 q 621 793 621 774 q 614 828 621 811 q 594 858 607 845 q 565 878 582 870 q 528 886 547 886 q 492 878 509 886 q 463 858 475 871 q 444 828 451 845 q 437 793 437 811 m 621 178 q 614 214 621 197 q 593 244 606 231 q 564 264 581 256 q 528 271 547 271 q 492 264 509 271 q 463 244 475 256 q 444 214 451 231 q 437 178 437 197 q 444 143 437 160 q 463 114 451 126 q 492 94 475 101 q 528 86 509 86 q 565 94 547 86 q 594 114 582 101 q 614 143 607 127 q 621 178 621 160 z "},"Ⱊ":{"ha":1116,"x_min":64,"x_max":989,"o":"m 453 972 l 989 972 l 989 0 l 875 0 l 875 869 l 567 869 l 567 0 l 380 0 q 149 78 233 0 q 64 290 64 156 q 144 490 64 420 q 370 560 225 560 l 453 560 l 453 972 m 395 457 q 184 283 184 457 q 239 151 184 198 q 395 103 294 103 l 453 103 l 453 457 l 395 457 z "},"Ⱋ":{"ha":940,"x_min":114,"x_max":826,"o":"m 185 266 q 207 376 185 325 q 268 466 229 427 l 114 466 l 114 972 l 228 972 l 228 569 l 413 569 l 413 972 l 527 972 l 527 569 l 712 569 l 712 972 l 826 972 l 826 466 l 668 466 q 729 376 707 427 q 751 266 751 325 q 728 156 751 208 q 668 66 706 104 q 578 5 629 28 q 468 -17 526 -17 q 358 5 410 -17 q 268 66 307 28 q 208 156 230 104 q 185 266 185 208 m 297 264 q 311 198 297 229 q 348 143 324 167 q 402 106 371 120 q 469 93 433 93 q 536 106 505 93 q 590 143 567 120 q 627 198 614 167 q 641 264 641 229 q 627 331 641 300 q 590 386 614 363 q 536 423 567 410 q 469 437 505 437 q 402 423 433 437 q 348 386 371 410 q 311 331 324 363 q 297 264 297 300 z "},"Ⱌ":{"ha":1042,"x_min":43,"x_max":1025,"o":"m 284 490 q 190 509 234 490 q 114 560 146 528 q 62 637 81 593 q 43 731 43 681 q 62 825 43 781 q 114 902 81 869 q 191 954 147 935 q 283 972 234 972 l 484 972 l 684 170 l 687 170 l 896 972 l 1025 972 l 747 0 l 621 0 l 484 490 l 284 490 m 284 601 q 334 611 311 601 q 375 638 357 621 q 403 680 393 656 q 413 730 413 703 q 403 780 413 756 q 375 821 393 804 q 334 849 357 839 q 284 859 311 859 q 234 849 258 859 q 193 821 211 839 q 165 780 176 804 q 155 730 155 756 q 165 680 155 703 q 193 638 176 656 q 234 611 211 621 q 284 601 258 601 z "},"Ⱍ":{"ha":934,"x_min":64,"x_max":870,"o":"m 224 224 q 235 298 224 263 q 267 363 246 333 l 64 363 q 94 474 79 418 q 106 523 100 497 q 117 574 112 549 q 127 625 123 600 q 136 671 132 650 q 141 717 138 692 q 145 766 143 741 q 148 817 146 791 q 150 865 149 842 q 152 972 152 918 l 266 972 q 264 882 266 928 q 261 795 263 842 q 254 706 258 749 l 680 706 q 673 795 675 749 q 669 882 671 842 q 668 972 668 928 l 782 972 q 784 865 782 918 q 786 817 785 842 q 789 766 787 791 q 793 717 791 741 q 798 671 795 692 q 806 625 801 650 q 816 574 810 600 q 828 523 822 549 q 840 474 834 497 q 870 363 854 418 l 663 363 q 696 298 684 333 q 707 224 707 263 q 688 130 707 174 q 636 54 669 86 q 559 2 603 21 q 465 -17 515 -17 q 371 2 415 -17 q 294 54 327 21 q 243 130 262 86 q 224 224 224 174 m 337 223 q 347 173 337 197 q 375 132 357 149 q 416 104 393 115 q 467 94 439 94 q 516 104 493 94 q 557 132 540 115 q 585 173 575 149 q 595 223 595 197 q 585 273 595 250 q 557 315 575 297 q 516 342 540 332 q 467 353 493 353 q 416 342 439 353 q 375 315 393 332 q 347 273 357 297 q 337 223 337 250 m 726 466 q 712 521 720 490 q 699 582 706 547 q 686 657 692 616 l 484 657 l 416 466 l 726 466 m 208 466 l 356 466 l 430 657 l 248 657 q 234 582 241 616 q 221 521 227 547 q 208 466 214 490 z "},"Ⱎ":{"ha":1048,"x_min":127,"x_max":921,"o":"m 127 0 l 127 972 l 241 972 l 241 103 l 467 103 l 467 972 l 581 972 l 581 103 l 807 103 l 807 972 l 921 972 l 921 0 l 127 0 z "},"Ⱏ":{"ha":1165,"x_min":43,"x_max":1101,"o":"m 393 0 q 418 175 393 98 q 482 313 444 253 q 565 415 520 372 q 649 486 610 458 q 576 546 613 511 l 433 546 l 433 446 q 425 376 433 412 q 395 309 417 339 q 336 258 374 278 q 239 239 298 239 q 150 256 186 239 q 89 301 113 273 q 55 367 66 330 q 43 446 43 405 q 55 519 43 484 q 89 582 66 555 q 145 627 111 610 q 224 644 179 644 l 492 644 q 453 710 471 674 q 421 786 435 745 q 401 874 408 827 q 393 972 393 920 l 1101 972 q 1090 851 1101 907 q 1058 747 1078 795 q 1013 660 1038 699 q 958 587 987 620 q 901 530 930 555 q 846 486 871 505 q 901 442 871 467 q 958 385 930 417 q 1013 313 987 353 q 1058 225 1038 273 q 1090 121 1078 177 q 1101 0 1101 65 l 393 0 m 747 546 q 842 627 798 580 q 880 673 861 648 q 916 729 899 699 q 947 794 933 759 q 970 869 962 829 l 524 869 q 547 794 532 829 q 578 729 561 759 q 615 673 595 699 q 653 627 634 648 q 747 546 697 580 m 747 427 q 653 345 697 393 q 615 299 634 325 q 578 244 595 274 q 547 178 561 214 q 524 103 532 143 l 970 103 q 947 178 962 143 q 916 244 933 214 q 880 299 899 274 q 842 345 861 325 q 747 427 798 393 m 232 546 q 194 534 208 546 q 171 507 179 523 q 160 474 163 491 q 157 446 157 457 q 160 413 157 432 q 171 377 162 394 q 195 348 179 359 q 238 336 211 336 q 281 348 264 336 q 306 377 297 359 q 317 413 314 394 q 319 446 319 432 l 319 546 l 232 546 z "},"Ⱐ":{"ha":949,"x_min":43,"x_max":886,"o":"m 43 446 q 55 519 43 484 q 89 582 66 555 q 145 627 111 610 q 224 644 179 644 l 276 644 q 237 710 255 674 q 206 786 219 745 q 185 874 193 827 q 178 972 178 920 l 886 972 q 874 851 886 907 q 843 747 863 795 q 797 660 823 699 q 743 587 771 620 q 685 530 714 555 q 630 486 656 505 q 685 442 656 467 q 743 385 714 417 q 797 313 771 353 q 843 225 823 273 q 874 121 863 177 q 886 0 886 65 l 178 0 q 203 175 178 98 q 266 313 228 253 q 349 415 304 372 q 433 486 394 458 q 360 546 397 511 l 232 546 q 194 534 208 546 q 171 507 179 523 q 160 474 163 491 q 157 446 157 457 l 43 446 m 532 546 q 626 627 582 580 q 664 673 645 648 q 700 729 683 699 q 732 794 718 759 q 755 869 746 829 l 308 869 q 331 794 317 829 q 362 729 345 759 q 399 673 380 699 q 437 627 418 648 q 532 546 481 580 m 532 427 q 437 345 481 393 q 399 299 418 325 q 362 244 380 274 q 331 178 345 214 q 308 103 317 143 l 755 103 q 732 178 746 143 q 700 244 718 214 q 664 299 683 274 q 626 345 645 325 q 532 427 582 393 z "},"Ⱑ":{"ha":1023,"x_min":30,"x_max":994,"o":"m 994 0 l 30 0 l 30 52 l 451 972 l 569 972 l 994 52 l 994 0 m 507 836 l 326 430 l 693 430 l 509 836 l 507 836 m 454 327 l 279 327 l 180 103 l 454 103 l 454 327 m 841 103 l 739 327 l 568 327 l 568 103 l 841 103 z "},"Ⱒ":{"ha":945,"x_min":22,"x_max":924,"o":"m 22 989 q 141 971 87 989 q 240 923 195 954 q 287 950 262 939 q 342 970 313 962 q 271 994 308 986 q 192 1002 233 1002 l 192 1088 q 337 1061 273 1088 q 453 988 401 1034 q 463 989 458 989 q 473 989 467 989 q 631 962 563 989 q 745 893 699 936 q 814 794 791 850 q 837 679 837 738 l 837 293 q 819 193 837 241 q 767 102 802 144 q 841 77 802 86 q 924 68 880 68 l 924 -17 q 805 0 859 -17 q 707 48 751 18 q 604 1 662 17 q 675 -22 638 -14 q 754 -31 712 -31 l 754 -116 q 609 -89 673 -116 q 493 -16 545 -62 q 483 -17 488 -17 q 473 -17 478 -17 q 315 9 383 -17 q 201 79 247 36 q 132 179 155 123 q 109 293 109 235 l 109 679 q 126 779 109 730 q 179 869 144 827 q 105 894 144 885 q 22 903 66 903 l 22 989 m 727 679 q 712 750 727 714 q 666 813 697 785 q 587 859 635 842 q 473 877 539 877 q 359 859 407 877 q 281 813 312 842 q 235 750 250 785 q 220 679 220 714 l 220 293 q 235 222 220 257 q 281 158 250 186 q 359 113 312 130 q 473 95 407 95 q 587 113 539 95 q 666 158 635 130 q 712 222 697 186 q 727 293 727 257 l 727 679 z "},"Ⱓ":{"ha":1026,"x_min":127,"x_max":977,"o":"m 607 484 q 598 408 607 441 q 575 347 590 374 q 541 296 560 319 q 500 249 522 272 l 241 0 l 127 0 l 127 972 l 736 972 q 842 951 797 972 q 917 898 887 930 q 962 824 947 865 q 977 742 977 783 q 958 648 977 692 q 906 571 939 604 q 829 519 873 538 q 736 500 785 500 l 607 500 l 607 484 m 241 149 l 416 318 q 441 345 427 329 q 466 382 454 361 q 485 429 477 404 q 493 483 493 454 l 493 869 l 241 869 l 241 149 m 736 612 q 786 622 762 612 q 827 649 809 632 q 854 690 844 667 q 865 741 865 714 q 854 791 865 767 q 827 832 844 814 q 786 860 809 850 q 736 870 762 870 q 687 860 710 870 q 647 834 664 850 q 618 794 629 817 q 607 746 608 772 l 607 741 q 617 690 607 714 q 645 649 627 667 q 686 622 663 632 q 736 612 709 612 z "},"Ⱔ":{"ha":937,"x_min":43,"x_max":873,"o":"m 214 313 q 148 327 178 313 q 93 364 117 340 q 57 419 70 387 q 43 486 43 450 q 57 553 43 522 q 94 608 71 585 q 149 646 117 632 q 214 659 180 659 q 264 652 240 659 q 308 631 288 644 l 308 706 q 330 817 308 765 q 391 906 353 868 q 481 967 429 945 q 591 989 532 989 q 701 966 649 989 q 790 906 752 944 q 851 816 829 867 q 873 706 873 764 l 762 706 q 748 772 762 741 q 711 827 734 804 q 656 864 688 850 q 590 877 625 877 q 523 864 554 877 q 468 827 492 850 q 431 772 445 804 q 418 706 418 741 l 418 534 l 684 534 l 684 439 l 418 439 l 418 266 q 431 199 418 230 q 468 145 445 168 q 523 108 492 121 q 590 95 554 95 q 656 108 625 95 q 711 145 688 121 q 748 199 734 168 q 762 266 762 230 l 873 266 q 851 156 873 208 q 790 66 829 104 q 701 5 752 28 q 591 -17 649 -17 q 481 5 532 -17 q 391 65 429 27 q 330 155 353 104 q 308 266 308 207 l 308 340 q 264 320 288 328 q 214 313 240 313 m 214 393 q 250 400 233 393 q 280 419 267 407 q 300 449 293 432 q 308 485 308 466 q 300 522 308 505 q 279 551 292 538 q 250 571 267 564 q 214 578 233 578 q 179 570 195 578 q 150 550 162 563 q 131 521 138 538 q 123 485 123 504 q 131 449 123 466 q 150 419 138 432 q 179 400 162 407 q 214 393 195 393 z "},"Ⱕ":{"ha":1154,"x_min":43,"x_max":1090,"o":"m 431 313 q 375 323 401 313 q 327 349 349 332 q 290 389 305 366 q 267 439 274 412 l 232 439 q 194 427 208 439 q 171 400 179 416 q 160 367 163 384 q 157 339 157 350 l 43 339 q 55 412 43 376 q 89 474 66 447 q 145 517 111 501 q 224 534 179 534 l 267 534 q 291 584 275 561 q 328 623 307 606 q 376 650 350 640 q 431 659 403 659 q 481 652 457 659 q 525 631 505 644 l 525 706 q 547 817 525 765 q 608 906 570 868 q 698 967 646 945 q 808 989 749 989 q 918 966 866 989 q 1007 906 969 944 q 1068 816 1046 867 q 1090 706 1090 764 l 979 706 q 965 772 979 741 q 928 827 951 804 q 873 864 905 850 q 807 877 842 877 q 740 864 771 877 q 685 827 709 850 q 648 772 662 804 q 635 706 635 741 l 635 534 l 901 534 l 901 439 l 635 439 l 635 266 q 648 199 635 230 q 685 145 662 168 q 740 108 709 121 q 807 95 771 95 q 873 108 842 95 q 928 145 905 121 q 965 199 951 168 q 979 266 979 230 l 1090 266 q 1068 156 1090 208 q 1007 66 1046 104 q 918 5 969 28 q 808 -17 866 -17 q 698 5 749 -17 q 608 65 646 27 q 547 155 570 104 q 525 266 525 207 l 525 340 q 481 320 505 328 q 431 313 457 313 m 431 393 q 467 400 450 393 q 497 419 484 407 q 517 449 510 432 q 525 485 525 466 q 517 522 525 505 q 496 551 509 538 q 467 571 484 564 q 431 578 450 578 q 396 570 412 578 q 367 550 379 563 q 348 521 355 538 q 340 485 340 504 q 348 449 340 466 q 367 419 355 432 q 396 400 379 407 q 431 393 412 393 z "},"Ⱖ":{"ha":983,"x_min":16,"x_max":967,"o":"m 16 468 l 16 480 l 431 972 l 552 972 l 967 480 l 967 468 l 675 468 q 739 380 708 430 q 793 270 769 330 q 831 143 817 211 q 845 0 845 75 l 137 0 q 151 143 137 75 q 189 270 165 211 q 243 380 212 330 q 307 468 273 430 l 16 468 m 267 103 l 714 103 q 676 230 700 170 q 627 337 652 289 q 577 418 602 385 q 538 468 553 452 l 444 468 q 404 418 428 452 q 354 337 380 385 q 306 230 329 289 q 267 103 282 170 m 491 880 l 241 571 l 415 571 l 576 774 l 491 880 m 487 571 l 743 571 l 614 728 l 487 571 z "},"Ⱗ":{"ha":1443,"x_min":64,"x_max":1379,"o":"m 720 313 q 672 320 694 313 q 629 339 649 327 l 629 266 q 607 155 629 207 q 546 65 585 104 q 456 5 508 27 q 347 -17 405 -17 q 237 5 288 -17 q 147 66 185 28 q 86 156 109 104 q 64 266 64 208 l 176 266 q 189 199 176 230 q 226 145 203 168 q 281 108 250 121 q 347 95 312 95 q 414 108 382 95 q 469 145 446 121 q 506 199 492 168 q 519 266 519 230 l 519 327 l 253 327 l 253 422 l 519 422 l 519 547 l 253 547 l 253 642 l 519 642 l 519 706 q 506 772 519 741 q 469 827 492 804 q 414 864 446 850 q 347 877 382 877 q 281 864 312 877 q 226 827 250 850 q 189 772 203 804 q 176 706 176 741 l 64 706 q 86 816 64 764 q 147 906 109 867 q 237 966 185 944 q 347 989 288 989 q 456 967 405 989 q 546 906 508 945 q 607 817 585 868 q 629 706 629 765 l 629 632 q 672 652 649 645 q 720 659 695 659 q 770 652 746 659 q 814 631 793 644 l 814 706 q 836 817 814 765 q 897 906 859 868 q 987 967 935 945 q 1097 989 1038 989 q 1206 966 1155 989 q 1296 906 1258 944 q 1357 816 1335 867 q 1379 706 1379 764 l 1267 706 q 1254 772 1267 741 q 1217 827 1240 804 q 1162 864 1194 850 q 1096 877 1131 877 q 1029 864 1060 877 q 974 827 998 850 q 937 772 951 804 q 924 706 924 741 l 924 534 l 1190 534 l 1190 439 l 924 439 l 924 266 q 937 199 924 230 q 974 145 951 168 q 1029 108 998 121 q 1096 95 1060 95 q 1162 108 1131 95 q 1217 145 1194 121 q 1254 199 1240 168 q 1267 266 1267 230 l 1379 266 q 1357 156 1379 208 q 1296 66 1335 104 q 1206 5 1258 28 q 1097 -17 1155 -17 q 987 5 1038 -17 q 897 65 935 27 q 836 155 859 104 q 814 266 814 207 l 814 340 q 770 320 793 328 q 720 313 746 313 m 720 393 q 756 400 739 393 q 786 419 773 407 q 806 449 799 432 q 814 485 814 466 q 806 522 814 505 q 785 551 798 538 q 755 571 772 564 q 720 578 739 578 q 685 570 701 578 q 656 550 668 563 q 636 521 644 538 q 629 485 629 504 q 636 449 629 466 q 656 419 644 432 q 685 400 668 407 q 720 393 701 393 z "},"Ⱘ":{"ha":1360,"x_min":64,"x_max":1297,"o":"m 637 313 q 589 320 612 313 q 547 339 566 327 l 547 224 q 528 131 547 174 q 476 54 509 87 q 399 1 443 20 q 305 -18 355 -18 q 211 1 255 -18 q 134 54 167 20 q 83 131 102 87 q 64 224 64 174 q 83 319 64 275 q 134 395 102 363 q 211 447 167 428 q 305 466 255 466 q 379 455 344 466 q 444 422 414 444 l 444 549 q 379 517 414 528 q 305 505 344 505 q 211 524 255 505 q 134 576 167 543 q 83 653 102 610 q 64 747 64 697 q 83 842 64 798 q 134 918 102 886 q 211 970 167 951 q 305 989 255 989 q 399 970 355 989 q 476 918 443 951 q 528 842 509 886 q 547 747 547 798 l 547 632 q 589 652 566 645 q 637 659 612 659 q 687 652 663 659 q 731 631 711 644 l 731 706 q 753 817 731 765 q 814 906 776 868 q 904 967 852 945 q 1014 989 956 989 q 1124 966 1072 989 q 1214 906 1175 944 q 1274 816 1252 867 q 1297 706 1297 764 l 1185 706 q 1171 772 1185 741 q 1134 827 1158 804 q 1080 864 1111 850 q 1013 877 1048 877 q 946 864 977 877 q 891 827 915 850 q 854 772 868 804 q 841 706 841 741 l 841 534 l 1107 534 l 1107 439 l 841 439 l 841 266 q 854 199 841 230 q 891 145 868 168 q 946 108 915 121 q 1013 95 977 95 q 1080 108 1048 95 q 1134 145 1111 121 q 1171 199 1158 168 q 1185 266 1185 230 l 1297 266 q 1274 156 1297 208 q 1214 66 1252 104 q 1124 5 1175 28 q 1014 -17 1072 -17 q 904 5 956 -17 q 814 65 852 27 q 753 155 776 104 q 731 266 731 207 l 731 340 q 687 320 711 328 q 637 313 663 313 m 304 876 q 254 865 277 876 q 213 838 230 855 q 185 797 195 820 q 175 746 175 773 q 185 696 175 720 q 213 655 195 673 q 254 627 230 637 q 304 617 277 617 q 354 627 330 617 q 395 655 378 637 q 423 696 413 673 q 433 746 433 720 q 423 797 433 773 q 395 838 413 820 q 354 865 378 855 q 304 876 330 876 m 304 353 q 254 342 277 353 q 213 315 230 332 q 185 274 195 297 q 175 223 175 250 q 185 173 175 197 q 213 132 195 150 q 254 104 230 115 q 304 94 277 94 q 354 104 330 94 q 395 132 378 115 q 423 173 413 150 q 433 223 433 197 q 423 274 433 250 q 395 315 413 297 q 354 342 378 332 q 304 353 330 353 m 637 393 q 673 400 656 393 q 703 419 690 407 q 724 449 716 432 q 731 485 731 466 q 723 522 731 505 q 703 551 715 538 q 673 571 690 564 q 637 578 656 578 q 602 570 618 578 q 573 550 585 563 q 554 521 561 538 q 547 485 547 504 q 554 448 547 465 q 574 419 562 431 q 603 400 586 407 q 637 393 619 393 z "}}}
